if (_typeface_js && _typeface_js.loadFace) _typeface_js.loadFace({"glyphs":{"0":{"ha":786,"x_min":33,"x_max":714,"o":"m 714 296 q 655 516 714 426 q 474 651 596 606 l 261 647 l 96 533 q 48 445 63 493 q 33 344 33 397 q 45 238 33 283 q 81 156 57 193 q 142 86 106 118 q 229 21 179 54 q 248 16 233 19 q 278 8 263 13 q 308 1 294 4 q 324 -1 321 -1 q 406 3 364 -1 q 489 10 449 7 q 581 71 539 44 q 651 127 622 97 q 697 196 681 157 q 714 296 714 235 m 551 326 q 549 258 551 289 q 539 199 546 228 q 519 142 532 171 q 489 79 507 114 q 475 71 485 76 q 454 59 465 65 q 433 49 443 53 q 419 44 424 44 q 404 44 415 44 q 381 44 393 44 q 358 44 369 44 q 347 44 349 44 l 269 68 l 214 154 l 214 463 l 261 553 q 274 561 264 556 q 297 573 285 567 q 319 584 308 579 q 332 589 329 589 l 450 576 q 470 563 461 569 q 489 549 479 556 q 551 326 551 444 z "},"1":{"ha":378,"x_min":15,"x_max":306,"o":"m 306 18 q 288 51 299 36 q 265 82 276 65 l 246 615 q 231 637 239 626 q 210 653 224 647 l 19 657 l 15 639 q 30 621 18 629 q 56 605 42 613 q 83 590 69 597 q 101 575 96 583 l 75 25 l 83 13 q 107 3 94 6 q 132 0 119 0 l 303 0 l 306 18 z "},"2":{"ha":626,"x_min":0,"x_max":588,"o":"m 588 139 q 562 186 578 171 q 514 210 546 201 q 474 199 494 207 q 440 175 454 190 l 388 72 q 357 53 372 61 q 325 42 342 46 q 250 76 281 47 q 219 151 219 104 q 221 188 219 169 q 229 224 222 207 q 248 249 240 235 q 268 274 256 264 l 500 361 q 533 394 517 376 q 556 435 549 413 l 556 468 l 556 499 q 473 615 526 578 q 336 651 419 651 q 254 642 300 651 q 167 615 208 633 q 97 565 125 596 q 68 492 68 535 q 92 444 68 461 q 142 425 117 428 q 176 449 167 435 q 190 478 186 463 q 194 510 193 494 q 203 541 194 526 q 230 567 211 556 q 289 586 249 579 q 319 572 303 581 q 349 552 336 564 q 372 525 363 540 q 381 492 381 510 q 380 464 381 482 q 376 426 379 446 q 369 390 374 407 q 356 368 364 374 q 263 310 322 342 q 144 240 203 279 q 43 154 86 201 q 0 49 0 107 q 17 15 0 21 q 58 13 33 10 q 112 19 83 15 q 163 13 140 22 q 278 5 221 10 q 394 0 336 0 q 451 10 419 0 q 513 40 483 21 q 564 84 543 58 q 588 139 585 110 z "},"3":{"ha":694,"x_min":38,"x_max":622,"o":"m 604 283 q 583 306 597 297 q 569 322 569 314 q 579 344 568 335 q 597 368 590 354 q 606 473 622 422 q 545 563 589 524 q 438 626 501 603 q 306 650 374 650 q 230 640 269 650 q 156 610 190 629 q 95 560 121 590 q 61 492 69 531 q 75 472 67 481 q 94 460 83 463 l 171 471 q 201 503 190 486 q 225 540 211 519 l 311 590 q 413 558 372 590 q 471 468 454 525 l 460 386 q 431 352 444 361 q 392 336 418 343 l 147 353 l 131 342 l 119 328 q 117 314 117 319 l 118 299 l 125 288 l 135 281 l 419 303 q 454 275 444 290 q 471 235 464 260 q 460 181 467 210 q 443 125 454 151 q 414 78 432 99 q 369 49 396 57 l 239 60 q 203 85 218 71 q 171 149 181 117 q 151 174 160 161 q 128 196 142 188 q 119 199 124 197 q 110 200 114 200 q 74 196 92 200 q 44 178 56 192 l 39 169 l 39 158 q 49 117 38 142 q 72 81 61 93 l 182 15 l 376 4 q 420 11 400 3 q 458 32 440 19 q 494 58 476 44 q 528 85 511 72 q 565 135 544 111 q 599 184 585 160 q 617 233 614 208 q 604 283 621 257 z "},"4":{"ha":733,"x_min":-6,"x_max":714,"o":"m 714 4 l 713 32 l 597 32 l 590 567 l 629 632 q 601 641 615 639 q 572 643 588 643 q 514 635 543 643 q 464 604 485 628 l 429 356 q 417 340 428 349 q 401 328 407 331 l 378 326 q 281 319 310 322 q 243 314 251 317 q 238 309 235 311 q 240 304 242 307 q 152 183 196 244 q 61 63 108 121 q 44 48 54 54 q 24 35 35 42 q 6 22 14 29 q -6 7 -3 15 l -6 -1 l 115 7 q 128 -1 118 -1 q 298 -1 207 -1 q 474 1 389 0 q 480 -91 476 -46 q 490 -178 483 -136 q 505 -234 494 -201 q 528 -301 515 -267 q 556 -368 542 -335 q 581 -424 569 -401 l 589 -428 l 596 -425 l 603 -417 l 597 3 l 714 4 m 472 31 q 326 29 401 29 q 182 29 251 29 q 233 92 210 54 q 280 166 256 129 q 335 232 304 203 q 410 269 365 261 q 446 248 429 263 q 464 213 463 233 q 468 123 467 168 q 472 31 469 78 z "},"5":{"ha":617,"x_min":15,"x_max":571,"o":"m 571 219 q 535 313 571 278 q 446 367 499 349 q 333 392 393 386 q 226 396 274 397 q 213 418 217 396 q 210 469 210 440 q 211 526 210 499 q 213 563 213 553 q 223 585 213 581 q 249 588 233 589 q 283 583 265 586 q 315 586 300 581 q 374 567 354 579 q 401 541 393 556 q 410 510 410 526 q 415 478 411 494 q 428 449 418 463 q 463 425 438 435 q 512 444 488 428 q 536 492 536 461 q 508 565 536 535 q 438 615 479 596 q 349 642 396 633 q 268 651 303 651 q 188 648 226 651 q 119 640 149 644 q 71 633 89 636 q 53 629 53 629 l 47 496 l 47 463 q 51 433 51 451 q 49 394 50 414 q 49 358 47 375 q 58 333 50 342 l 336 338 q 356 314 349 328 q 375 289 363 300 q 383 253 382 271 q 385 215 385 235 q 376 163 385 192 q 354 108 368 133 q 321 63 340 82 q 279 42 301 44 q 217 72 249 49 l 164 175 q 130 199 150 190 q 90 210 110 207 q 42 186 58 201 q 15 139 25 171 q 40 84 18 110 q 91 40 61 58 q 153 10 121 21 q 210 0 185 0 q 326 5 268 0 q 442 13 383 10 q 487 46 464 22 q 528 99 510 69 q 559 160 547 128 q 571 219 571 192 z "},"6":{"ha":797,"x_min":-15,"x_max":757,"o":"m -15 360 l -8 347 q 15 346 1 349 q 33 344 29 343 l 161 378 q 187 369 174 375 q 207 353 200 364 l 251 154 l 363 32 q 438 7 401 14 l 550 26 l 722 186 q 739 232 733 215 q 747 263 744 249 q 751 293 749 276 q 757 339 753 310 l 719 432 q 633 494 669 479 q 563 510 596 508 q 494 511 529 511 q 418 529 461 511 q 406 549 411 536 q 404 571 401 561 l 443 831 l 374 829 l 236 496 q 215 468 225 482 q 192 442 204 454 q 94 415 146 428 q -1 383 42 403 l -11 374 l -15 360 m 614 771 l 615 769 l 617 768 l 618 767 l 621 764 l 622 763 l 624 761 l 625 760 l 624 761 l 622 763 l 621 764 l 618 767 l 617 768 l 615 769 l 614 771 m 363 307 q 367 360 363 329 q 371 411 372 392 q 392 432 382 422 q 415 450 403 442 q 438 453 426 451 q 460 454 449 454 q 500 442 481 454 q 536 412 519 429 q 567 374 553 394 q 592 339 581 354 l 614 228 q 602 190 610 211 q 584 151 594 169 q 560 116 574 132 q 529 92 546 100 q 503 87 518 89 q 476 85 488 85 q 417 110 439 85 q 383 169 394 135 q 367 242 371 204 q 363 307 363 281 z "},"7":{"ha":835,"x_min":43,"x_max":801,"o":"m 801 628 l 782 653 l 104 664 q 64 642 78 664 q 47 589 50 619 q 47 525 43 558 q 62 469 51 492 q 88 443 72 447 q 119 465 103 439 q 215 558 151 518 q 353 618 279 599 q 499 633 426 638 q 622 589 572 628 l 357 19 q 367 5 351 10 q 408 -1 382 0 q 465 -1 433 -3 q 525 2 496 0 q 576 6 554 4 q 604 8 599 8 l 538 75 q 536 99 538 75 q 553 174 535 122 q 622 311 572 226 q 775 519 672 396 q 786 542 782 528 q 793 571 790 556 q 798 601 796 586 q 801 628 800 617 z "},"8":{"ha":714,"x_min":103,"x_max":639,"o":"m 543 150 q 528 91 543 114 q 481 51 513 68 q 472 49 476 50 q 464 47 468 47 q 423 49 440 47 q 390 54 406 50 q 360 66 375 58 q 324 86 344 74 l 261 181 q 251 225 256 203 q 247 271 247 247 q 250 309 247 293 q 260 337 253 325 q 279 359 268 349 q 307 383 290 369 q 329 385 314 385 q 355 387 344 386 q 367 388 365 388 q 376 381 369 382 q 386 376 382 379 q 435 338 407 365 q 486 276 463 310 q 526 209 510 243 q 543 150 543 175 m 447 511 q 413 507 429 513 q 396 501 396 501 l 303 469 q 280 486 292 475 q 256 510 268 497 q 233 534 244 522 q 213 554 222 546 q 203 583 208 567 q 199 613 199 599 q 199 615 199 614 q 200 617 200 617 l 201 618 q 204 620 203 619 q 207 624 206 621 q 226 649 218 635 q 244 674 235 663 q 264 694 253 686 q 292 703 275 703 q 324 699 308 704 q 355 685 340 693 q 383 667 369 676 q 413 650 397 657 q 440 624 432 640 q 450 588 449 607 q 449 549 451 569 q 447 511 447 529 m 131 529 q 182 485 149 511 q 247 438 215 458 q 219 414 242 433 q 172 359 197 394 q 126 273 147 324 q 104 157 106 222 l 143 63 q 180 35 167 46 q 205 17 193 25 q 232 1 217 8 q 276 -19 247 -7 l 511 -11 l 604 56 q 624 89 615 72 q 639 125 632 106 l 632 290 l 529 451 q 543 507 543 490 q 547 537 543 519 q 556 572 551 554 q 562 607 560 590 q 560 633 564 624 q 535 683 549 661 q 489 721 522 704 q 448 740 474 729 q 403 763 422 751 q 325 789 361 786 q 258 780 289 792 q 198 744 226 768 q 143 693 169 721 q 115 665 128 678 q 103 625 103 651 q 109 581 103 603 q 122 538 115 558 q 123 535 122 538 q 131 529 124 532 z "},"9":{"ha":808,"x_min":31,"x_max":803,"o":"m 803 267 l 796 279 q 773 281 788 278 q 756 282 758 283 l 628 249 q 601 257 615 251 q 581 274 588 263 l 538 474 l 426 594 q 351 619 388 613 l 238 600 l 67 440 q 50 395 56 411 q 42 365 44 379 q 37 333 39 350 q 31 288 35 317 l 69 194 q 156 133 119 147 q 226 117 193 118 q 293 115 260 115 q 371 97 328 115 q 383 78 378 90 q 385 56 388 65 l 346 -204 l 414 -211 l 553 131 q 574 159 564 144 q 597 185 585 174 q 695 211 643 199 q 790 243 747 224 l 800 254 l 803 267 m 174 -143 l 172 -142 l 171 -140 l 167 -136 l 167 -135 l 165 -135 l 164 -133 l 163 -132 l 164 -133 l 165 -135 l 167 -135 l 167 -136 l 171 -140 l 172 -142 l 174 -143 m 426 321 q 421 267 426 297 q 418 217 415 236 q 396 196 407 206 q 374 178 385 186 q 351 174 363 176 q 329 172 340 172 q 288 184 308 172 q 251 214 268 196 q 221 252 235 232 q 197 288 207 272 l 174 399 q 185 436 178 415 q 203 476 193 457 q 228 510 214 494 q 260 535 243 526 q 286 540 271 538 q 313 542 301 542 q 372 517 350 542 q 406 457 394 492 q 422 385 418 422 q 426 321 426 347 z "}," ":{"ha":433,"x_min":0,"x_max":0,"o":""},"!":{"ha":763,"x_min":25,"x_max":718,"o":"m 718 554 q 713 576 714 565 q 708 597 711 586 q 685 621 707 601 q 629 667 663 640 q 556 726 596 694 q 480 785 515 757 q 417 835 444 814 q 382 863 390 856 q 353 862 368 864 q 328 851 339 860 q 177 669 251 760 q 25 488 103 579 q 33 460 25 472 q 43 433 40 447 q 71 411 54 421 q 140 451 111 419 q 192 517 169 483 q 235 578 215 551 q 281 606 256 606 q 297 603 292 606 q 313 579 307 594 l 322 138 q 340 122 333 129 q 358 120 350 121 q 376 119 367 119 l 386 119 l 396 124 q 407 135 403 129 q 418 146 411 140 q 420 202 418 161 q 424 295 422 243 q 429 405 426 347 q 435 512 432 463 q 442 595 439 561 q 450 633 446 629 l 456 639 l 464 640 q 485 639 475 640 q 504 638 494 638 q 548 604 522 626 q 599 559 574 582 q 646 519 624 536 q 679 503 668 503 l 690 503 l 701 511 q 718 554 715 528 m 314 35 q 329 -3 314 13 q 367 -18 344 -18 q 403 -3 388 -18 q 418 35 418 13 q 403 72 418 57 q 367 88 388 88 q 329 72 344 88 q 314 35 314 57 z "},"\"":{"ha":372,"x_min":110,"x_max":400,"o":"m 113 699 q 120 685 114 689 q 134 682 126 681 q 147 689 142 683 q 151 704 153 694 q 158 746 149 721 q 178 798 167 771 q 200 852 189 825 q 215 900 211 879 q 211 915 217 910 q 199 922 206 921 q 185 919 192 924 q 176 906 178 915 q 160 856 172 882 q 138 804 149 831 q 118 751 126 778 q 113 699 110 724 m 296 699 q 303 685 297 689 q 317 682 310 681 q 331 689 325 683 q 335 704 336 694 q 341 746 332 721 q 361 798 350 771 q 383 852 372 825 q 399 900 394 879 q 394 915 400 910 q 382 922 389 921 q 368 919 375 924 q 360 906 361 915 q 344 856 356 882 q 321 804 332 831 q 301 751 310 778 q 296 699 293 724 z "},"#":{"ha":1229,"x_min":38,"x_max":1189,"o":"m 1189 367 q 1167 488 1189 428 q 1107 594 1146 547 q 1014 669 1068 640 q 893 699 960 699 q 891 690 890 696 q 889 679 892 683 q 1043 562 999 643 q 1088 371 1088 481 q 1083 306 1088 346 q 1069 227 1079 267 q 1040 157 1058 188 q 992 122 1021 126 q 828 50 926 50 q 786 58 807 50 q 743 67 765 65 q 710 94 725 79 q 678 119 696 108 q 663 158 671 131 q 647 215 654 185 q 633 272 639 244 q 628 313 628 300 q 629 362 628 328 q 629 438 631 396 q 623 524 628 479 q 607 607 618 569 q 576 668 596 644 q 524 692 556 692 q 451 680 488 692 q 380 649 414 668 q 315 607 346 631 q 257 561 283 583 l 253 1050 l 240 1050 l 225 1050 l 229 1050 q 163 1029 183 1047 q 137 983 143 1011 q 133 920 131 956 q 136 850 136 885 l 136 460 l 136 146 q 133 101 136 122 q 122 62 131 79 q 97 34 114 44 q 50 25 79 24 l 42 25 l 38 19 l 38 11 l 349 7 l 353 14 l 353 21 q 305 31 329 26 q 265 60 281 36 q 256 176 258 118 q 253 293 253 235 q 261 521 253 408 q 341 586 301 560 q 439 613 381 613 q 502 528 483 576 q 526 427 521 481 q 530 318 531 374 q 536 210 529 263 q 564 112 543 157 q 635 33 585 67 q 717 -3 671 10 q 806 -15 763 -15 q 965 11 894 -15 q 1086 87 1036 38 q 1163 207 1136 136 q 1189 367 1189 278 z "},"$":{"ha":610,"x_min":15,"x_max":571,"o":"m 269 1 q 356 7 314 4 q 442 13 399 10 q 487 35 464 22 q 528 66 510 49 q 559 105 547 83 q 571 154 571 126 q 553 219 571 193 q 508 264 536 246 q 443 294 479 282 q 372 316 407 306 q 303 338 336 326 q 249 368 271 350 q 235 390 240 374 q 228 426 231 407 q 224 464 225 446 q 224 492 224 482 q 233 525 224 510 q 255 552 242 540 q 284 572 268 564 q 315 586 300 581 q 374 567 354 579 q 401 541 393 556 q 410 510 410 526 q 415 478 411 494 q 428 449 418 463 q 463 425 438 435 q 512 444 488 428 q 536 492 536 461 q 518 551 536 525 q 472 595 500 576 q 410 626 444 614 q 340 644 375 638 l 343 765 q 337 780 343 775 q 324 785 331 785 q 310 780 317 785 q 304 765 304 775 l 301 650 q 285 651 293 651 q 268 651 276 651 q 131 615 185 651 q 47 499 78 578 l 47 468 l 47 435 q 72 394 56 413 q 104 361 88 376 l 336 274 q 356 249 349 264 q 375 224 363 235 q 383 188 382 207 q 385 151 385 169 q 354 76 385 104 q 279 42 324 47 q 217 72 249 49 l 164 175 q 130 199 150 190 q 90 210 110 207 q 42 186 58 201 q 15 139 25 171 q 40 84 18 110 q 91 40 61 58 q 153 10 121 21 q 210 0 185 0 l 231 0 l 231 -89 q 237 -103 231 -99 q 250 -108 243 -108 q 263 -103 257 -108 q 269 -89 269 -99 l 269 0 l 269 1 z "},"%":{"ha":857,"x_min":26,"x_max":819,"o":"m 732 813 q 740 826 740 818 q 735 840 740 835 q 723 847 731 846 q 707 843 715 849 q 623 763 665 807 q 541 670 581 718 q 467 573 501 622 q 404 476 432 524 q 372 417 385 443 q 339 357 360 390 q 292 282 314 314 q 246 211 269 250 q 195 124 218 169 q 140 40 172 79 q 137 24 135 32 q 144 13 139 17 q 157 8 150 8 q 171 15 165 8 q 226 101 203 56 q 278 192 250 147 q 324 262 301 229 q 372 338 347 294 q 406 397 393 371 q 438 457 418 424 q 498 551 464 503 q 571 645 532 599 q 651 735 610 692 q 732 813 692 778 m 633 313 q 678 276 653 303 q 726 219 704 250 q 764 156 749 188 q 779 104 779 125 q 768 57 779 75 q 729 24 757 39 l 724 22 l 719 22 q 682 24 697 22 q 653 28 667 25 q 625 38 639 32 q 593 56 611 44 l 536 143 q 528 183 532 163 q 524 225 524 204 q 526 257 524 244 q 533 279 528 269 q 548 297 539 289 q 572 318 557 306 q 594 320 581 319 q 615 321 607 321 q 624 317 619 318 q 633 313 628 315 m 651 349 q 644 351 649 350 q 638 354 640 351 q 599 360 622 361 q 560 357 576 360 q 524 338 539 353 q 501 303 510 324 q 488 263 492 283 q 483 225 483 242 q 488 176 483 201 q 497 133 493 147 q 507 108 500 119 q 526 80 514 96 q 563 29 539 64 q 592 5 572 14 q 635 -10 613 -4 q 681 -17 658 -15 q 719 -18 704 -18 q 740 -15 726 -18 l 746 -12 q 801 35 782 7 q 819 104 819 63 q 802 169 819 132 q 758 242 785 207 q 703 307 732 278 q 651 349 674 336 m 175 815 q 220 780 194 806 q 268 723 246 754 q 306 660 290 692 q 321 608 321 629 q 310 560 321 579 q 272 528 299 542 l 265 526 q 263 525 265 525 q 225 526 240 525 q 196 531 210 528 q 168 541 182 535 q 136 558 154 547 l 78 646 q 70 687 74 667 q 67 729 67 707 q 69 760 67 747 q 76 782 71 772 q 90 801 81 792 q 115 822 100 810 q 136 824 124 824 q 157 824 149 824 q 175 815 164 821 m 194 851 q 187 855 190 854 q 181 858 183 856 q 142 865 164 865 q 103 861 119 864 q 67 842 82 857 q 44 808 53 828 q 31 767 35 788 q 26 729 26 746 q 31 679 26 704 q 39 636 35 650 q 50 611 43 622 q 69 583 57 600 q 106 532 82 567 q 135 508 115 517 q 178 493 156 499 q 224 486 201 488 q 263 485 247 485 q 273 486 268 485 q 282 489 278 488 l 288 490 q 361 608 361 526 q 344 674 361 636 q 301 747 326 711 q 246 810 275 782 q 194 851 217 839 z "},"&":{"ha":946,"x_min":18,"x_max":922,"o":"m 782 265 q 789 272 792 268 l 864 272 l 872 279 l 879 290 l 881 304 q 878 319 881 311 l 868 333 l 850 344 l 250 308 q 210 324 224 315 q 181 358 196 333 l 169 468 q 227 558 186 525 q 329 590 268 590 l 415 540 q 440 503 429 519 q 469 471 450 486 l 546 460 q 565 472 557 463 q 579 492 574 481 q 545 560 571 531 q 485 610 519 590 q 410 640 450 629 q 335 650 369 650 q 194 620 254 650 q 96 540 135 590 q 38 424 57 490 q 18 283 18 357 q 26 228 18 253 q 48 180 35 203 q 78 134 61 157 q 113 85 96 111 q 147 58 129 72 q 183 32 164 44 q 221 11 201 19 q 264 4 240 3 l 458 15 l 568 81 q 591 117 579 93 q 601 158 603 142 l 601 169 l 596 178 q 567 196 585 192 q 531 200 549 200 q 522 199 526 200 q 513 196 517 197 q 490 174 499 188 q 469 149 481 161 q 457 115 465 131 q 438 85 449 100 q 401 60 422 71 l 271 49 q 226 73 243 57 q 197 111 208 89 q 180 158 186 133 q 169 208 174 183 q 186 247 176 232 q 221 275 196 263 l 656 274 q 642 233 642 257 q 642 159 642 199 q 652 85 643 119 q 683 29 661 51 q 749 7 706 7 q 781 10 758 7 q 828 16 804 13 q 875 24 853 19 q 908 32 897 28 q 919 42 917 35 q 919 56 922 50 q 910 67 917 63 q 894 68 904 71 q 872 62 886 65 q 840 55 857 58 q 808 49 824 51 q 785 46 793 46 q 742 63 756 46 q 726 106 729 79 q 724 167 722 133 q 726 233 726 200 q 733 249 726 243 q 747 258 739 254 q 765 263 756 261 q 782 265 775 264 z "},"'":{"ha":108,"x_min":15,"x_max":118,"o":"m 22 750 q 16 735 15 743 q 22 722 17 728 q 35 716 28 717 q 50 722 43 715 q 77 761 67 739 q 95 808 88 783 q 108 858 103 833 q 117 904 113 883 q 113 919 118 914 q 101 927 108 925 q 87 926 94 929 q 78 913 79 922 q 70 873 74 896 q 60 827 67 850 q 45 783 54 804 q 22 750 36 763 z "},"(":{"ha":254,"x_min":-36,"x_max":274,"o":"m 217 889 q 231 895 226 889 q 236 908 236 901 q 231 922 236 915 q 217 928 226 928 l 142 928 q 135 926 140 928 q 129 924 131 925 q 49 836 81 885 q -2 732 17 788 q -28 616 -21 676 q -36 494 -36 556 q -31 434 -36 461 q -19 382 -26 407 q 14 235 0 307 q 53 97 28 163 q 121 -24 78 32 q 243 -122 164 -81 q 259 -124 251 -126 q 270 -115 267 -121 q 272 -101 274 -108 q 263 -89 271 -93 q 171 -22 208 -60 q 109 64 133 17 q 69 167 85 111 q 43 288 54 222 q 18 390 33 340 q 3 494 3 440 q 34 716 3 613 q 149 889 65 819 l 217 889 z "},")":{"ha":371,"x_min":-18,"x_max":283,"o":"m 29 936 q 15 932 19 938 q 9 919 10 926 q 13 905 8 911 q 26 897 17 899 q 60 892 47 894 q 93 883 74 889 q 171 844 144 868 q 208 788 197 819 q 222 717 219 756 q 226 635 224 678 q 238 497 231 560 q 244 361 244 435 q 242 333 244 346 q 238 308 240 321 q 203 200 224 258 q 153 88 182 142 q 85 -10 124 33 q -6 -76 46 -54 q -16 -88 -14 -81 q -15 -102 -18 -96 q -5 -112 -12 -108 q 11 -112 3 -117 q 106 -47 67 -87 q 172 42 144 -7 q 203 104 185 63 q 240 193 222 146 q 270 286 257 240 q 283 361 283 332 q 276 499 283 435 q 265 638 269 563 q 259 726 263 679 q 240 813 256 774 q 205 865 228 843 q 153 902 182 888 q 92 925 124 917 q 29 936 60 933 z "},"*":{"ha":660,"x_min":39,"x_max":563,"o":"m 535 833 q 547 844 544 836 q 548 858 550 851 q 539 868 546 864 q 524 869 532 872 q 422 829 465 850 q 326 790 378 808 q 351 856 339 824 q 375 917 364 888 q 375 933 379 926 q 364 942 371 939 q 349 942 357 944 q 339 931 342 939 q 315 869 328 901 q 290 804 303 838 l 278 811 q 203 851 238 833 q 135 901 168 869 q 120 907 128 908 q 107 901 113 906 q 101 888 101 896 q 107 874 100 881 q 180 820 143 839 q 258 778 217 801 l 268 772 q 159 751 214 760 q 53 722 104 743 q 41 711 43 718 q 42 697 39 704 q 51 686 44 690 q 67 686 58 682 q 164 713 114 706 q 264 732 214 721 q 219 590 236 660 q 222 575 217 581 q 234 567 226 569 q 249 569 242 565 q 258 582 256 572 q 281 662 268 621 q 308 743 293 703 l 315 746 q 427 672 372 711 q 531 596 482 633 q 547 591 539 589 q 558 599 554 593 q 563 613 563 606 q 556 626 563 621 q 463 695 513 660 q 363 763 414 731 q 445 798 406 779 q 535 833 485 817 z "},"+":{"ha":706,"x_min":115,"x_max":653,"o":"m 135 419 q 120 413 125 419 q 115 400 115 407 q 120 387 115 393 q 135 381 125 381 l 342 381 l 338 106 q 344 91 338 96 q 357 86 350 86 q 370 91 364 86 q 376 106 376 96 l 381 381 l 633 381 q 648 387 643 381 q 653 400 653 393 q 648 413 653 407 q 633 419 643 419 l 381 419 l 383 629 q 377 644 383 639 q 364 649 371 649 q 351 644 357 649 q 344 629 344 639 l 342 419 l 135 419 z "},",":{"ha":267,"x_min":31,"x_max":192,"o":"m 35 -112 q 35 -128 31 -121 q 46 -137 39 -135 q 60 -138 53 -140 q 71 -126 67 -136 q 86 -103 76 -112 q 107 -83 96 -94 q 144 -31 126 -64 q 174 41 163 3 q 189 116 186 79 q 182 181 192 153 q 171 192 178 189 q 157 192 164 194 q 146 182 150 189 q 146 167 142 175 q 151 121 153 149 q 141 64 149 93 q 121 7 133 35 q 94 -39 108 -21 q 63 -73 79 -60 q 35 -112 46 -86 z "},"-":{"ha":547,"x_min":4,"x_max":504,"o":"m 504 361 q 493 378 500 371 l 57 385 q 25 372 39 381 q 9 343 14 361 q 4 310 4 325 q 17 281 8 293 q 40 265 28 271 q 67 257 51 258 q 94 268 81 258 l 131 333 q 146 341 135 338 q 170 347 157 344 q 195 349 183 349 q 214 350 207 350 l 265 350 q 331 347 297 350 q 397 339 365 343 l 399 339 q 402 324 399 335 q 412 302 406 314 q 426 281 418 290 q 443 268 435 271 q 469 274 457 271 q 493 285 482 278 q 503 322 503 300 q 504 361 504 343 z "},".":{"ha":242,"x_min":24,"x_max":157,"o":"m 156 83 q 138 129 157 113 q 94 153 118 146 q 47 134 64 154 q 24 90 31 114 q 31 63 24 75 q 44 38 38 50 q 65 24 53 29 q 90 18 78 19 q 115 29 104 25 q 133 40 125 33 q 146 56 140 46 q 156 83 151 65 z "},"/":{"ha":282,"x_min":-37,"x_max":303,"o":"m 301 899 q 297 914 303 908 q 285 921 292 919 q 271 918 278 922 q 263 904 264 914 q 225 757 247 839 q 178 585 203 675 q 125 403 153 496 q 69 222 97 310 q 15 58 42 135 q -33 -76 -11 -18 q -33 -92 -37 -85 q -22 -101 -29 -99 q -8 -102 -15 -104 q 3 -90 -1 -100 q 47 33 19 -49 q 106 215 74 114 q 172 424 139 315 q 233 629 206 533 q 280 798 261 725 q 301 899 299 871 z "},":":{"ha":288,"x_min":150,"x_max":193,"o":"m 189 468 q 183 483 189 478 q 169 488 176 488 q 156 483 163 488 q 150 468 150 478 l 150 463 q 156 448 150 453 q 169 443 163 443 q 183 448 176 443 q 189 463 189 453 l 189 468 m 154 53 q 174 33 154 33 q 193 53 193 33 q 174 72 193 72 q 154 53 154 72 z "},";":{"ha":307,"x_min":79,"x_max":222,"o":"m 164 439 q 183 419 164 419 q 203 439 203 419 q 183 458 203 458 q 164 439 164 458 m 222 131 q 216 145 222 140 q 203 150 210 150 q 190 145 196 150 q 183 131 183 140 q 178 52 183 93 q 161 -26 172 11 q 132 -94 150 -64 q 89 -140 114 -124 q 80 -153 81 -146 q 83 -167 79 -161 q 95 -176 88 -174 q 111 -174 103 -179 q 163 -116 142 -153 q 198 -37 185 -79 q 217 49 211 6 q 222 131 222 93 z "},"<":{"ha":490,"x_min":24,"x_max":458,"o":"m 393 603 q 403 615 401 607 q 400 628 404 622 q 389 638 396 635 q 374 636 382 640 q 337 611 368 633 q 263 557 306 589 q 173 488 219 525 q 92 415 126 450 q 40 353 57 381 q 40 314 24 325 q 133 249 86 283 q 229 183 181 215 q 328 124 278 151 q 432 79 378 97 q 447 81 440 76 q 456 91 454 85 q 456 105 458 97 q 443 115 453 113 q 348 157 394 132 q 256 213 301 182 q 166 274 210 243 q 81 335 122 306 q 228 484 147 414 q 393 603 310 554 z "},"=":{"ha":788,"x_min":96,"x_max":776,"o":"m 115 536 q 101 530 106 536 q 96 517 96 524 q 101 503 96 510 q 115 497 106 497 l 740 497 q 755 503 750 497 q 760 517 760 510 q 755 530 760 524 q 740 536 750 536 l 115 536 m 126 390 q 112 384 117 390 q 107 371 107 378 q 112 358 107 364 q 126 351 117 351 l 757 351 q 772 358 767 351 q 776 371 776 364 q 772 384 776 378 q 757 390 767 390 l 126 390 z "},">":{"ha":483,"x_min":19,"x_max":481,"o":"m 51 601 q 35 604 43 607 q 24 595 28 601 q 20 581 19 589 q 29 568 21 574 q 224 444 121 507 q 424 321 328 381 q 412 313 417 317 q 400 304 407 308 q 219 175 307 242 q 36 47 131 108 q 27 34 28 42 q 31 20 26 26 q 42 11 35 14 q 58 14 50 8 q 215 122 142 68 q 372 239 288 176 q 400 256 379 243 q 441 285 421 269 q 471 316 461 300 q 464 342 481 332 q 257 471 367 404 q 51 601 147 538 z "},"?":{"ha":442,"x_min":117,"x_max":413,"o":"m 199 744 q 299 732 263 746 q 352 694 336 718 q 367 638 368 669 q 353 574 365 607 q 321 508 342 540 q 279 451 300 476 q 233 394 250 417 q 205 351 217 372 q 183 306 193 331 q 156 242 172 281 q 156 226 151 233 q 167 217 160 219 q 181 216 174 214 q 192 228 188 218 q 208 271 200 249 q 224 315 215 293 q 244 358 232 338 q 274 394 256 378 q 345 476 314 432 q 394 563 376 519 q 412 646 411 606 q 390 717 413 686 q 322 765 368 747 q 199 783 275 783 q 165 781 179 783 q 131 771 150 779 q 119 760 121 767 q 119 746 117 753 q 129 735 122 739 q 144 735 136 731 q 170 743 160 742 q 199 744 181 744 m 160 71 q 151 85 158 81 q 137 88 144 89 q 124 81 129 86 q 121 65 119 75 q 124 51 124 57 q 122 36 125 44 q 124 20 119 26 q 135 12 128 14 q 149 13 142 10 q 158 25 156 15 q 163 49 163 39 q 160 71 163 58 z "},"@":{"ha":775,"x_min":60,"x_max":719,"o":"m 486 151 q 464 129 479 136 l 421 129 q 405 131 413 129 q 390 138 397 132 l 385 144 l 389 301 q 393 313 389 307 q 400 321 397 318 l 411 324 l 418 321 q 435 292 424 317 q 457 240 446 268 q 477 186 468 213 q 486 151 486 160 m 615 140 l 614 149 q 609 160 613 150 q 601 183 606 171 q 591 207 596 196 q 585 222 586 218 l 467 503 q 459 513 464 507 q 450 521 454 518 l 278 528 q 264 521 272 526 l 261 514 l 265 506 q 301 500 290 501 q 320 497 313 499 q 336 490 328 494 q 361 476 344 485 q 374 456 369 467 q 389 435 379 444 q 394 416 392 428 q 397 397 397 404 q 387 362 397 375 q 362 339 376 349 q 331 321 347 329 q 300 299 314 313 l 271 -22 l 265 -31 q 258 -61 264 -43 l 260 -68 l 265 -74 q 288 -76 279 -76 q 301 -76 293 -76 q 315 -74 308 -75 q 331 -58 325 -67 q 344 -42 336 -50 q 359 26 354 -10 q 381 90 364 63 l 386 93 l 572 100 q 586 94 579 97 q 603 92 593 92 q 631 100 619 92 q 651 121 643 108 q 663 147 658 133 q 674 174 668 161 q 706 258 692 217 q 719 353 719 300 q 696 493 719 426 q 628 610 672 560 q 524 690 585 660 q 386 719 463 719 q 226 694 289 719 q 128 618 164 668 q 78 495 92 568 q 64 326 64 422 q 62 270 64 300 q 67 214 60 240 q 74 167 71 190 q 79 121 78 144 q 85 6 82 68 q 108 -110 89 -57 q 167 -198 126 -162 q 288 -233 208 -233 q 326 -231 310 -233 q 364 -224 343 -228 q 409 -218 385 -219 q 458 -213 433 -217 q 503 -201 482 -210 q 539 -174 525 -193 q 542 -159 544 -167 q 535 -147 540 -151 q 521 -143 529 -143 q 508 -151 514 -143 q 480 -168 500 -162 q 437 -176 460 -174 q 392 -181 414 -179 q 356 -186 369 -183 q 322 -192 338 -189 q 288 -194 307 -194 q 207 -176 238 -194 q 159 -126 176 -157 q 135 -57 142 -96 q 124 24 128 -18 q 119 105 121 65 q 110 175 117 144 q 101 250 100 214 q 103 326 103 286 q 114 480 103 414 q 156 591 125 546 q 242 658 188 636 q 386 681 297 681 q 507 655 453 681 q 599 584 561 629 q 659 479 638 539 q 681 353 681 419 q 669 269 681 307 q 638 190 657 232 q 629 167 635 183 q 615 140 624 151 z "},"A":{"ha":607,"x_min":18,"x_max":567,"o":"m 567 42 l 558 82 q 550 100 556 85 q 538 134 544 115 q 524 170 531 153 q 514 194 517 188 l 335 618 q 324 633 332 625 q 310 644 315 642 l 47 656 q 37 651 42 653 q 26 644 32 649 l 22 636 l 29 622 q 84 615 67 617 q 113 608 101 613 q 137 598 125 604 q 175 578 149 592 q 195 547 188 564 q 215 514 203 529 q 224 486 219 503 q 229 458 229 469 q 214 405 229 425 q 176 370 199 385 q 128 343 153 356 q 82 310 103 331 l 38 -176 l 29 -189 q 24 -213 26 -201 q 18 -236 22 -225 l 19 -247 l 29 -256 q 46 -258 36 -257 q 63 -260 56 -260 q 84 -258 72 -260 q 106 -254 96 -257 q 129 -231 121 -243 q 149 -207 138 -219 q 160 -157 156 -183 q 171 -104 165 -131 q 185 -53 176 -78 q 206 -7 193 -28 l 213 -1 l 532 8 q 552 21 544 15 q 567 42 560 26 m 365 86 q 352 66 358 72 q 331 53 346 60 l 264 53 q 241 55 253 53 q 219 64 229 57 l 211 75 l 215 313 q 223 329 217 321 q 235 343 229 338 l 250 346 l 261 343 q 287 299 269 335 q 321 219 304 263 q 351 138 338 176 q 365 86 364 99 z "},"B":{"ha":647,"x_min":31,"x_max":610,"o":"m 610 222 q 585 274 610 244 q 526 334 560 304 q 460 389 493 364 q 410 426 426 414 l 556 551 l 550 594 q 451 635 497 617 q 357 665 404 653 q 260 685 310 678 q 149 692 210 692 q 124 686 142 692 q 88 674 107 681 q 55 658 69 667 q 39 643 40 649 l 46 628 q 66 619 54 625 q 88 604 78 613 q 106 585 99 596 q 113 565 113 575 l 117 117 q 106 92 117 104 q 82 69 96 81 q 53 47 68 57 q 31 31 39 38 q 52 15 38 18 q 79 13 67 13 l 483 13 q 547 35 522 13 q 585 89 571 57 q 604 158 599 121 q 610 222 610 194 m 431 568 q 403 528 422 546 q 360 495 383 511 q 315 463 338 479 q 276 429 292 447 q 272 521 274 479 q 264 611 269 563 q 303 606 281 610 q 349 597 325 603 q 394 583 372 590 q 431 568 415 576 m 410 426 l 408 426 l 410 428 l 410 426 m 446 201 q 445 187 446 197 q 442 165 444 176 q 438 145 440 154 q 435 132 436 136 q 407 99 425 117 q 371 81 389 81 q 324 84 353 81 q 283 101 294 88 l 279 308 q 292 317 286 313 q 306 326 299 322 q 356 314 331 324 q 401 288 381 304 q 433 250 421 272 q 446 201 446 228 z "},"C":{"ha":626,"x_min":19,"x_max":606,"o":"m 604 158 l 604 169 l 599 178 q 568 196 586 192 q 533 200 550 200 q 524 199 529 200 q 514 196 518 197 q 491 174 500 188 q 472 149 482 161 q 440 85 463 117 q 403 60 421 69 l 274 49 q 228 73 246 57 q 200 111 211 89 q 183 158 189 133 q 172 208 176 183 q 185 264 179 236 q 190 319 190 292 q 183 394 190 357 q 172 468 176 431 q 229 558 188 525 q 331 590 271 590 l 418 540 q 442 503 432 519 q 472 471 451 486 l 547 460 q 567 472 560 463 q 581 492 575 481 q 548 560 574 531 q 488 610 522 590 q 413 640 453 629 q 338 650 372 650 q 197 620 257 650 q 98 540 138 590 q 39 424 58 490 q 19 283 19 357 q 28 228 19 253 q 50 180 36 203 q 81 134 64 157 q 114 85 97 111 q 149 58 132 72 q 185 32 167 44 q 223 11 203 19 q 267 4 243 3 l 461 15 l 569 81 q 593 117 581 93 q 604 158 606 142 z "},"D":{"ha":786,"x_min":72,"x_max":754,"o":"m 754 296 q 694 516 754 426 q 513 651 635 606 l 313 628 l 257 617 q 242 615 250 615 q 226 615 235 615 q 173 627 203 615 q 125 649 143 639 q 104 661 107 660 l 89 646 l 78 633 q 92 624 78 633 q 126 604 107 615 q 164 584 144 593 q 194 575 183 575 l 135 533 q 88 445 103 493 q 72 344 72 397 q 79 224 72 283 q 94 117 86 164 q 110 40 103 69 q 117 10 117 10 q 154 8 117 10 q 238 3 192 6 q 322 0 283 1 q 363 -1 360 -1 q 446 3 403 -1 q 529 10 489 7 q 620 71 579 44 q 691 127 661 97 q 738 196 721 157 q 754 296 754 235 m 590 326 q 588 258 590 289 q 578 199 585 228 q 560 142 572 171 q 529 79 547 114 q 515 71 525 76 q 494 59 506 65 q 473 49 483 53 q 458 44 463 44 l 386 44 l 326 58 l 271 72 l 253 463 l 301 553 q 314 561 304 556 q 335 573 324 567 q 358 584 347 579 q 371 589 368 589 l 489 576 q 509 563 500 569 q 529 549 518 556 q 575 442 560 496 q 590 326 590 388 z "},"E":{"ha":636,"x_min":18,"x_max":606,"o":"m 606 322 q 603 338 606 329 l 593 351 l 575 363 l 250 308 q 210 324 224 315 q 181 358 196 333 l 169 468 q 227 558 186 525 q 329 590 268 590 l 415 540 q 440 503 429 519 q 469 471 450 486 l 546 460 q 565 472 557 463 q 579 492 574 481 q 545 560 571 531 q 485 610 519 590 q 410 640 450 629 q 335 650 369 650 q 194 620 254 650 q 96 540 135 590 q 38 424 57 490 q 18 283 18 357 q 26 228 18 253 q 48 180 35 203 q 78 134 61 157 q 113 85 96 111 q 147 58 129 72 q 183 32 164 44 q 221 11 201 19 q 264 4 240 3 l 458 15 l 568 81 q 591 117 579 93 q 601 158 603 142 l 601 169 l 596 178 q 567 196 585 192 q 531 200 549 200 q 522 199 526 200 q 513 196 517 197 q 490 174 499 188 q 469 149 481 161 q 457 115 465 131 q 438 85 449 100 q 401 60 422 71 l 271 49 q 226 73 243 57 q 197 111 208 89 q 180 158 186 133 q 169 208 174 183 q 186 247 176 232 q 221 275 196 263 l 589 290 l 599 297 l 604 308 l 606 322 z "},"F":{"ha":579,"x_min":39,"x_max":515,"o":"m 515 569 q 501 607 508 593 q 474 634 486 624 q 449 651 463 644 q 419 659 436 657 q 378 661 403 661 q 328 660 353 661 q 276 661 303 658 q 258 670 268 667 q 240 681 249 674 l 232 693 l 213 872 q 178 901 201 894 q 135 907 154 907 l 72 907 q 49 901 63 907 l 39 889 l 39 871 q 45 840 39 861 q 60 790 51 818 q 75 728 68 761 q 82 664 82 696 q 81 406 82 533 q 79 147 79 278 q 81 59 79 117 q 82 -64 82 1 q 78 -194 82 -131 q 63 -299 74 -257 l 65 -307 l 76 -315 q 100 -301 88 -310 q 113 -276 108 -289 q 126 -251 118 -262 q 133 -212 126 -231 q 147 -177 139 -194 q 163 -142 156 -160 q 175 -107 171 -125 l 256 240 q 265 258 261 249 q 275 276 268 268 q 329 293 300 293 q 377 278 365 293 q 393 244 389 264 q 403 201 397 224 q 433 165 408 179 l 444 164 q 465 172 456 167 q 485 181 474 176 q 495 199 489 188 q 501 218 501 211 q 483 290 501 265 q 435 324 464 314 q 374 334 407 333 q 311 335 340 335 q 292 342 301 339 q 274 353 282 346 l 267 365 l 256 546 q 263 581 263 567 q 267 605 264 596 q 279 617 271 614 q 311 621 288 621 q 320 619 315 621 q 328 617 325 618 q 350 597 340 610 q 368 572 360 585 q 385 534 374 551 q 417 508 396 517 l 494 525 l 504 532 q 510 550 508 540 q 515 569 513 560 z "},"G":{"ha":692,"x_min":15,"x_max":632,"o":"m 632 -108 l 601 213 q 577 233 592 225 q 547 247 563 240 q 486 215 508 247 q 492 164 489 190 q 494 111 494 138 q 493 85 494 97 q 486 60 492 72 l 451 25 l 285 36 q 267 38 272 38 q 257 38 261 38 q 249 42 253 39 q 238 51 246 44 q 217 100 225 68 q 203 172 208 132 q 197 254 199 211 q 195 338 196 297 q 196 412 194 378 q 199 465 197 446 q 235 521 224 501 q 251 549 247 540 q 253 560 254 558 q 253 565 251 563 q 261 575 254 568 q 288 599 268 582 l 379 607 q 462 544 429 583 q 506 450 494 506 q 530 423 514 435 q 563 411 546 411 q 592 422 579 411 q 613 446 606 433 l 625 489 q 617 515 618 501 q 611 542 617 529 q 575 583 601 565 q 517 616 549 601 q 456 640 486 631 q 410 657 426 650 l 294 644 q 262 632 281 633 q 225 626 243 631 l 64 519 q 49 495 57 506 q 31 474 40 485 l 15 174 l 126 25 q 219 -8 175 7 q 317 -22 263 -22 q 395 -13 358 -22 q 471 14 432 -4 q 528 -32 517 14 l 525 -253 l 540 -261 l 553 -258 q 578 -230 568 -244 q 601 -200 588 -215 l 632 -108 z "},"H":{"ha":744,"x_min":33,"x_max":692,"o":"m 692 53 q 666 112 676 74 q 647 197 656 150 q 633 294 639 243 q 625 394 628 346 q 621 483 622 442 q 619 549 619 524 q 563 599 594 579 q 496 638 531 618 l 290 647 l 264 667 q 254 699 257 682 q 251 732 251 715 q 253 767 251 750 q 251 800 254 783 q 242 822 246 811 q 231 842 238 832 l 217 850 l 61 863 l 43 856 l 33 849 l 33 839 q 47 819 38 828 q 66 803 56 811 q 87 785 76 794 q 103 763 97 775 l 126 36 l 138 25 q 190 14 160 14 l 260 14 l 251 535 q 263 556 258 546 q 274 576 267 567 l 288 585 l 375 596 q 410 585 400 586 q 428 581 421 583 q 444 569 435 578 q 478 539 454 561 l 504 75 q 514 53 510 64 q 525 33 518 43 q 557 19 542 22 q 593 15 572 15 q 633 19 613 15 q 672 25 653 22 l 685 35 l 692 53 z "},"I":{"ha":368,"x_min":15,"x_max":306,"o":"m 306 18 q 278 47 299 36 q 249 72 258 57 l 246 615 q 231 637 239 626 q 210 653 224 647 l 19 657 l 15 639 q 30 621 18 629 q 56 605 42 613 q 83 590 69 597 q 101 575 96 583 l 75 25 l 83 13 q 107 3 94 6 q 132 0 119 0 l 303 0 l 306 18 z "},"J":{"ha":725,"x_min":58,"x_max":622,"o":"m 622 97 l 619 567 q 606 597 613 582 q 593 626 600 613 q 560 644 579 639 q 522 650 540 650 l 388 650 q 363 644 376 650 q 350 624 350 639 l 351 615 l 425 586 q 439 571 432 579 q 451 553 446 563 l 463 128 q 456 97 463 110 q 438 75 449 85 q 413 58 426 65 q 388 42 400 50 l 297 31 q 233 84 256 46 q 201 165 210 122 q 181 188 190 176 q 161 210 172 199 q 138 216 150 213 q 113 219 125 219 q 96 217 107 219 q 67 185 76 203 q 58 143 58 168 q 84 71 58 99 q 148 27 110 43 q 229 6 186 11 q 306 0 272 0 l 460 0 q 552 28 514 0 q 622 97 590 56 z "},"K":{"ha":611,"x_min":21,"x_max":656,"o":"m 656 7 q 643 22 651 15 q 624 35 635 29 q 604 48 614 42 q 589 63 594 54 q 497 183 542 121 q 408 304 453 244 q 403 327 406 310 q 400 351 401 344 q 431 408 413 381 q 465 463 449 435 q 494 519 482 490 q 508 582 507 549 q 499 599 504 592 q 489 615 494 607 l 408 643 q 388 636 399 642 q 371 624 378 631 l 417 474 l 378 382 q 357 366 367 374 q 339 347 347 358 q 306 333 326 340 q 271 326 285 325 l 247 328 q 232 340 242 331 q 221 356 222 349 l 186 604 q 136 635 165 628 q 78 643 107 643 q 49 641 63 643 q 21 632 35 639 l 60 567 l 47 -417 l 54 -425 l 61 -428 l 68 -424 q 94 -368 79 -401 q 122 -301 108 -335 q 144 -234 135 -267 q 158 -178 154 -201 q 171 -83 167 -132 q 177 17 175 -33 q 181 117 179 67 q 186 213 183 167 q 203 248 188 233 q 239 269 219 263 q 322 226 289 261 q 381 148 354 190 q 435 66 408 106 q 497 10 461 26 l 656 -1 l 656 7 z "},"L":{"ha":667,"x_min":22,"x_max":660,"o":"m 660 128 q 653 178 660 158 q 622 217 647 199 q 606 219 611 219 q 582 216 594 219 q 558 210 569 213 q 538 188 546 199 q 518 165 529 176 q 487 84 510 122 q 421 31 464 46 l 331 42 q 305 58 318 50 q 281 75 292 65 q 263 97 269 85 q 256 128 256 110 l 267 553 q 280 571 274 563 q 293 586 286 579 l 368 615 l 369 624 q 356 644 369 639 q 331 650 343 650 l 197 650 q 159 644 178 650 q 126 626 140 639 q 113 597 118 613 q 100 567 107 582 l 96 97 q 70 57 90 74 q 28 33 50 40 l 22 19 l 25 11 l 47 0 l 117 0 q 134 7 124 3 q 151 11 144 11 l 186 11 q 204 4 193 8 q 222 0 215 0 l 418 0 q 485 6 444 0 q 565 26 526 11 q 632 65 604 40 q 660 128 660 90 z "},"M":{"ha":904,"x_min":21,"x_max":861,"o":"m 861 -7 l 807 60 l 779 615 q 765 638 772 628 q 743 653 758 649 l 576 657 l 571 649 l 571 640 q 589 608 576 622 q 604 575 601 594 q 580 527 590 550 q 556 487 569 504 q 524 459 543 469 q 475 449 506 449 q 452 450 464 449 q 429 454 440 451 l 308 524 q 293 554 301 536 q 275 590 285 572 q 253 622 265 607 q 228 644 242 636 l 21 644 q 72 618 47 635 q 110 575 97 601 l 135 25 l 146 13 q 173 3 158 6 q 203 0 188 0 l 325 0 l 329 6 l 331 13 q 317 38 328 25 q 296 60 306 51 l 268 374 q 269 387 267 381 q 274 399 271 393 l 288 411 q 305 417 296 414 q 325 422 314 419 q 385 405 356 413 q 446 389 415 397 l 568 442 q 588 442 578 442 q 608 439 597 442 q 621 423 614 432 q 628 406 628 414 l 633 65 q 644 35 640 50 q 657 6 649 19 l 671 -7 l 861 -7 z "},"N":{"ha":872,"x_min":29,"x_max":828,"o":"m 828 13 l 768 60 l 739 608 q 724 630 732 619 q 703 644 717 640 l 539 649 l 521 640 l 513 631 l 515 619 q 542 591 525 601 q 571 564 560 581 l 596 256 q 585 233 588 239 q 581 226 583 226 q 575 226 579 225 q 558 224 571 228 q 483 283 529 246 q 390 363 438 321 q 303 445 343 404 q 247 517 264 486 q 239 581 242 556 q 226 622 236 607 q 194 643 215 638 q 131 649 172 649 q 83 645 107 649 q 35 638 58 642 l 29 625 q 36 603 29 614 q 53 581 43 592 q 71 562 63 571 q 79 544 79 553 l 103 24 l 115 13 q 142 3 128 6 q 171 0 157 0 l 290 0 l 296 6 l 297 13 q 283 38 294 28 q 264 60 271 49 l 244 344 q 245 356 243 350 q 250 369 247 363 l 264 382 q 276 388 272 385 q 290 393 281 390 l 556 151 q 580 114 575 132 q 588 78 585 96 q 598 44 590 61 q 631 13 606 28 l 828 13 z "},"O":{"ha":786,"x_min":33,"x_max":714,"o":"m 714 296 q 655 516 714 426 q 474 651 596 606 l 261 647 l 96 533 q 48 445 63 493 q 33 344 33 397 q 45 238 33 283 q 81 156 57 193 q 142 86 106 118 q 229 21 179 54 q 248 16 233 19 q 278 8 263 13 q 308 1 294 4 q 324 -1 321 -1 q 406 3 364 -1 q 489 10 449 7 q 581 71 539 44 q 651 127 622 97 q 697 196 681 157 q 714 296 714 235 m 551 326 q 549 258 551 289 q 539 199 546 228 q 519 142 532 171 q 489 79 507 114 q 475 71 485 76 q 454 59 465 65 q 433 49 443 53 q 419 44 424 44 q 404 44 415 44 q 381 44 393 44 q 358 44 369 44 q 347 44 349 44 l 269 68 l 214 154 l 214 463 l 261 553 q 274 561 264 556 q 297 573 285 567 q 319 584 308 579 q 332 589 329 589 l 450 576 q 470 563 461 569 q 489 549 479 556 q 551 326 551 444 m 422 313 l 422 360 q 411 381 417 372 q 394 399 406 390 q 388 401 392 400 q 379 403 383 403 q 355 399 367 403 q 332 388 343 394 q 317 367 324 376 q 304 344 310 357 l 328 257 l 340 249 l 360 246 q 378 256 368 249 q 399 273 389 264 q 415 292 408 282 q 422 313 422 303 z "},"P":{"ha":708,"x_min":18,"x_max":664,"o":"m 664 479 q 638 568 664 535 q 570 620 611 601 q 482 645 529 639 q 393 651 435 651 q 283 645 338 651 q 172 639 228 639 q 122 645 147 639 q 71 651 97 651 q 22 639 44 651 l 18 629 l 25 615 q 44 606 33 613 q 66 592 56 600 q 84 573 76 583 q 92 553 92 563 l 96 82 q 116 31 96 49 q 165 6 136 14 q 224 -4 193 -3 q 279 -6 256 -6 q 300 -5 286 -6 q 328 -1 314 -4 q 353 8 343 1 q 364 26 364 15 l 364 33 q 333 44 347 40 q 308 55 319 49 q 285 71 296 61 q 264 97 274 81 l 258 282 q 367 263 313 263 q 462 277 410 263 q 559 319 514 292 q 634 388 604 347 q 664 479 664 428 m 546 403 q 531 350 546 371 q 494 318 517 329 q 442 303 471 307 q 388 299 414 299 q 323 311 356 299 q 258 331 290 324 q 253 401 257 371 q 250 472 250 432 q 290 588 250 557 q 417 619 329 619 q 459 592 436 619 q 501 529 482 565 q 533 457 521 493 q 546 403 546 421 z "},"Q":{"ha":804,"x_min":18,"x_max":863,"o":"m 863 -178 q 819 -144 853 -171 q 739 -81 785 -118 q 642 0 693 -43 q 547 83 590 43 q 476 154 504 122 q 449 200 449 186 q 490 267 465 243 q 536 315 514 290 q 575 376 558 340 q 593 482 592 413 l 554 575 q 517 602 531 592 q 492 621 504 613 q 465 637 481 629 q 421 657 450 644 l 186 649 l 93 583 q 74 549 82 565 q 58 513 65 532 l 65 347 l 175 175 l 175 164 q 170 144 176 156 q 160 125 164 132 l 46 58 q 34 44 43 56 q 18 28 25 33 l 22 14 l 33 7 l 49 6 q 139 50 93 22 q 226 101 185 78 q 261 99 244 101 q 296 94 278 97 l 822 -239 l 863 -178 m 450 367 q 447 328 450 343 q 437 302 444 314 q 418 279 429 290 q 390 254 407 268 q 367 251 379 251 q 344 251 356 251 l 331 251 q 322 257 328 256 q 311 261 315 258 q 263 300 290 272 q 211 361 235 328 q 171 428 188 394 q 154 488 154 463 q 169 547 154 524 q 217 588 185 569 q 225 589 221 588 q 233 590 229 590 q 274 589 257 590 q 307 583 292 588 q 338 572 322 579 q 374 551 353 564 l 436 457 q 446 413 442 435 q 450 367 450 390 z "},"R":{"ha":611,"x_min":21,"x_max":656,"o":"m 656 7 q 643 22 651 15 q 624 35 635 29 q 604 48 614 42 q 589 63 594 54 q 497 183 542 121 q 408 304 453 244 q 403 327 406 310 q 400 351 401 344 q 431 408 413 381 q 465 463 449 435 q 494 519 482 490 q 508 582 507 549 q 499 599 504 592 q 489 615 494 607 l 408 643 q 378 639 404 643 q 318 630 353 635 q 247 619 283 625 q 183 607 210 613 q 135 635 164 628 q 78 643 106 643 q 49 641 63 643 q 21 632 35 639 l 60 567 l 47 -417 l 54 -425 l 61 -428 l 68 -424 q 94 -368 79 -401 q 122 -301 108 -335 q 144 -234 135 -267 q 158 -178 154 -201 q 171 -83 167 -132 q 177 17 175 -33 q 181 117 179 67 q 186 213 183 167 q 203 248 188 233 q 239 269 219 263 q 322 226 289 261 q 381 148 354 190 q 435 66 408 106 q 497 10 461 26 l 656 -1 l 656 7 m 397 474 q 392 433 397 456 q 383 397 388 411 q 378 382 379 383 q 357 366 367 374 q 339 347 347 358 q 306 333 326 340 q 271 326 285 325 l 247 328 q 232 340 242 331 q 221 356 222 349 l 188 558 l 357 583 q 367 565 358 581 q 387 522 376 549 q 397 474 397 496 z "},"S":{"ha":614,"x_min":15,"x_max":571,"o":"m 571 154 q 553 219 571 193 q 508 264 536 246 q 443 294 479 282 q 372 316 407 306 q 303 338 336 326 q 249 368 271 350 q 235 390 240 374 q 228 426 231 407 q 224 464 225 446 q 224 492 224 482 q 233 525 224 510 q 255 552 242 540 q 284 572 268 564 q 315 586 300 581 q 374 567 354 579 q 401 541 393 556 q 410 510 410 526 q 415 478 411 494 q 428 449 418 463 q 463 425 438 435 q 512 444 488 428 q 536 492 536 461 q 508 565 536 535 q 438 615 479 596 q 349 642 396 633 q 268 651 303 651 q 131 615 185 651 q 47 499 78 578 l 47 468 l 47 435 q 72 394 56 413 q 104 361 88 376 l 336 274 q 356 249 349 264 q 375 224 363 235 q 383 188 382 207 q 385 151 385 169 q 354 76 385 104 q 279 42 324 47 q 217 72 249 49 l 164 175 q 130 199 150 190 q 90 210 110 207 q 42 186 58 201 q 15 139 25 171 q 40 84 18 110 q 91 40 61 58 q 153 10 121 21 q 210 0 185 0 q 326 5 268 0 q 442 13 383 10 q 487 35 464 22 q 528 66 510 49 q 559 105 547 83 q 571 154 571 126 z "},"T":{"ha":824,"x_min":22,"x_max":801,"o":"m 801 628 l 782 653 l 104 664 q 67 652 82 664 q 42 622 51 640 q 27 583 32 604 q 22 546 22 563 q 32 513 22 528 q 56 488 42 499 q 88 472 71 478 q 119 465 104 467 q 142 472 131 468 q 164 483 153 476 q 186 528 176 507 q 207 567 196 550 q 234 597 218 583 q 275 617 250 610 l 289 615 q 310 602 300 611 q 329 586 319 593 l 357 19 l 364 8 q 384 -1 372 1 q 407 -1 396 -3 l 576 8 l 510 75 l 513 561 q 514 571 513 564 q 517 581 515 578 q 537 603 524 594 q 563 617 550 611 l 579 615 q 599 602 590 611 q 619 586 608 593 q 638 557 626 571 q 653 524 649 543 q 682 499 664 508 q 718 486 700 489 q 749 499 736 488 q 775 519 763 510 q 794 572 790 544 q 801 628 797 600 z "},"U":{"ha":803,"x_min":21,"x_max":785,"o":"m 785 3 l 778 17 q 733 44 750 28 q 700 82 717 60 l 681 592 q 671 614 675 603 q 660 635 667 625 l 646 642 l 442 654 q 425 640 431 647 l 421 628 q 436 604 425 615 q 460 582 447 593 q 483 558 472 571 q 499 531 494 546 l 518 67 q 508 45 513 56 q 497 25 504 35 l 483 17 l 394 6 l 303 60 q 268 129 282 89 l 264 592 q 254 614 258 603 q 243 635 250 625 l 229 642 l 47 654 l 28 642 l 21 633 l 21 619 l 90 531 l 117 160 l 167 67 l 249 6 q 267 1 253 4 q 297 -7 281 -3 q 326 -15 313 -11 q 340 -18 339 -18 l 758 -18 q 769 -12 764 -15 q 781 -6 775 -8 l 785 3 z "},"V":{"ha":778,"x_min":18,"x_max":764,"o":"m 764 657 l 601 657 q 551 578 579 633 q 497 460 524 524 q 446 333 469 396 q 409 233 422 271 q 394 192 396 194 q 385 226 394 192 q 359 311 375 260 q 321 422 343 363 q 274 534 299 482 q 222 621 249 586 q 171 657 196 656 q 140 658 164 657 q 89 659 115 660 q 41 653 63 658 q 18 638 19 649 q 63 603 39 629 q 113 542 88 578 q 161 463 138 506 q 205 381 185 421 q 240 306 225 340 q 263 253 256 272 l 336 93 q 344 67 336 90 q 368 13 353 43 q 403 -33 383 -17 q 449 -36 424 -49 q 500 39 474 -24 l 764 657 z "},"W":{"ha":906,"x_min":31,"x_max":815,"o":"m 815 432 q 815 500 815 465 q 806 565 814 535 q 776 619 797 596 q 717 654 756 643 q 674 639 693 653 q 644 606 656 625 l 644 585 l 644 561 q 688 454 675 511 q 701 339 701 397 q 693 256 701 303 q 666 167 685 208 q 615 99 647 126 q 538 75 583 72 l 514 76 q 499 88 506 81 q 489 103 493 96 l 496 597 q 482 617 489 608 q 461 631 475 626 l 286 635 l 274 625 l 269 617 l 272 608 q 291 590 281 597 q 312 576 301 583 q 332 559 322 568 q 350 538 342 550 l 343 131 q 317 86 342 99 q 268 69 293 74 l 253 72 q 212 112 228 86 q 185 167 196 138 q 168 228 175 197 q 151 285 161 260 l 160 374 q 174 409 165 382 q 190 469 183 436 q 203 532 197 501 q 208 575 208 563 q 190 610 208 594 q 156 632 172 625 q 120 622 136 632 q 89 601 104 613 q 65 557 75 576 q 47 519 54 538 q 35 481 39 501 q 31 435 31 461 q 41 331 31 392 q 72 212 51 271 q 122 105 92 153 q 192 39 151 57 l 282 -3 l 342 -8 l 510 -1 q 555 20 531 13 q 603 39 579 28 q 703 107 663 65 q 768 200 743 149 q 804 310 793 251 q 815 432 815 369 z "},"X":{"ha":843,"x_min":21,"x_max":806,"o":"m 806 14 q 781 40 804 19 q 722 93 757 61 q 647 164 688 125 q 573 244 607 203 q 517 326 539 286 q 494 401 494 367 q 496 428 494 415 q 503 456 497 442 q 610 548 554 514 q 739 608 667 582 l 746 619 l 747 632 l 744 644 q 696 660 721 656 q 646 666 671 665 q 595 666 621 667 q 543 665 569 665 q 523 659 532 665 q 507 646 514 653 q 504 639 506 643 q 503 631 503 635 q 506 601 503 615 q 510 574 510 588 q 506 547 510 558 q 496 519 501 535 q 467 494 488 507 q 432 482 447 481 q 397 498 413 485 q 374 528 382 511 q 371 540 372 533 q 369 551 369 546 q 370 583 369 572 q 369 601 371 593 q 365 619 368 610 q 351 646 361 628 l 108 665 q 82 646 96 654 q 53 629 68 638 l 60 611 q 81 594 68 600 q 107 584 93 589 q 134 574 121 579 q 158 560 147 569 q 208 506 183 538 q 258 439 233 474 q 307 369 283 404 q 351 307 331 335 l 133 74 l 36 31 q 29 19 33 24 q 21 10 25 14 l 28 -1 q 52 -8 39 -7 q 76 -10 65 -10 l 269 -10 q 297 -4 282 -10 q 311 18 313 1 l 310 25 l 265 94 l 306 192 q 327 207 313 197 q 357 226 342 217 q 386 242 372 235 q 407 251 400 250 q 427 219 411 244 q 460 167 443 194 q 490 117 476 140 q 503 89 503 93 l 503 76 q 484 47 499 60 q 463 18 469 35 q 474 6 469 11 q 486 -6 479 0 l 776 -10 q 791 -5 783 -10 q 804 4 799 0 l 806 14 z "},"Y":{"ha":726,"x_min":14,"x_max":651,"o":"m 651 618 q 640 636 646 628 q 622 649 633 644 l 454 653 l 458 638 q 481 609 471 621 q 497 585 490 597 q 506 558 503 572 q 508 521 508 543 q 484 408 508 456 q 419 307 460 360 q 401 299 414 304 q 382 294 389 294 q 360 295 371 294 q 338 301 349 296 q 267 420 286 369 q 242 509 249 471 q 230 577 235 547 q 203 635 225 607 l 190 642 l 51 653 q 38 650 44 653 q 25 644 31 647 q 19 633 22 639 q 14 621 15 628 q 77 510 47 565 q 136 398 107 454 q 195 285 165 342 q 260 174 225 229 l 263 -350 l 269 -358 q 293 -369 278 -367 l 304 -364 q 324 -326 319 -349 q 335 -282 328 -303 q 378 -173 369 -233 q 386 -54 388 -112 l 386 188 l 597 417 q 615 447 608 431 q 635 475 622 463 l 651 618 z "},"Z":{"ha":688,"x_min":14,"x_max":679,"o":"m 679 50 q 678 72 679 61 q 672 94 678 83 q 657 108 665 101 q 639 121 649 115 l 417 132 q 394 119 407 125 q 369 114 381 114 l 344 115 l 324 125 l 586 604 l 588 617 q 582 637 589 626 q 568 653 575 647 l 417 642 l 306 590 l 285 590 l 263 590 q 169 627 217 610 q 71 644 121 644 q 24 638 43 644 l 17 625 q 21 590 14 606 q 61 567 44 576 q 92 550 78 557 q 124 540 107 543 q 165 536 140 536 q 245 547 206 536 q 321 575 285 557 q 340 576 331 576 q 358 571 350 575 l 369 561 q 353 506 371 543 q 308 419 336 468 q 245 318 279 371 q 178 218 211 265 q 120 133 146 171 q 85 79 94 96 l 83 65 q 88 43 83 56 q 96 21 93 31 q 138 1 114 4 q 186 -1 163 -1 q 249 9 225 -1 q 294 33 274 19 q 335 60 314 46 q 388 83 356 75 q 450 67 418 79 q 510 40 482 54 q 563 14 539 25 q 604 3 588 3 q 649 15 632 3 q 679 50 667 26 z "},"a":{"ha":607,"x_min":18,"x_max":567,"o":"m 567 42 l 558 82 q 550 100 556 85 q 538 134 544 115 q 524 170 531 153 q 514 194 517 188 l 335 618 q 324 633 332 625 q 310 644 315 642 l 47 656 q 37 651 42 653 q 26 644 32 649 l 22 636 l 29 622 q 84 615 67 617 q 113 608 101 613 q 137 598 125 604 q 175 578 149 592 q 195 547 188 564 q 215 514 203 529 q 224 486 219 503 q 229 458 229 469 q 214 405 229 425 q 176 370 199 385 q 128 343 153 356 q 82 310 103 331 l 38 -176 l 29 -189 q 24 -213 26 -201 q 18 -236 22 -225 l 19 -247 l 29 -256 q 46 -258 36 -257 q 63 -260 56 -260 q 84 -258 72 -260 q 106 -254 96 -257 q 129 -231 121 -243 q 149 -207 138 -219 q 160 -157 156 -183 q 171 -104 165 -131 q 185 -53 176 -78 q 206 -7 193 -28 l 213 -1 l 532 8 q 552 21 544 15 q 567 42 560 26 m 365 86 q 352 66 358 72 q 331 53 346 60 l 264 53 q 241 55 253 53 q 219 64 229 57 l 211 75 l 215 313 q 223 329 217 321 q 235 343 229 338 l 250 346 l 261 343 q 287 299 269 335 q 321 219 304 263 q 351 138 338 176 q 365 86 364 99 z "},"b":{"ha":647,"x_min":17,"x_max":596,"o":"m 596 210 q 581 248 596 225 q 538 298 565 271 q 473 355 510 325 q 394 415 436 385 l 532 567 l 526 610 l 446 644 q 443 646 444 644 l 440 646 l 419 656 l 418 656 l 360 669 l 358 669 l 261 675 l 257 674 l 133 679 q 78 663 107 668 q 28 639 50 657 l 24 631 l 31 615 q 51 606 39 613 q 73 592 63 600 q 91 573 83 583 q 99 553 99 563 l 101 104 q 92 81 101 93 q 68 58 82 69 q 40 37 54 47 q 17 18 25 26 l 24 10 q 43 1 32 3 q 64 0 54 0 l 468 0 q 493 8 478 0 q 515 21 508 15 q 560 58 544 39 q 583 100 576 78 q 592 149 590 122 q 596 210 593 176 m 399 594 q 383 552 392 576 q 363 504 374 528 q 342 459 353 481 q 318 425 331 438 l 289 444 l 283 567 l 286 608 l 358 607 l 399 594 m 394 415 l 394 414 l 394 415 m 431 189 q 427 153 431 171 q 419 119 424 136 q 403 101 408 108 q 394 88 399 93 q 382 78 390 82 q 356 68 374 74 q 324 72 340 68 q 296 90 307 75 l 292 296 q 306 306 299 301 q 319 314 313 310 q 401 274 371 307 q 431 189 431 242 z "},"c":{"ha":626,"x_min":19,"x_max":606,"o":"m 604 158 l 604 169 l 599 178 q 568 196 586 192 q 533 200 550 200 q 524 199 529 200 q 514 196 518 197 q 491 174 500 188 q 472 149 482 161 q 440 85 463 117 q 403 60 421 69 l 274 49 q 228 73 246 57 q 200 111 211 89 q 183 158 189 133 q 172 208 176 183 q 185 264 179 236 q 190 319 190 292 q 183 394 190 357 q 172 468 176 431 q 229 558 188 525 q 331 590 271 590 l 418 540 q 442 503 432 519 q 472 471 451 486 l 547 460 q 567 472 560 463 q 581 492 575 481 q 548 560 574 531 q 488 610 522 590 q 413 640 453 629 q 338 650 372 650 q 197 620 257 650 q 98 540 138 590 q 39 424 58 490 q 19 283 19 357 q 28 228 19 253 q 50 180 36 203 q 81 134 64 157 q 114 85 97 111 q 149 58 132 72 q 185 32 167 44 q 223 11 203 19 q 267 4 243 3 l 461 15 l 569 81 q 593 117 581 93 q 604 158 606 142 z "},"d":{"ha":783,"x_min":33,"x_max":714,"o":"m 714 296 q 653 517 714 425 q 474 642 592 610 q 408 650 444 650 q 342 646 374 650 q 290 638 311 642 q 269 633 269 633 l 218 617 q 203 615 211 615 q 188 615 194 615 q 149 622 169 615 q 111 638 129 629 q 81 654 93 647 q 65 661 68 661 q 53 657 58 661 q 49 646 49 653 q 42 640 46 643 q 39 633 39 638 q 53 608 39 619 q 87 590 68 597 q 125 579 106 583 q 156 575 144 575 l 96 533 q 48 445 63 493 q 33 344 33 397 q 45 238 33 283 q 81 156 57 193 q 142 86 106 118 q 229 21 179 54 q 248 16 233 19 q 278 8 263 13 q 308 1 294 4 q 324 -1 321 -1 q 406 3 364 -1 q 489 10 449 7 q 581 71 539 44 q 651 127 622 97 q 697 196 681 157 q 714 296 714 235 m 551 326 q 549 258 551 289 q 539 199 546 228 q 519 142 532 171 q 489 79 507 114 q 475 71 485 76 q 454 59 465 65 q 433 49 443 53 q 419 44 424 44 q 404 44 415 44 q 381 44 393 44 q 358 44 369 44 q 347 44 349 44 l 269 68 l 214 154 l 214 463 l 261 553 q 274 561 264 556 q 297 573 285 567 q 319 584 308 579 q 332 589 329 589 l 450 576 q 470 563 461 569 q 489 549 479 556 q 551 326 551 444 z "},"e":{"ha":636,"x_min":18,"x_max":606,"o":"m 606 322 q 603 338 606 329 l 593 351 l 575 363 l 250 308 q 210 324 224 315 q 181 358 196 333 l 169 468 q 227 558 186 525 q 329 590 268 590 l 415 540 q 440 503 429 519 q 469 471 450 486 l 546 460 q 565 472 557 463 q 579 492 574 481 q 545 560 571 531 q 485 610 519 590 q 410 640 450 629 q 335 650 369 650 q 194 620 254 650 q 96 540 135 590 q 38 424 57 490 q 18 283 18 357 q 26 228 18 253 q 48 180 35 203 q 78 134 61 157 q 113 85 96 111 q 147 58 129 72 q 183 32 164 44 q 221 11 201 19 q 264 4 240 3 l 458 15 l 568 81 q 591 117 579 93 q 601 158 603 142 l 601 169 l 596 178 q 567 196 585 192 q 531 200 549 200 q 522 199 526 200 q 513 196 517 197 q 490 174 499 188 q 469 149 481 161 q 457 115 465 131 q 438 85 449 100 q 401 60 422 71 l 271 49 q 226 73 243 57 q 197 111 208 89 q 180 158 186 133 q 169 208 174 183 q 186 247 176 232 q 221 275 196 263 l 589 290 l 599 297 l 604 308 l 606 322 z "},"f":{"ha":579,"x_min":39,"x_max":515,"o":"m 515 569 q 501 607 508 593 q 474 634 486 624 q 449 651 463 644 q 419 659 436 657 q 378 661 403 661 q 328 660 353 661 q 276 661 303 658 q 258 670 268 667 q 240 681 249 674 l 232 693 l 213 872 q 178 901 201 894 q 135 907 154 907 l 72 907 q 49 901 63 907 l 39 889 l 39 871 q 45 840 39 861 q 60 790 51 818 q 75 728 68 761 q 82 664 82 696 q 81 406 82 533 q 79 147 79 278 q 81 59 79 117 q 82 -64 82 1 q 78 -194 82 -131 q 63 -299 74 -257 l 65 -307 l 76 -315 q 100 -301 88 -310 q 113 -276 108 -289 q 126 -251 118 -262 q 133 -212 126 -231 q 147 -177 139 -194 q 163 -142 156 -160 q 175 -107 171 -125 l 256 240 q 265 258 261 249 q 275 276 268 268 q 329 293 300 293 q 377 278 365 293 q 393 244 389 264 q 403 201 397 224 q 433 165 408 179 l 444 164 q 465 172 456 167 q 485 181 474 176 q 495 199 489 188 q 501 218 501 211 q 483 290 501 265 q 435 324 464 314 q 374 334 407 333 q 311 335 340 335 q 292 342 301 339 q 274 353 282 346 l 267 365 l 256 546 q 263 581 263 567 q 267 605 264 596 q 279 617 271 614 q 311 621 288 621 q 320 619 315 621 q 328 617 325 618 q 350 597 340 610 q 368 572 360 585 q 385 534 374 551 q 417 508 396 517 l 494 525 l 504 532 q 510 550 508 540 q 515 569 513 560 z "},"g":{"ha":692,"x_min":15,"x_max":632,"o":"m 632 -108 l 601 213 q 577 233 592 225 q 547 247 563 240 q 486 215 508 247 q 492 164 489 190 q 494 111 494 138 q 493 85 494 97 q 486 60 492 72 l 451 25 l 285 36 q 267 38 272 38 q 257 38 261 38 q 249 42 253 39 q 238 51 246 44 q 217 100 225 68 q 203 172 208 132 q 197 254 199 211 q 195 338 196 297 q 196 412 194 378 q 199 465 197 446 q 235 521 224 501 q 251 549 247 540 q 253 560 254 558 q 253 565 251 563 q 261 575 254 568 q 288 599 268 582 l 379 607 q 462 544 429 583 q 506 450 494 506 q 530 423 514 435 q 563 411 546 411 q 592 422 579 411 q 613 446 606 433 l 625 489 q 617 515 618 501 q 611 542 617 529 q 575 583 601 565 q 517 616 549 601 q 456 640 486 631 q 410 657 426 650 l 294 644 q 262 632 281 633 q 225 626 243 631 l 64 519 q 49 495 57 506 q 31 474 40 485 l 15 174 l 126 25 q 219 -8 175 7 q 317 -22 263 -22 q 395 -13 358 -22 q 471 14 432 -4 q 528 -32 517 14 l 525 -253 l 540 -261 l 553 -258 q 578 -230 568 -244 q 601 -200 588 -215 l 632 -108 z "},"h":{"ha":744,"x_min":33,"x_max":692,"o":"m 692 53 q 666 112 676 74 q 647 197 656 150 q 633 294 639 243 q 625 394 628 346 q 621 483 622 442 q 619 549 619 524 q 563 599 594 579 q 496 638 531 618 l 290 647 l 264 667 q 254 699 257 682 q 251 732 251 715 q 253 767 251 750 q 251 800 254 783 q 242 822 246 811 q 231 842 238 832 l 217 850 l 61 863 l 43 856 l 33 849 l 33 839 q 47 819 38 828 q 66 803 56 811 q 87 785 76 794 q 103 763 97 775 l 126 36 l 138 25 q 190 14 160 14 l 260 14 l 251 535 q 263 556 258 546 q 274 576 267 567 l 288 585 l 375 596 q 410 585 400 586 q 428 581 421 583 q 444 569 435 578 q 478 539 454 561 l 504 75 q 514 53 510 64 q 525 33 518 43 q 557 19 542 22 q 593 15 572 15 q 633 19 613 15 q 672 25 653 22 l 685 35 l 692 53 z "},"i":{"ha":378,"x_min":15,"x_max":306,"o":"m 306 18 q 288 51 299 36 q 265 82 276 65 l 246 615 q 231 637 239 626 q 210 653 224 647 l 19 657 l 15 639 q 30 621 18 629 q 56 605 42 613 q 83 590 69 597 q 101 575 96 583 l 75 25 l 83 13 q 107 3 94 6 q 132 0 119 0 l 303 0 l 306 18 z "},"j":{"ha":725,"x_min":58,"x_max":622,"o":"m 622 97 l 619 567 q 606 597 613 582 q 593 626 600 613 q 560 644 579 639 q 522 650 540 650 l 388 650 q 363 644 376 650 q 350 624 350 639 l 351 615 l 425 586 q 439 571 432 579 q 451 553 446 563 l 463 128 q 456 97 463 110 q 438 75 449 85 q 413 58 426 65 q 388 42 400 50 l 297 31 q 233 84 256 46 q 201 165 210 122 q 181 188 190 176 q 161 210 172 199 q 138 216 150 213 q 113 219 125 219 q 96 217 107 219 q 67 185 76 203 q 58 143 58 168 q 84 71 58 99 q 148 27 110 43 q 229 6 186 11 q 306 0 272 0 l 460 0 q 552 28 514 0 q 622 97 590 56 z "},"k":{"ha":613,"x_min":21,"x_max":656,"o":"m 656 7 q 643 22 651 15 q 624 35 635 29 q 604 48 614 42 q 589 63 594 54 q 497 183 542 121 q 408 304 453 244 q 403 327 406 310 q 400 351 401 344 q 431 408 413 381 q 465 463 449 435 q 494 519 482 490 q 508 582 507 549 q 499 599 504 592 q 489 615 494 607 l 408 643 q 388 636 399 642 q 371 624 378 631 l 417 474 l 378 382 q 357 366 367 374 q 339 347 347 358 q 306 333 326 340 q 271 326 285 325 l 247 328 q 232 340 242 331 q 221 356 222 349 l 186 604 q 136 635 165 628 q 78 643 107 643 q 49 641 63 643 q 21 632 35 639 l 60 567 l 47 -417 l 54 -425 l 61 -428 l 68 -424 q 94 -368 79 -401 q 122 -301 108 -335 q 144 -234 135 -267 q 158 -178 154 -201 q 171 -83 167 -132 q 177 17 175 -33 q 181 117 179 67 q 186 213 183 167 q 203 248 188 233 q 239 269 219 263 q 322 226 289 261 q 381 148 354 190 q 435 66 408 106 q 497 10 461 26 l 656 -1 l 656 7 z "},"l":{"ha":681,"x_min":22,"x_max":660,"o":"m 660 128 q 653 178 660 158 q 622 217 647 199 q 606 219 611 219 q 582 216 594 219 q 558 210 569 213 q 538 188 546 199 q 518 165 529 176 q 487 84 510 122 q 421 31 464 46 l 331 42 q 305 58 318 50 q 281 75 292 65 q 263 97 269 85 q 256 128 256 110 l 267 553 q 280 571 274 563 q 293 586 286 579 l 368 615 l 369 624 q 356 644 369 639 q 331 650 343 650 l 197 650 q 159 644 178 650 q 126 626 140 639 q 113 597 118 613 q 100 567 107 582 l 96 97 q 70 57 90 74 q 28 33 50 40 l 22 19 l 25 11 l 47 0 l 117 0 q 134 7 124 3 q 151 11 144 11 l 186 11 q 204 4 193 8 q 222 0 215 0 l 418 0 q 485 6 444 0 q 565 26 526 11 q 632 65 604 40 q 660 128 660 90 z "},"m":{"ha":904,"x_min":21,"x_max":861,"o":"m 861 -7 l 807 60 l 779 615 q 765 638 772 628 q 743 653 758 649 l 576 657 l 571 649 l 571 640 q 589 608 576 622 q 604 575 601 594 q 580 527 590 550 q 556 487 569 504 q 524 459 543 469 q 475 449 506 449 q 452 450 464 449 q 429 454 440 451 l 308 524 q 293 554 301 536 q 275 590 285 572 q 253 622 265 607 q 228 644 242 636 l 21 644 q 72 618 47 635 q 110 575 97 601 l 135 25 l 146 13 q 173 3 158 6 q 203 0 188 0 l 325 0 l 329 6 l 331 13 q 317 38 328 25 q 296 60 306 51 l 268 374 q 269 387 267 381 q 274 399 271 393 l 288 411 q 305 417 296 414 q 325 422 314 419 q 385 405 356 413 q 446 389 415 397 l 568 442 q 588 442 578 442 q 608 439 597 442 q 621 423 614 432 q 628 406 628 414 l 633 65 q 644 35 640 50 q 657 6 649 19 l 671 -7 l 861 -7 z "},"n":{"ha":867,"x_min":29,"x_max":828,"o":"m 828 13 l 768 60 l 739 608 q 724 630 732 619 q 703 644 717 640 l 539 649 l 521 640 l 513 631 l 515 619 q 542 591 525 601 q 571 564 560 581 l 596 283 q 585 260 588 267 q 581 253 583 254 q 575 253 579 253 q 558 251 571 254 q 483 303 529 274 q 390 363 438 332 q 303 426 343 394 q 247 489 264 458 q 239 558 242 528 q 226 608 236 589 q 194 638 215 628 q 131 649 172 649 q 83 645 107 649 q 35 638 58 642 l 29 625 q 36 603 29 614 q 53 581 43 592 q 71 562 63 571 q 79 544 79 553 l 103 24 l 115 13 q 142 3 128 6 q 171 0 157 0 l 290 0 l 296 6 l 297 13 q 283 38 294 28 q 264 60 271 49 l 235 326 q 236 338 235 332 q 240 351 238 344 l 254 364 q 272 369 263 367 q 290 374 281 372 l 556 197 q 583 157 578 182 q 591 105 589 132 q 599 53 593 78 q 631 13 606 28 l 828 13 z "},"o":{"ha":786,"x_min":33,"x_max":714,"o":"m 714 296 q 655 516 714 426 q 474 651 596 606 l 261 647 l 96 533 q 48 445 63 493 q 33 344 33 397 q 45 238 33 283 q 81 156 57 193 q 142 86 106 118 q 229 21 179 54 q 248 16 233 19 q 278 8 263 13 q 308 1 294 4 q 324 -1 321 -1 q 406 3 364 -1 q 489 10 449 7 q 581 71 539 44 q 651 127 622 97 q 697 196 681 157 q 714 296 714 235 m 551 326 q 549 258 551 289 q 539 199 546 228 q 519 142 532 171 q 489 79 507 114 q 475 71 485 76 q 454 59 465 65 q 433 49 443 53 q 419 44 424 44 q 404 44 415 44 q 381 44 393 44 q 358 44 369 44 q 347 44 349 44 l 269 68 l 214 154 l 214 463 l 261 553 q 274 561 264 556 q 297 573 285 567 q 319 584 308 579 q 332 589 329 589 l 450 576 q 470 563 461 569 q 489 549 479 556 q 551 326 551 444 m 422 313 l 422 360 q 411 381 417 372 q 394 399 406 390 q 388 401 392 400 q 379 403 383 403 q 355 399 367 403 q 332 388 343 394 q 317 367 324 376 q 304 344 310 357 l 328 257 l 340 249 l 360 246 q 378 256 368 249 q 399 273 389 264 q 415 292 408 282 q 422 313 422 303 z "},"p":{"ha":708,"x_min":18,"x_max":664,"o":"m 664 479 q 638 568 664 535 q 570 620 611 601 q 482 645 529 639 q 393 651 435 651 q 283 645 338 651 q 172 639 228 639 q 122 645 147 639 q 71 651 97 651 q 22 639 44 651 l 18 629 l 25 615 q 44 606 33 613 q 66 592 56 600 q 84 573 76 583 q 92 553 92 563 l 96 82 q 116 31 96 49 q 165 6 136 14 q 224 -4 193 -3 q 279 -6 256 -6 q 300 -5 286 -6 q 328 -1 314 -4 q 353 8 343 1 q 364 26 364 15 l 364 33 q 333 44 347 40 q 308 55 319 49 q 285 71 296 61 q 264 97 274 81 l 258 282 q 367 263 313 263 q 462 277 410 263 q 559 319 514 292 q 634 388 604 347 q 664 479 664 428 m 546 403 q 531 350 546 371 q 494 318 517 329 q 442 303 471 307 q 388 299 414 299 q 323 311 356 299 q 258 331 290 324 q 253 401 257 371 q 250 472 250 432 q 290 588 250 557 q 417 619 329 619 q 459 592 436 619 q 501 529 482 565 q 533 457 521 493 q 546 403 546 421 z "},"q":{"ha":672,"x_min":18,"x_max":757,"o":"m 757 168 l 757 169 l 757 171 l 757 172 l 757 178 l 757 179 l 757 182 l 757 183 l 757 182 l 757 179 l 757 178 l 757 172 l 757 171 l 757 169 l 757 168 m 679 4 q 627 38 665 14 q 549 91 589 63 q 479 149 510 119 q 449 200 449 179 q 490 267 465 243 q 536 315 514 290 q 575 376 558 340 q 593 482 592 413 l 554 575 q 517 602 531 592 q 492 621 504 613 q 465 637 481 629 q 421 657 450 644 l 186 649 l 93 583 q 74 549 82 565 q 58 513 65 532 l 65 347 l 175 175 l 175 164 q 170 144 176 156 q 160 125 164 132 l 46 58 q 34 44 43 56 q 18 28 25 33 l 22 14 l 33 7 l 49 6 q 139 50 93 22 q 226 101 185 78 q 261 99 244 101 q 296 94 278 97 l 639 -56 l 679 4 m 450 367 q 447 328 450 343 q 437 302 444 314 q 418 279 429 290 q 390 254 407 268 q 367 251 379 251 q 344 251 356 251 l 331 251 q 322 257 328 256 q 311 261 315 258 q 263 300 290 272 q 211 361 235 328 q 171 428 188 394 q 154 488 154 463 q 169 547 154 524 q 217 588 185 569 q 225 589 221 588 q 233 590 229 590 q 274 589 257 590 q 307 583 292 588 q 338 572 322 579 q 374 551 353 564 l 436 457 q 446 413 442 435 q 450 367 450 390 z "},"r":{"ha":613,"x_min":31,"x_max":665,"o":"m 665 36 q 653 51 661 44 q 634 65 644 58 q 614 77 624 71 q 599 92 604 83 q 507 212 551 150 q 418 335 463 274 q 413 356 415 339 q 410 381 410 374 q 440 437 422 410 q 475 492 458 464 q 504 549 492 519 q 518 611 517 578 q 509 628 514 621 q 499 646 504 636 l 418 672 q 388 669 414 672 q 328 660 363 665 q 256 648 293 654 q 193 636 219 642 q 144 665 174 657 q 88 672 115 672 q 31 661 54 672 l 68 596 l 57 -387 l 63 -394 l 71 -399 l 78 -394 q 103 -339 89 -372 q 130 -272 117 -306 q 153 -205 143 -237 q 168 -149 164 -172 q 181 -53 176 -103 q 187 46 185 -4 q 190 146 189 96 q 194 242 192 196 q 213 278 197 264 q 249 300 229 293 q 307 275 282 293 q 352 231 332 257 q 390 177 372 206 q 426 122 408 149 q 463 72 443 94 q 507 39 482 50 l 664 28 l 665 36 m 389 476 q 386 448 389 464 q 381 422 383 432 q 378 411 378 413 q 357 396 367 404 q 339 376 347 388 q 306 362 328 369 q 272 356 285 354 l 249 357 q 233 369 243 360 q 221 385 222 378 l 188 597 q 203 600 188 597 q 242 603 219 603 q 288 601 264 604 q 329 586 313 599 q 373 538 360 564 q 389 476 386 513 z "},"s":{"ha":614,"x_min":15,"x_max":571,"o":"m 571 154 q 553 219 571 193 q 508 264 536 246 q 443 294 479 282 q 372 316 407 306 q 303 338 336 326 q 249 368 271 350 q 235 390 240 374 q 228 426 231 407 q 224 464 225 446 q 224 492 224 482 q 233 525 224 510 q 255 552 242 540 q 284 572 268 564 q 315 586 300 581 q 374 567 354 579 q 401 541 393 556 q 410 510 410 526 q 415 478 411 494 q 428 449 418 463 q 463 425 438 435 q 512 444 488 428 q 536 492 536 461 q 508 565 536 535 q 438 615 479 596 q 349 642 396 633 q 268 651 303 651 q 131 615 185 651 q 47 499 78 578 l 47 468 l 47 435 q 72 394 56 413 q 104 361 88 376 l 336 274 q 356 249 349 264 q 375 224 363 235 q 383 188 382 207 q 385 151 385 169 q 354 76 385 104 q 279 42 324 47 q 217 72 249 49 l 164 175 q 130 199 150 190 q 90 210 110 207 q 42 186 58 201 q 15 139 25 171 q 40 84 18 110 q 91 40 61 58 q 153 10 121 21 q 210 0 185 0 q 326 5 268 0 q 442 13 383 10 q 487 35 464 22 q 528 66 510 49 q 559 105 547 83 q 571 154 571 126 z "},"t":{"ha":824,"x_min":22,"x_max":801,"o":"m 801 628 l 782 653 l 104 664 q 67 652 82 664 q 42 622 51 640 q 27 583 32 604 q 22 546 22 563 q 32 513 22 528 q 56 488 42 499 q 88 472 71 478 q 119 465 104 467 q 142 472 131 468 q 164 483 153 476 q 186 528 176 507 q 207 567 196 550 q 234 597 218 583 q 275 617 250 610 l 289 615 q 310 602 300 611 q 329 586 319 593 l 357 19 l 364 8 q 384 -1 372 1 q 407 -1 396 -3 l 568 8 l 501 75 l 513 561 q 514 571 513 564 q 517 581 515 578 q 537 603 524 594 q 563 617 550 611 l 579 615 q 599 602 590 611 q 619 586 608 593 q 638 557 626 571 q 653 524 649 543 q 682 499 664 508 q 718 486 700 489 q 749 499 736 488 q 775 519 763 510 q 794 572 790 544 q 801 628 797 600 z "},"u":{"ha":803,"x_min":19,"x_max":785,"o":"m 785 3 l 776 17 q 732 44 749 28 q 699 82 715 60 l 679 592 q 671 614 675 603 q 658 635 667 625 l 644 642 l 442 654 q 424 640 431 647 l 421 628 q 436 604 425 615 q 460 582 447 593 q 483 558 472 571 q 499 531 494 546 l 518 67 q 508 45 513 56 q 496 25 504 35 l 483 17 l 394 6 l 301 60 q 282 92 290 75 q 267 129 274 110 l 264 592 q 253 614 257 603 q 242 635 250 625 l 229 642 l 47 654 l 28 642 l 21 633 l 19 619 l 90 531 l 117 160 l 167 67 l 249 6 q 267 1 253 4 q 296 -7 281 -3 q 324 -15 311 -11 q 340 -18 338 -18 l 757 -18 q 769 -12 764 -15 q 781 -6 775 -8 l 785 3 z "},"v":{"ha":778,"x_min":18,"x_max":764,"o":"m 764 657 l 601 657 q 582 615 594 650 q 554 528 569 579 q 522 419 539 478 q 491 306 506 360 q 466 212 476 253 q 451 156 456 171 q 438 135 443 146 q 425 113 432 124 l 414 103 q 406 102 410 103 q 397 101 401 101 q 368 107 379 101 q 329 180 343 133 q 305 283 315 226 q 285 399 294 339 q 263 510 276 458 q 227 602 249 563 q 171 657 206 642 l 67 657 q 45 656 56 657 q 25 649 35 654 l 18 638 l 97 574 l 253 107 l 379 43 q 380 31 379 36 q 381 19 381 25 q 390 0 381 4 q 419 -2 400 -4 q 466 5 438 0 q 532 13 494 10 q 564 39 551 22 l 764 657 z "},"w":{"ha":906,"x_min":31,"x_max":815,"o":"m 815 432 q 815 500 815 465 q 806 565 814 535 q 776 619 797 596 q 717 654 756 643 q 674 639 693 653 q 644 606 656 625 l 644 585 l 644 561 q 688 454 675 511 q 701 339 701 397 q 693 255 701 303 q 666 164 685 207 q 615 92 647 121 q 538 67 583 64 l 514 68 q 499 80 506 72 q 489 94 493 88 l 496 597 q 482 617 489 608 q 461 631 475 626 l 286 635 l 274 625 l 269 617 l 272 608 q 291 590 281 597 q 312 576 301 583 q 332 559 322 568 q 350 538 342 550 l 343 121 q 317 77 342 89 q 268 60 293 65 l 253 64 q 212 105 228 78 q 185 163 196 132 q 168 227 175 194 q 151 285 161 260 l 160 374 q 174 409 165 382 q 190 469 183 436 q 203 532 197 501 q 208 575 208 563 q 190 610 208 594 q 156 632 172 625 q 120 622 136 632 q 89 601 104 613 q 65 557 75 576 q 47 519 54 538 q 35 481 39 501 q 31 435 31 461 q 42 327 31 392 q 77 200 54 263 q 133 89 100 138 q 210 29 167 40 l 328 -3 l 510 -10 q 555 12 531 4 q 603 29 579 19 q 703 99 663 56 q 768 195 743 142 q 804 309 793 249 q 815 432 815 369 z "},"x":{"ha":843,"x_min":21,"x_max":806,"o":"m 806 14 q 781 40 804 19 q 722 93 757 61 q 647 164 688 125 q 573 244 607 203 q 517 326 539 286 q 494 401 494 367 q 496 428 494 415 q 503 456 497 442 q 610 548 554 514 q 739 608 667 582 l 746 619 l 747 632 l 744 644 q 696 660 721 656 q 646 666 671 665 q 595 666 621 667 q 543 665 569 665 q 523 659 532 665 q 507 646 514 653 q 504 639 506 643 q 503 631 503 635 q 506 601 503 615 q 510 574 510 588 q 506 547 510 558 q 496 519 501 535 q 467 494 488 507 q 432 482 447 481 q 397 498 413 485 q 374 528 382 511 q 371 540 372 533 q 369 551 369 546 q 370 583 369 572 q 369 601 371 593 q 365 619 368 610 q 351 646 361 628 l 108 665 q 82 646 96 654 q 53 629 68 638 l 60 611 q 81 594 68 600 q 107 584 93 589 q 134 574 121 579 q 158 560 147 569 q 208 506 183 538 q 258 439 233 474 q 307 369 283 404 q 351 307 331 335 l 133 74 l 36 31 q 29 19 33 24 q 21 10 25 14 l 28 -1 q 52 -8 39 -7 q 76 -10 65 -10 l 269 -10 q 297 -4 282 -10 q 311 18 313 1 l 310 25 l 265 94 l 306 192 q 327 207 313 197 q 357 226 342 217 q 386 242 372 235 q 407 251 400 250 q 427 219 411 244 q 460 167 443 194 q 490 117 476 140 q 503 89 503 93 l 503 76 q 484 47 499 60 q 463 18 469 35 q 474 6 469 11 q 486 -6 479 0 l 776 -10 q 791 -5 783 -10 q 804 4 799 0 l 806 14 z "},"y":{"ha":714,"x_min":14,"x_max":651,"o":"m 651 618 q 638 636 644 628 q 621 649 632 644 l 454 653 l 458 638 q 481 609 471 621 q 497 585 490 597 q 506 558 503 572 q 508 521 508 543 q 483 408 508 456 q 419 307 458 360 q 400 299 413 304 q 381 294 388 294 q 359 295 369 294 q 338 301 349 296 q 310 370 328 321 q 273 474 293 419 q 234 574 253 528 q 203 635 215 619 l 190 642 l 50 653 q 37 650 43 653 q 25 644 31 647 q 14 621 15 633 q 22 609 14 621 q 40 579 29 597 q 63 540 50 561 q 85 503 75 519 q 138 408 113 456 q 184 316 163 360 q 224 235 206 272 q 258 174 243 199 l 263 -350 l 268 -358 q 293 -369 279 -367 l 304 -364 q 324 -326 319 -349 q 333 -282 328 -303 q 377 -173 368 -233 q 386 -54 386 -112 l 385 188 l 597 417 q 615 447 608 431 q 635 475 622 463 l 651 618 z "},"z":{"ha":688,"x_min":14,"x_max":679,"o":"m 679 50 q 678 72 679 61 q 672 94 678 83 q 657 108 665 101 q 639 121 649 115 l 417 132 q 394 119 407 125 q 369 114 381 114 l 344 115 l 324 125 l 586 604 l 588 617 q 582 637 589 626 q 568 653 575 647 l 417 642 l 306 590 l 285 590 l 263 590 q 169 627 217 610 q 71 644 121 644 q 24 638 43 644 l 17 625 q 21 590 14 606 q 61 567 44 576 q 92 550 78 557 q 124 540 107 543 q 165 536 140 536 q 245 547 206 536 q 321 575 285 557 q 340 576 331 576 q 358 571 350 575 l 369 561 q 353 506 371 543 q 308 419 336 468 q 245 318 279 371 q 178 218 211 265 q 120 133 146 171 q 85 79 94 96 l 83 65 q 88 43 83 56 q 96 21 93 31 q 138 1 114 4 q 186 -1 163 -1 q 249 9 225 -1 q 294 33 274 19 q 335 60 314 46 q 388 83 356 75 q 450 67 418 79 q 510 40 482 54 q 563 14 539 25 q 604 3 588 3 q 649 15 632 3 q 679 50 667 26 z "},"":{"ha":433,"x_min":0,"x_max":0,"o":""},"":{"ha":688,"x_min":22,"x_max":660,"o":"m 660 506 q 634 578 660 550 q 570 623 608 607 q 489 644 532 639 q 413 650 446 650 l 222 650 q 204 646 215 650 q 186 639 193 642 q 150 640 164 639 q 117 650 136 640 l 47 650 l 25 639 l 22 629 l 28 615 q 70 592 50 608 q 96 553 90 576 l 100 82 q 113 52 107 67 q 126 22 118 38 q 159 5 140 10 q 197 0 178 0 l 331 0 q 356 6 343 0 q 369 26 369 11 l 368 33 l 293 63 q 280 79 286 71 q 267 97 274 88 l 256 522 q 263 553 256 540 q 281 575 269 565 q 305 592 292 585 q 331 608 318 600 l 421 619 q 487 565 464 603 q 518 485 510 528 q 538 463 529 474 q 558 440 546 451 q 606 431 585 431 q 622 433 611 431 q 660 506 660 460 z "},"":{"ha":821,"x_min":1,"x_max":774,"o":"m 774 288 q 767 333 769 317 q 763 365 765 350 q 756 395 761 379 q 739 440 750 411 l 567 600 l 454 619 q 379 594 414 611 l 268 474 l 224 274 q 203 257 217 263 q 178 249 189 251 l 50 282 q 32 281 46 283 q 8 279 18 278 l 1 267 l 4 254 l 14 243 q 110 211 57 224 q 208 185 163 199 q 231 159 221 174 q 251 131 240 144 l 307 -46 l 460 -204 l 419 56 q 423 78 418 65 q 435 97 428 90 q 511 115 478 115 q 579 117 546 115 q 649 133 613 118 q 736 194 686 147 l 774 288 m 426 318 q 413 326 421 326 q 400 322 406 326 q 392 310 394 318 q 396 296 390 303 q 453 241 415 271 q 533 196 492 211 q 506 178 519 185 q 476 172 492 172 q 454 174 465 172 q 432 178 443 176 q 409 196 419 186 q 388 217 399 206 q 385 267 390 236 q 379 321 379 297 q 383 385 379 347 q 399 457 388 422 q 433 517 411 492 q 493 542 456 542 q 519 540 504 542 q 544 535 533 538 q 576 510 563 526 q 601 476 590 494 q 619 436 611 457 q 631 399 626 415 l 608 288 q 589 258 600 275 q 564 226 578 242 q 526 241 546 231 q 487 264 506 251 q 452 291 468 276 q 426 318 436 306 m 596 431 q 578 474 596 456 q 535 492 560 492 q 491 474 508 492 q 474 431 474 456 q 491 386 474 404 q 535 368 508 368 q 578 386 560 368 q 596 431 596 404 m 569 422 q 550 403 569 403 q 531 422 531 403 q 550 442 531 442 q 569 422 569 442 z "},"":{"ha":824,"x_min":22,"x_max":801,"o":"m 801 628 l 782 653 l 104 664 q 67 652 82 664 q 42 622 51 640 q 27 583 32 604 q 22 546 22 563 q 32 513 22 528 q 56 488 42 499 q 88 472 71 478 q 119 465 104 467 q 142 472 131 468 q 164 483 153 476 q 186 528 176 507 q 207 567 196 550 q 234 597 218 583 q 275 617 250 610 l 289 615 q 310 602 300 611 q 329 586 319 593 l 357 19 l 364 8 q 384 -1 372 1 q 407 -1 396 -3 l 568 8 l 501 75 l 513 561 q 514 571 513 564 q 517 581 515 578 q 537 603 524 594 q 563 617 550 611 l 579 615 q 599 602 590 611 q 619 586 608 593 q 638 557 626 571 q 653 524 649 543 q 682 499 664 508 q 718 486 700 489 q 749 499 736 488 q 775 519 763 510 q 794 572 790 544 q 801 628 797 600 m 669 431 q 651 474 669 456 q 607 492 633 492 q 564 474 582 492 q 546 431 546 456 q 564 386 546 404 q 607 368 582 368 q 651 386 633 368 q 669 431 669 404 m 643 422 q 637 408 643 414 q 624 403 631 403 q 604 422 604 403 q 624 442 604 442 q 637 436 631 442 q 643 422 643 431 m 331 431 q 313 474 331 456 q 269 492 294 492 q 226 474 243 492 q 208 431 208 456 q 226 386 208 404 q 269 368 243 368 q 313 386 294 368 q 331 431 331 404 m 304 422 q 285 403 304 403 q 265 422 265 403 q 285 442 265 442 q 304 422 304 442 m 78 117 q 68 129 75 126 q 53 130 61 132 q 41 122 46 128 q 39 106 36 115 q 47 63 46 82 q 101 -51 58 -4 q 203 -128 144 -97 q 326 -172 261 -158 q 449 -186 392 -186 q 545 -165 496 -186 q 638 -113 594 -144 q 717 -44 682 -82 q 771 28 751 -7 q 785 76 786 54 q 790 124 785 97 q 787 140 792 133 q 774 147 782 146 q 760 145 767 149 q 751 132 753 142 q 749 108 749 121 q 747 86 749 97 q 710 4 743 46 q 631 -71 676 -37 q 535 -126 585 -104 q 449 -147 485 -147 q 346 -136 401 -147 q 240 -103 290 -125 q 150 -48 189 -81 q 96 28 111 -15 q 86 71 89 49 q 78 117 83 93 z "},"":{"ha":940,"x_min":40,"x_max":839,"o":"m 385 339 q 367 295 385 313 q 324 278 350 278 q 281 295 299 278 q 263 339 263 313 q 281 382 263 364 q 324 400 299 400 q 367 382 350 400 q 385 339 385 364 m 357 -40 q 363 88 361 24 q 368 213 364 153 q 387 248 371 233 q 422 269 403 263 q 495 234 465 261 q 549 172 525 207 q 594 99 572 136 q 643 36 617 63 q 575 15 613 28 q 499 -10 538 3 q 423 -31 460 -22 q 357 -40 386 -40 m 354 -79 q 434 -69 392 -79 q 520 -47 476 -60 q 607 -18 564 -33 q 690 8 650 -3 l 838 -1 l 839 7 q 826 22 835 15 q 808 35 818 29 q 788 48 797 42 q 772 63 778 54 q 681 183 725 121 q 592 304 636 244 q 586 327 589 310 q 583 351 583 344 q 614 408 596 381 q 649 463 632 435 q 678 519 665 490 q 692 582 690 549 q 683 599 688 592 q 672 615 678 607 l 592 643 q 571 636 582 642 q 553 624 560 631 l 599 474 l 561 382 q 540 366 550 374 q 522 347 531 358 q 489 333 510 340 q 454 326 468 325 l 431 328 q 415 340 425 331 q 403 356 404 349 l 368 604 q 319 635 349 628 q 261 643 290 643 q 204 632 228 643 l 242 567 l 233 -218 q 203 -210 218 -217 q 171 -184 189 -199 q 142 -154 153 -169 q 106 -109 124 -129 q 81 -60 88 -89 q 72 -47 78 -50 q 58 -45 65 -43 q 45 -53 50 -47 q 43 -68 40 -58 q 52 -99 47 -86 q 63 -121 57 -111 q 78 -140 69 -131 q 97 -161 86 -150 q 125 -192 114 -178 q 149 -219 136 -207 q 178 -241 161 -232 q 222 -256 194 -250 l 232 -258 l 231 -417 l 236 -425 l 244 -428 l 251 -424 q 281 -358 264 -397 q 311 -279 297 -319 q 382 -284 346 -290 q 456 -278 418 -278 q 517 -263 486 -278 q 574 -226 547 -249 q 624 -178 601 -204 q 661 -128 647 -151 q 663 -112 665 -119 q 653 -101 660 -106 q 640 -99 647 -97 q 628 -108 632 -100 q 597 -149 617 -126 q 553 -191 578 -171 q 503 -225 529 -211 q 456 -239 478 -239 q 390 -246 424 -239 q 325 -243 357 -253 q 335 -208 331 -224 q 342 -178 339 -192 q 354 -79 350 -132 m 358 331 q 339 350 358 350 q 326 344 332 350 q 319 331 319 339 q 326 317 319 322 q 339 311 332 311 q 358 331 358 311 z "},"":{"ha":765,"x_min":474,"x_max":596,"o":"m 596 431 q 578 474 596 456 q 535 492 560 492 q 491 474 508 492 q 474 431 474 456 q 491 386 474 404 q 535 368 508 368 q 578 386 560 368 q 596 431 596 404 m 569 422 q 550 403 569 403 q 531 422 531 403 q 550 442 531 442 q 569 422 569 442 z "},"":{"ha":613,"x_min":18,"x_max":567,"o":"m 388 806 q 369 851 389 835 q 325 875 350 868 q 278 858 294 878 q 254 813 263 838 q 262 785 256 797 q 275 760 268 772 q 297 747 285 751 q 321 740 310 743 q 346 752 335 747 q 365 763 357 757 q 378 778 372 768 q 388 806 383 788 m 168 806 q 150 851 169 835 q 106 875 131 868 q 59 858 75 878 q 35 813 43 838 q 42 785 35 797 q 56 760 49 772 q 78 747 65 751 q 101 740 90 743 q 126 752 115 747 q 145 763 138 757 q 158 778 153 768 q 168 806 164 788 m 567 42 l 558 82 q 550 100 556 85 q 538 134 544 115 q 524 170 531 153 q 514 194 517 188 l 335 618 q 324 633 332 625 q 310 644 315 642 l 47 656 q 37 651 42 653 q 26 644 32 649 l 22 636 l 29 622 q 84 615 67 617 q 113 608 101 613 q 137 598 125 604 q 175 578 149 592 q 195 547 188 564 q 215 514 203 529 q 224 486 219 503 q 229 458 229 469 q 214 405 229 425 q 176 370 199 385 q 128 343 153 356 q 82 310 103 331 l 38 -176 l 29 -189 q 24 -213 26 -201 q 18 -236 22 -225 l 19 -247 l 29 -256 q 46 -258 36 -257 q 63 -260 56 -260 q 84 -258 72 -260 q 106 -254 96 -257 q 129 -231 121 -243 q 149 -207 138 -219 q 160 -157 156 -183 q 171 -104 165 -131 q 185 -53 176 -78 q 206 -7 193 -28 l 213 -1 l 532 8 q 552 21 544 15 q 567 42 560 26 m 365 86 q 352 66 358 72 q 331 53 346 60 l 264 53 q 241 55 253 53 q 219 64 229 57 l 211 75 l 215 313 q 223 329 217 321 q 235 343 229 338 l 250 346 l 261 343 q 287 299 269 335 q 321 219 304 263 q 351 138 338 176 q 365 86 364 99 z "},"":{"ha":764,"x_min":33,"x_max":714,"o":"m 554 806 q 536 851 556 835 q 492 875 517 868 q 445 858 461 878 q 422 813 429 838 q 429 785 422 797 q 443 760 436 772 q 464 747 451 751 q 489 740 476 743 q 513 752 503 747 q 531 763 524 757 q 544 778 539 768 q 554 806 550 788 m 335 806 q 317 851 336 835 q 272 875 297 868 q 226 858 242 878 q 201 813 210 838 q 210 785 203 797 q 224 760 217 772 q 244 747 232 751 q 269 740 257 743 q 294 752 283 747 q 312 763 304 757 q 325 778 319 768 q 335 806 331 788 m 714 296 q 655 516 714 426 q 474 651 596 606 l 261 647 l 96 533 q 48 445 63 493 q 33 344 33 397 q 45 238 33 283 q 81 156 57 193 q 142 86 106 118 q 229 21 179 54 q 248 16 233 19 q 278 8 263 13 q 308 1 294 4 q 324 -1 321 -1 q 406 3 364 -1 q 489 10 449 7 q 581 71 539 44 q 651 127 622 97 q 697 196 681 157 q 714 296 714 235 m 551 326 q 549 258 551 289 q 539 199 546 228 q 519 142 532 171 q 489 79 507 114 q 475 71 485 76 q 454 59 465 65 q 433 49 443 53 q 419 44 424 44 q 404 44 415 44 q 381 44 393 44 q 358 44 369 44 q 347 44 349 44 l 269 68 l 214 154 l 214 463 l 261 553 q 274 561 264 556 q 297 573 285 567 q 319 584 308 579 q 332 589 329 589 l 450 576 q 470 563 461 569 q 489 549 479 556 q 551 326 551 444 m 422 313 l 422 360 q 411 381 417 372 q 394 399 406 390 q 388 401 392 400 q 379 403 383 403 q 355 399 367 403 q 332 388 343 394 q 317 367 324 376 q 304 344 310 357 l 328 257 l 340 249 l 360 246 q 378 256 368 249 q 399 273 389 264 q 415 292 408 282 q 422 313 422 303 z "},"":{"ha":806,"x_min":21,"x_max":785,"o":"m 560 806 q 542 851 561 835 q 497 875 522 868 q 451 858 467 878 q 426 813 435 838 q 434 785 428 797 q 447 760 440 772 q 469 747 457 751 q 493 740 482 743 q 518 752 507 747 q 537 763 529 757 q 550 778 544 768 q 560 806 556 788 m 340 806 q 322 851 342 835 q 278 875 303 868 q 231 858 247 878 q 207 813 215 838 q 215 785 208 797 q 228 760 221 772 q 250 747 238 751 q 274 740 263 743 q 299 752 288 747 q 317 763 310 757 q 331 778 325 768 q 340 806 336 788 m 785 3 l 778 17 q 733 44 750 28 q 700 82 717 60 l 681 592 q 671 614 675 603 q 660 635 667 625 l 646 642 l 442 654 q 425 640 431 647 l 421 628 q 436 604 425 615 q 460 582 447 593 q 483 558 472 571 q 499 531 494 546 l 518 67 q 508 45 513 56 q 497 25 504 35 l 483 17 l 394 6 l 303 60 q 268 129 282 89 l 264 592 q 254 614 258 603 q 243 635 250 625 l 229 642 l 47 654 l 28 642 l 21 633 l 21 619 l 90 531 l 117 160 l 167 67 l 249 6 q 267 1 253 4 q 297 -7 281 -3 q 326 -15 313 -11 q 340 -18 339 -18 l 758 -18 q 769 -12 764 -15 q 781 -6 775 -8 l 785 3 z "},"":{"ha":613,"x_min":18,"x_max":567,"o":"m 388 806 q 369 851 389 835 q 325 875 350 868 q 278 858 294 878 q 254 813 263 838 q 262 785 256 797 q 275 760 268 772 q 297 747 285 751 q 321 740 310 743 q 346 752 335 747 q 365 763 357 757 q 378 778 372 768 q 388 806 383 788 m 168 806 q 150 851 169 835 q 106 875 131 868 q 59 858 75 878 q 35 813 43 838 q 42 785 35 797 q 56 760 49 772 q 78 747 65 751 q 101 740 90 743 q 126 752 115 747 q 145 763 138 757 q 158 778 153 768 q 168 806 164 788 m 567 42 l 558 82 q 550 100 556 85 q 538 134 544 115 q 524 170 531 153 q 514 194 517 188 l 335 618 q 324 633 332 625 q 310 644 315 642 l 47 656 q 37 651 42 653 q 26 644 32 649 l 22 636 l 29 622 q 84 615 67 617 q 113 608 101 613 q 137 598 125 604 q 175 578 149 592 q 195 547 188 564 q 215 514 203 529 q 224 486 219 503 q 229 458 229 469 q 214 405 229 425 q 176 370 199 385 q 128 343 153 356 q 82 310 103 331 l 38 -176 l 29 -189 q 24 -213 26 -201 q 18 -236 22 -225 l 19 -247 l 29 -256 q 46 -258 36 -257 q 63 -260 56 -260 q 84 -258 72 -260 q 106 -254 96 -257 q 129 -231 121 -243 q 149 -207 138 -219 q 160 -157 156 -183 q 171 -104 165 -131 q 185 -53 176 -78 q 206 -7 193 -28 l 213 -1 l 532 8 q 552 21 544 15 q 567 42 560 26 m 365 86 q 352 66 358 72 q 331 53 346 60 l 264 53 q 241 55 253 53 q 219 64 229 57 l 211 75 l 215 313 q 223 329 217 321 q 235 343 229 338 l 250 346 l 261 343 q 287 299 269 335 q 321 219 304 263 q 351 138 338 176 q 365 86 364 99 z "},"":{"ha":439,"x_min":7,"x_max":414,"o":"m 414 840 q 390 897 408 879 q 336 926 372 915 q 281 903 300 924 q 251 849 261 883 q 260 815 251 831 q 275 785 268 800 q 303 768 288 774 q 333 760 318 763 q 363 774 350 769 q 384 786 375 779 q 400 805 393 793 q 414 840 407 817 m 171 840 q 147 897 164 879 q 93 926 129 915 q 36 903 56 924 q 7 849 17 883 q 16 816 8 832 q 31 785 24 800 q 58 768 43 774 q 88 760 72 763 q 118 774 106 768 q 140 787 131 779 q 157 806 150 794 q 171 840 164 818 m 381 19 q 363 53 374 39 q 340 83 351 68 l 321 621 q 306 644 314 633 q 283 658 297 654 l 93 661 l 89 644 q 107 610 96 625 q 129 581 118 596 l 149 26 l 157 14 q 181 4 168 7 q 207 1 194 1 l 376 1 l 381 19 z "},"":{"ha":764,"x_min":33,"x_max":714,"o":"m 554 806 q 536 851 556 835 q 492 875 517 868 q 445 858 461 878 q 422 813 429 838 q 429 785 422 797 q 443 760 436 772 q 464 747 451 751 q 489 740 476 743 q 513 752 503 747 q 531 763 524 757 q 544 778 539 768 q 554 806 550 788 m 335 806 q 317 851 336 835 q 272 875 297 868 q 226 858 242 878 q 201 813 210 838 q 210 785 203 797 q 224 760 217 772 q 244 747 232 751 q 269 740 257 743 q 294 752 283 747 q 312 763 304 757 q 325 778 319 768 q 335 806 331 788 m 714 296 q 655 516 714 426 q 474 651 596 606 l 261 647 l 96 533 q 48 445 63 493 q 33 344 33 397 q 45 238 33 283 q 81 156 57 193 q 142 86 106 118 q 229 21 179 54 q 248 16 233 19 q 278 8 263 13 q 308 1 294 4 q 324 -1 321 -1 q 406 3 364 -1 q 489 10 449 7 q 581 71 539 44 q 651 127 622 97 q 697 196 681 157 q 714 296 714 235 m 551 326 q 549 258 551 289 q 539 199 546 228 q 519 142 532 171 q 489 79 507 114 q 475 71 485 76 q 454 59 465 65 q 433 49 443 53 q 419 44 424 44 q 404 44 415 44 q 381 44 393 44 q 358 44 369 44 q 347 44 349 44 l 269 68 l 214 154 l 214 463 l 261 553 q 274 561 264 556 q 297 573 285 567 q 319 584 308 579 q 332 589 329 589 l 450 576 q 470 563 461 569 q 489 549 479 556 q 551 326 551 444 m 422 313 l 422 360 q 411 381 417 372 q 394 399 406 390 q 388 401 392 400 q 379 403 383 403 q 355 399 367 403 q 332 388 343 394 q 317 367 324 376 q 304 344 310 357 l 328 257 l 340 249 l 360 246 q 378 256 368 249 q 399 273 389 264 q 415 292 408 282 q 422 313 422 303 z "},"":{"ha":806,"x_min":21,"x_max":785,"o":"m 560 806 q 542 851 561 835 q 497 875 522 868 q 451 858 467 878 q 426 813 435 838 q 434 785 428 797 q 447 760 440 772 q 469 747 457 751 q 493 740 482 743 q 518 752 507 747 q 537 763 529 757 q 550 778 544 768 q 560 806 556 788 m 340 806 q 322 851 342 835 q 278 875 303 868 q 231 858 247 878 q 207 813 215 838 q 215 785 208 797 q 228 760 221 772 q 250 747 238 751 q 274 740 263 743 q 299 752 288 747 q 317 763 310 757 q 331 778 325 768 q 340 806 336 788 m 785 3 l 778 17 q 733 44 750 28 q 700 82 717 60 l 681 592 q 671 614 675 603 q 660 635 667 625 l 646 642 l 442 654 q 425 640 431 647 l 421 628 q 436 604 425 615 q 460 582 447 593 q 483 558 472 571 q 499 531 494 546 l 518 67 q 508 45 513 56 q 497 25 504 35 l 483 17 l 394 6 l 303 60 q 268 129 282 89 l 264 592 q 254 614 258 603 q 243 635 250 625 l 229 642 l 47 654 l 28 642 l 21 633 l 21 619 l 90 531 l 117 160 l 167 67 l 249 6 q 267 1 253 4 q 297 -7 281 -3 q 326 -15 313 -11 q 340 -18 339 -18 l 758 -18 q 769 -12 764 -15 q 781 -6 775 -8 l 785 3 z "},"":{"ha":636,"x_min":18,"x_max":606,"o":"m 606 322 q 603 338 606 329 l 593 351 l 575 363 l 250 308 q 210 324 224 315 q 181 358 196 333 l 169 468 q 227 558 186 525 q 329 590 268 590 l 415 540 q 440 503 429 519 q 469 471 450 486 l 546 460 q 565 472 557 463 q 579 492 574 481 q 545 560 571 531 q 485 610 519 590 q 410 640 450 629 q 335 650 369 650 q 194 620 254 650 q 96 540 135 590 q 38 424 57 490 q 18 283 18 357 q 26 228 18 253 q 48 180 35 203 q 78 134 61 157 q 113 85 96 111 q 147 58 129 72 q 183 32 164 44 q 221 11 201 19 q 264 4 240 3 l 458 15 l 568 81 q 591 117 579 93 q 601 158 603 142 l 601 169 l 596 178 q 567 196 585 192 q 531 200 549 200 q 522 199 526 200 q 513 196 517 197 q 490 174 499 188 q 469 149 481 161 q 457 115 465 131 q 438 85 449 100 q 401 60 422 71 l 271 49 q 226 73 243 57 q 197 111 208 89 q 180 158 186 133 q 169 208 174 183 q 186 247 176 232 q 221 275 196 263 l 589 290 l 599 297 l 604 308 l 606 322 m 475 806 q 457 851 476 835 q 413 875 438 868 q 366 858 382 878 q 342 813 350 838 q 349 785 343 797 q 363 760 356 772 q 385 747 372 751 q 408 740 397 743 q 433 752 422 747 q 452 763 444 757 q 465 778 460 768 q 475 806 471 788 m 256 806 q 238 851 257 835 q 193 875 218 868 q 147 858 163 878 q 122 813 131 838 q 130 785 124 797 q 143 760 136 772 q 165 747 153 751 q 189 740 178 743 q 214 752 203 747 q 233 763 225 757 q 246 778 240 768 q 256 806 251 788 z "},"":{"ha":607,"x_min":18,"x_max":567,"o":"m 567 42 l 558 82 q 550 100 556 85 q 538 134 544 115 q 524 170 531 153 q 514 194 517 188 l 335 618 q 324 633 332 625 q 310 644 315 642 l 47 656 q 37 651 42 653 q 26 644 32 649 l 22 636 l 29 622 q 84 615 67 617 q 113 608 101 613 q 137 598 125 604 q 175 578 149 592 q 195 547 188 564 q 215 514 203 529 q 224 486 219 503 q 229 458 229 469 q 214 405 229 425 q 176 370 199 385 q 128 343 153 356 q 82 310 103 331 l 38 -176 l 29 -189 q 24 -213 26 -201 q 18 -236 22 -225 l 19 -247 l 29 -256 q 46 -258 36 -257 q 63 -260 56 -260 q 84 -258 72 -260 q 106 -254 96 -257 q 129 -231 121 -243 q 149 -207 138 -219 q 160 -157 156 -183 q 171 -104 165 -131 q 185 -53 176 -78 q 206 -7 193 -28 l 213 -1 l 532 8 q 552 21 544 15 q 567 42 560 26 m 365 86 q 352 66 358 72 q 331 53 346 60 l 264 53 q 241 55 253 53 q 219 64 229 57 l 211 75 l 215 313 q 223 329 217 321 q 235 343 229 338 l 250 346 l 261 343 q 287 299 269 335 q 321 219 304 263 q 351 138 338 176 q 365 86 364 99 z "},"":{"ha":650,"x_min":-28,"x_max":639,"o":"m 365 86 q 352 66 358 72 q 331 53 346 60 l 264 53 q 241 55 253 53 q 219 64 229 57 l 211 75 l 215 313 q 223 329 217 321 q 235 343 229 338 l 250 346 l 261 343 q 287 299 269 335 q 321 219 304 263 q 351 138 338 176 q 365 86 364 99 m 160 -160 q 161 -157 160 -158 q 171 -104 165 -131 q 185 -53 176 -78 q 206 -7 193 -28 l 213 -1 l 464 7 l 443 -258 l 450 -265 q 469 -269 458 -268 q 490 -271 481 -271 l 636 -271 l 639 -262 q 615 -248 632 -253 q 590 -235 599 -243 l 588 35 q 576 46 582 40 q 564 51 571 50 l 558 82 q 550 100 556 85 q 538 134 544 115 q 524 170 531 153 q 514 194 517 188 l 335 618 q 324 633 332 625 q 310 644 315 642 l 47 656 q 37 651 42 653 q 26 644 32 649 l 22 636 l 29 622 q 84 615 67 617 q 113 608 101 613 q 137 598 125 604 q 175 578 149 592 q 195 547 188 564 q 215 514 203 529 q 224 486 219 503 q 229 458 229 469 q 214 405 229 425 q 176 370 199 385 q 128 343 153 356 q 82 310 103 331 l 58 54 l 54 54 q 35 46 42 51 q 24 35 29 40 l 21 -228 q 18 -236 19 -232 l 18 -237 q -4 -247 10 -244 q -28 -262 -22 -253 l -25 -271 l 119 -271 q 141 -269 131 -271 q 161 -265 151 -268 l 168 -258 l 160 -160 z "},"":{"ha":636,"x_min":18,"x_max":606,"o":"m 606 322 q 603 338 606 329 l 593 351 l 575 363 l 250 308 q 210 324 224 315 q 181 358 196 333 l 169 468 q 227 558 186 525 q 329 590 268 590 l 415 540 q 440 503 429 519 q 469 471 450 486 l 546 460 q 565 472 557 463 q 579 492 574 481 q 545 560 571 531 q 485 610 519 590 q 410 640 450 629 q 335 650 369 650 q 194 620 254 650 q 96 540 135 590 q 38 424 57 490 q 18 283 18 357 q 26 228 18 253 q 48 180 35 203 q 78 134 61 157 q 113 85 96 111 q 147 58 129 72 q 183 32 164 44 q 221 11 201 19 q 264 4 240 3 l 458 15 l 568 81 q 591 117 579 93 q 601 158 603 142 l 601 169 l 596 178 q 567 196 585 192 q 531 200 549 200 q 522 199 526 200 q 513 196 517 197 q 490 174 499 188 q 469 149 481 161 q 457 115 465 131 q 438 85 449 100 q 401 60 422 71 l 271 49 q 226 73 243 57 q 197 111 208 89 q 180 158 186 133 q 169 208 174 183 q 186 247 176 232 q 221 275 196 263 l 589 290 l 599 297 l 604 308 l 606 322 z "},"":{"ha":1104,"x_min":21,"x_max":1076,"o":"m 468 -417 l 475 -425 l 482 -428 l 489 -424 q 549 -401 500 -401 q 608 -424 597 -401 l 615 -428 l 622 -425 l 629 -417 l 621 244 q 625 249 622 246 q 660 269 640 263 q 742 226 710 261 q 802 148 775 190 q 856 66 829 106 q 918 10 882 26 l 1076 -1 l 1076 7 q 1064 22 1072 15 q 1045 35 1056 29 q 1025 48 1035 42 q 1010 63 1015 54 q 918 183 963 121 q 829 304 874 244 q 824 327 826 310 q 821 351 822 344 q 851 408 833 381 q 886 463 869 435 q 915 519 903 490 q 929 582 928 549 q 920 599 925 592 q 910 615 915 607 l 829 643 q 809 636 819 642 q 792 624 799 631 l 838 474 l 799 382 q 778 366 788 374 q 760 347 768 358 q 726 333 747 340 q 692 326 706 325 l 668 328 q 653 340 663 331 q 642 356 643 349 l 617 532 l 617 567 l 656 632 q 628 641 642 639 q 599 643 614 643 q 549 638 574 643 q 499 643 524 643 q 469 641 483 643 q 442 632 456 639 l 481 567 l 481 532 l 456 356 q 444 340 454 349 q 429 328 435 331 l 406 326 q 371 333 392 325 q 338 347 350 340 q 319 366 329 358 q 299 382 310 374 l 260 474 l 306 624 q 288 636 299 631 q 268 643 278 642 l 188 615 q 177 599 182 607 q 168 582 172 592 q 182 519 169 549 q 211 463 194 490 q 246 408 228 435 q 276 351 264 381 q 273 327 275 344 q 268 304 271 310 q 179 183 224 244 q 88 63 135 121 q 72 48 82 54 q 52 35 63 42 q 33 22 42 29 q 21 7 25 15 l 21 -1 l 179 10 q 242 66 215 26 q 295 148 268 106 q 355 226 322 190 q 438 269 388 261 q 474 249 457 263 q 476 244 475 246 l 468 -417 z "},"":{"ha":694,"x_min":38,"x_max":622,"o":"m 604 283 q 583 306 597 297 q 569 322 569 314 q 579 344 568 335 q 597 368 590 354 q 606 473 622 422 q 545 563 589 524 q 438 626 501 603 q 306 650 374 650 q 230 640 269 650 q 156 610 190 629 q 95 560 121 590 q 61 492 69 531 q 75 472 67 481 q 94 460 83 463 l 171 471 q 201 503 190 486 q 225 540 211 519 l 311 590 q 413 558 372 590 q 471 468 454 525 l 460 386 q 431 352 444 361 q 392 336 418 343 l 147 353 l 131 342 l 119 328 q 117 314 117 319 l 118 299 l 125 288 l 135 281 l 419 303 q 454 275 444 290 q 471 235 464 260 q 460 181 467 210 q 443 125 454 151 q 414 78 432 99 q 369 49 396 57 l 239 60 q 203 85 218 71 q 171 149 181 117 q 151 174 160 161 q 128 196 142 188 q 119 199 124 197 q 110 200 114 200 q 74 196 92 200 q 44 178 56 192 l 39 169 l 39 158 q 49 117 38 142 q 72 81 61 93 l 182 15 l 376 4 q 420 11 400 3 q 458 32 440 19 q 494 58 476 44 q 528 85 511 72 q 565 135 544 111 q 599 184 585 160 q 617 233 614 208 q 604 283 621 257 z "},"":{"ha":860,"x_min":29,"x_max":828,"o":"m 226 13 q 259 44 251 28 q 269 78 267 61 q 277 114 272 96 q 301 151 282 132 l 567 393 q 581 388 576 390 q 593 382 585 385 l 607 369 q 612 356 610 363 q 613 344 614 350 l 593 60 q 574 38 586 49 q 560 13 563 28 l 561 6 l 567 0 l 686 0 q 715 3 700 0 q 742 13 729 6 l 754 24 l 778 544 q 786 562 778 553 q 804 581 794 571 q 821 603 814 592 q 828 625 828 614 l 822 638 q 774 645 799 642 q 726 649 750 649 q 663 643 685 649 q 631 622 642 638 q 618 581 621 607 q 610 517 615 556 q 553 445 593 486 q 467 363 514 404 q 374 283 419 321 q 299 224 328 246 q 282 226 286 228 q 276 226 278 225 q 272 233 274 226 q 261 256 269 239 l 286 564 q 315 591 297 581 q 342 619 332 601 l 344 631 l 336 640 l 318 649 l 154 644 q 133 630 140 640 q 118 608 125 619 l 89 60 l 29 13 l 226 13 z "},"":{"ha":854,"x_min":29,"x_max":828,"o":"m 226 13 q 259 44 251 28 q 269 78 267 61 q 277 114 272 96 q 301 151 282 132 l 567 393 q 581 388 576 390 q 593 382 585 385 l 607 369 q 612 356 610 363 q 613 344 614 350 l 593 60 q 574 38 586 49 q 560 13 563 28 l 561 6 l 567 0 l 686 0 q 715 3 700 0 q 742 13 729 6 l 754 24 l 778 544 q 786 562 778 553 q 804 581 794 571 q 821 603 814 592 q 828 625 828 614 l 822 638 q 774 645 799 642 q 726 649 750 649 q 663 643 685 649 q 631 622 642 638 q 618 581 621 607 q 610 517 615 556 q 553 445 593 486 q 467 363 514 404 q 374 283 419 321 q 299 224 328 246 q 282 226 286 228 q 276 226 278 225 q 272 233 274 226 q 261 256 269 239 l 286 564 q 315 591 297 581 q 342 619 332 601 l 344 631 l 336 640 l 318 649 l 154 644 q 133 630 140 640 q 118 608 125 619 l 89 60 l 29 13 l 226 13 m 719 797 q 708 814 715 807 l 272 821 q 240 808 254 817 q 224 779 229 797 q 219 746 219 761 q 232 717 224 729 q 255 701 243 707 q 282 693 267 694 q 310 704 296 694 l 346 769 q 361 777 350 774 q 385 783 372 781 q 410 785 399 785 q 429 786 422 786 l 481 786 q 547 783 513 786 q 613 775 581 779 l 614 775 q 617 760 614 771 q 627 738 621 750 q 642 717 633 726 q 658 704 650 707 q 685 710 672 707 q 708 721 697 714 q 719 758 718 736 q 719 797 719 779 z "},"":{"ha":611,"x_min":21,"x_max":656,"o":"m 656 7 q 643 22 651 15 q 624 35 635 29 q 604 48 614 42 q 589 63 594 54 q 497 183 542 121 q 408 304 453 244 q 403 327 406 310 q 400 351 401 344 q 431 408 413 381 q 465 463 449 435 q 494 519 482 490 q 508 582 507 549 q 499 599 504 592 q 489 615 494 607 l 408 643 q 388 636 399 642 q 371 624 378 631 l 417 474 l 378 382 q 357 366 367 374 q 339 347 347 358 q 306 333 326 340 q 271 326 285 325 l 247 328 q 232 340 242 331 q 221 356 222 349 l 186 604 q 136 635 165 628 q 78 643 107 643 q 49 641 63 643 q 21 632 35 639 l 60 567 l 47 -417 l 54 -425 l 61 -428 l 68 -424 q 94 -368 79 -401 q 122 -301 108 -335 q 144 -234 135 -267 q 158 -178 154 -201 q 171 -83 167 -132 q 177 17 175 -33 q 181 117 179 67 q 186 213 183 167 q 203 248 188 233 q 239 269 219 263 q 322 226 289 261 q 381 148 354 190 q 435 66 408 106 q 497 10 461 26 l 656 -1 l 656 7 z "},"":{"ha":607,"x_min":18,"x_max":567,"o":"m 215 313 q 223 329 217 321 q 235 343 229 338 l 250 346 l 261 343 q 287 299 269 335 q 321 219 304 263 q 351 138 338 176 q 365 86 364 99 l 388 4 l 532 8 q 552 21 544 15 q 567 42 560 26 l 558 82 q 550 100 556 85 q 538 134 544 115 q 524 170 531 153 q 514 194 517 188 l 335 618 q 324 633 332 625 q 310 644 315 642 l 47 656 q 37 651 42 653 q 26 644 32 649 l 22 636 l 29 622 q 84 615 67 617 q 113 608 101 613 q 137 598 125 604 q 175 578 149 592 q 195 547 188 564 q 215 514 203 529 q 224 486 219 503 q 229 458 229 469 q 214 405 229 425 q 176 370 199 385 q 128 343 153 356 q 82 310 103 331 l 38 -176 l 29 -189 q 24 -213 26 -201 q 18 -236 22 -225 l 19 -247 l 29 -256 q 46 -258 36 -257 q 63 -260 56 -260 q 84 -258 72 -260 q 106 -254 96 -257 q 129 -231 121 -243 q 149 -207 138 -219 q 160 -157 156 -183 q 171 -104 165 -131 q 185 -53 176 -78 q 215 313 193 -28 z "},"":{"ha":904,"x_min":21,"x_max":861,"o":"m 861 -7 l 807 60 l 779 615 q 765 638 772 628 q 743 653 758 649 l 576 657 l 571 649 l 571 640 q 589 608 576 622 q 604 575 601 594 q 580 527 590 550 q 556 487 569 504 q 524 459 543 469 q 475 449 506 449 q 452 450 464 449 q 429 454 440 451 l 308 524 q 293 554 301 536 q 275 590 285 572 q 253 622 265 607 q 228 644 242 636 l 21 644 q 72 618 47 635 q 110 575 97 601 l 135 25 l 146 13 q 173 3 158 6 q 203 0 188 0 l 325 0 l 329 6 l 331 13 q 317 38 328 25 q 296 60 306 51 l 268 374 q 269 387 267 381 q 274 399 271 393 l 288 411 q 305 417 296 414 q 325 422 314 419 q 385 405 356 413 q 446 389 415 397 l 568 442 q 588 442 578 442 q 608 439 597 442 q 621 423 614 432 q 628 406 628 414 l 633 65 q 644 35 640 50 q 657 6 649 19 l 671 -7 l 861 -7 z "},"":{"ha":767,"x_min":15,"x_max":736,"o":"m 256 338 q 265 342 260 339 q 290 347 276 344 q 315 349 303 349 q 333 350 326 350 l 385 350 q 451 347 417 350 q 517 339 485 343 l 518 339 q 519 329 518 336 l 506 25 l 514 13 q 538 3 525 6 q 563 0 550 0 l 733 0 l 736 18 q 718 51 729 36 q 696 82 707 65 l 676 615 q 662 637 669 626 q 640 653 654 647 l 450 657 l 446 639 q 460 621 449 629 q 486 605 472 613 q 513 590 500 597 q 532 575 526 583 l 522 379 l 254 383 l 246 615 q 231 637 239 626 q 210 653 224 647 l 19 657 l 15 639 q 30 621 18 629 q 56 605 42 613 q 83 590 69 597 q 101 575 96 583 l 75 25 l 83 13 q 107 3 94 6 q 132 0 119 0 l 303 0 l 306 18 q 288 51 299 36 q 265 82 276 65 l 256 338 z "},"":{"ha":786,"x_min":33,"x_max":714,"o":"m 714 296 q 655 516 714 426 q 474 651 596 606 l 261 647 l 96 533 q 48 445 63 493 q 33 344 33 397 q 45 238 33 283 q 81 156 57 193 q 142 86 106 118 q 229 21 179 54 q 248 16 233 19 q 278 8 263 13 q 308 1 294 4 q 324 -1 321 -1 q 406 3 364 -1 q 489 10 449 7 q 581 71 539 44 q 651 127 622 97 q 697 196 681 157 q 714 296 714 235 m 551 326 q 549 258 551 289 q 539 199 546 228 q 519 142 532 171 q 489 79 507 114 q 475 71 485 76 q 454 59 465 65 q 433 49 443 53 q 419 44 424 44 q 404 44 415 44 q 381 44 393 44 q 358 44 369 44 q 347 44 349 44 l 269 68 l 214 154 l 214 463 l 261 553 q 274 561 264 556 q 297 573 285 567 q 319 584 308 579 q 332 589 329 589 l 450 576 q 470 563 461 569 q 489 549 479 556 q 551 326 551 444 m 422 313 l 422 360 q 411 381 417 372 q 394 399 406 390 q 388 401 392 400 q 379 403 383 403 q 355 399 367 403 q 332 388 343 394 q 317 367 324 376 q 304 344 310 357 l 328 257 l 340 249 l 360 246 q 378 256 368 249 q 399 273 389 264 q 415 292 408 282 q 422 313 422 303 z "},"":{"ha":767,"x_min":15,"x_max":736,"o":"m 256 611 q 265 615 260 613 q 290 620 276 618 q 315 623 303 622 q 333 624 326 624 l 385 624 q 451 620 417 624 q 517 613 485 617 l 518 613 q 519 603 518 610 l 506 25 l 514 13 q 538 3 525 6 q 563 0 550 0 l 733 0 l 736 18 q 718 51 729 36 q 696 82 707 65 l 676 615 q 662 637 669 626 q 640 653 654 647 l 19 657 l 15 639 q 30 621 18 629 q 56 605 42 613 q 83 590 69 597 q 101 575 96 583 l 75 25 l 83 13 q 107 3 94 6 q 132 0 119 0 l 303 0 l 306 18 q 288 51 299 36 q 265 82 276 65 l 256 611 z "},"":{"ha":708,"x_min":18,"x_max":664,"o":"m 664 479 q 638 568 664 535 q 570 620 611 601 q 482 645 529 639 q 393 651 435 651 q 283 645 338 651 q 172 639 228 639 q 122 645 147 639 q 71 651 97 651 q 22 639 44 651 l 18 629 l 25 615 q 44 606 33 613 q 66 592 56 600 q 84 573 76 583 q 92 553 92 563 l 96 82 q 116 31 96 49 q 165 6 136 14 q 224 -4 193 -3 q 279 -6 256 -6 q 300 -5 286 -6 q 328 -1 314 -4 q 353 8 343 1 q 364 26 364 15 l 364 33 q 333 44 347 40 q 308 55 319 49 q 285 71 296 61 q 264 97 274 81 l 258 282 q 367 263 313 263 q 462 277 410 263 q 559 319 514 292 q 634 388 604 347 q 664 479 664 428 m 546 403 q 531 350 546 371 q 494 318 517 329 q 442 303 471 307 q 388 299 414 299 q 323 311 356 299 q 258 331 290 324 q 253 401 257 371 q 250 472 250 432 q 290 588 250 557 q 417 619 329 619 q 459 592 436 619 q 501 529 482 565 q 533 457 521 493 q 546 403 546 421 z "},"":{"ha":626,"x_min":19,"x_max":606,"o":"m 604 158 l 604 169 l 599 178 q 568 196 586 192 q 533 200 550 200 q 524 199 529 200 q 514 196 518 197 q 491 174 500 188 q 472 149 482 161 q 440 85 463 117 q 403 60 421 69 l 274 49 q 228 73 246 57 q 200 111 211 89 q 183 158 189 133 q 172 208 176 183 q 185 264 179 236 q 190 319 190 292 q 183 394 190 357 q 172 468 176 431 q 229 558 188 525 q 331 590 271 590 l 418 540 q 442 503 432 519 q 472 471 451 486 l 547 460 q 567 472 560 463 q 581 492 575 481 q 548 560 574 531 q 488 610 522 590 q 413 640 453 629 q 338 650 372 650 q 197 620 257 650 q 98 540 138 590 q 39 424 58 490 q 19 283 19 357 q 28 228 19 253 q 50 180 36 203 q 81 134 64 157 q 114 85 97 111 q 149 58 132 72 q 185 32 167 44 q 223 11 203 19 q 267 4 243 3 l 461 15 l 569 81 q 593 117 581 93 q 604 158 606 142 z "},"":{"ha":824,"x_min":22,"x_max":801,"o":"m 801 628 l 782 653 l 104 664 q 67 652 82 664 q 42 622 51 640 q 27 583 32 604 q 22 546 22 563 q 32 513 22 528 q 56 488 42 499 q 88 472 71 478 q 119 465 104 467 q 142 472 131 468 q 164 483 153 476 q 186 528 176 507 q 207 567 196 550 q 234 597 218 583 q 275 617 250 610 l 289 615 q 310 602 300 611 q 329 586 319 593 l 357 19 l 364 8 q 384 -1 372 1 q 407 -1 396 -3 l 576 8 l 510 75 l 513 561 q 514 571 513 564 q 517 581 515 578 q 537 603 524 594 q 563 617 550 611 l 579 615 q 599 602 590 611 q 619 586 608 593 q 638 557 626 571 q 653 524 649 543 q 682 499 664 508 q 718 486 700 489 q 749 499 736 488 q 775 519 763 510 q 794 572 790 544 q 801 628 797 600 z "},"":{"ha":714,"x_min":14,"x_max":651,"o":"m 651 618 q 638 636 644 628 q 621 649 632 644 l 454 653 l 458 638 q 481 609 471 621 q 497 585 490 597 q 506 558 503 572 q 508 521 508 543 q 483 408 508 456 q 419 307 458 360 q 400 299 413 304 q 381 294 388 294 q 359 295 369 294 q 338 301 349 296 q 310 370 328 321 q 273 474 293 419 q 234 574 253 528 q 203 635 215 619 l 190 642 l 50 653 q 37 650 43 653 q 25 644 31 647 q 14 621 15 633 q 22 609 14 621 q 40 579 29 597 q 63 540 50 561 q 85 503 75 519 q 138 408 113 456 q 184 316 163 360 q 224 235 206 272 q 258 174 243 199 l 263 -350 l 268 -358 q 293 -369 279 -367 l 304 -364 q 324 -326 319 -349 q 333 -282 328 -303 q 377 -173 368 -233 q 386 -54 386 -112 l 385 188 l 597 417 q 615 447 608 431 q 635 475 622 463 l 651 618 z "},"":{"ha":1011,"x_min":18,"x_max":993,"o":"m 136 403 q 149 457 136 421 q 181 529 161 493 q 223 592 200 565 q 265 619 246 619 q 392 588 353 619 q 432 472 432 557 q 428 401 432 432 q 424 331 425 371 q 359 311 392 324 q 294 299 326 299 q 240 303 268 299 q 188 318 211 307 q 151 350 165 329 q 136 403 136 371 m 875 403 q 860 350 875 371 q 823 318 846 329 q 772 303 800 307 q 717 299 743 299 q 652 311 685 299 q 588 331 619 324 q 583 401 586 371 q 579 472 579 432 q 619 588 579 557 q 746 619 658 619 q 788 592 765 619 q 831 529 811 565 q 863 457 850 493 q 875 403 875 421 m 424 272 l 418 97 q 397 71 408 81 q 374 55 386 61 q 349 44 363 49 q 318 33 335 40 l 318 26 q 328 8 318 15 q 353 -1 339 1 q 382 -5 368 -4 q 403 -6 396 -6 q 458 -4 426 -6 q 506 3 482 -3 q 554 -4 529 -3 q 608 -6 585 -6 q 629 -5 615 -6 q 658 -1 643 -4 q 683 8 672 1 q 693 26 693 15 l 693 33 q 663 44 676 40 q 637 55 649 49 q 614 71 625 61 q 593 97 603 81 l 588 272 l 588 282 q 696 263 642 263 q 791 277 739 263 q 888 319 843 292 q 963 388 933 347 q 993 479 993 428 q 967 568 993 535 q 899 620 940 601 q 811 645 858 639 q 722 651 764 651 q 639 647 681 651 q 611 651 625 651 q 560 646 585 651 q 517 639 538 640 l 494 639 q 451 646 474 640 q 400 651 426 651 q 372 647 386 651 q 289 651 331 651 q 200 645 247 651 q 112 620 153 639 q 44 568 71 601 q 18 479 18 535 q 48 388 18 428 q 123 319 78 347 q 220 277 168 292 q 315 263 272 263 q 424 282 369 263 l 424 272 z "},"":{"ha":843,"x_min":21,"x_max":806,"o":"m 806 14 q 781 40 804 19 q 722 93 757 61 q 647 164 688 125 q 573 244 607 203 q 517 326 539 286 q 494 401 494 367 q 496 428 494 415 q 503 456 497 442 q 610 548 554 514 q 739 608 667 582 l 746 619 l 747 632 l 744 644 q 696 660 721 656 q 646 666 671 665 q 595 666 621 667 q 543 665 569 665 q 523 659 532 665 q 507 646 514 653 q 504 639 506 643 q 503 631 503 635 q 506 601 503 615 q 510 574 510 588 q 506 547 510 558 q 496 519 501 535 q 467 494 488 507 q 432 482 447 481 q 397 498 413 485 q 374 528 382 511 q 371 540 372 533 q 369 551 369 546 q 370 583 369 572 q 369 601 371 593 q 365 619 368 610 q 351 646 361 628 l 108 665 q 82 646 96 654 q 53 629 68 638 l 60 611 q 81 594 68 600 q 107 584 93 589 q 134 574 121 579 q 158 560 147 569 q 208 506 183 538 q 258 439 233 474 q 307 369 283 404 q 351 307 331 335 l 133 74 l 36 31 q 29 19 33 24 q 21 10 25 14 l 28 -1 q 52 -8 39 -7 q 76 -10 65 -10 l 269 -10 q 297 -4 282 -10 q 311 18 313 1 l 310 25 l 265 94 l 306 192 q 327 207 313 197 q 357 226 342 217 q 386 242 372 235 q 407 251 400 250 q 427 219 411 244 q 460 167 443 194 q 490 117 476 140 q 503 89 503 93 l 503 76 q 484 47 499 60 q 463 18 469 35 q 474 6 469 11 q 486 -6 479 0 l 776 -10 q 791 -5 783 -10 q 804 4 799 0 l 806 14 z "},"":{"ha":803,"x_min":19,"x_max":831,"o":"m 779 35 q 768 46 774 40 q 756 51 763 50 l 751 76 l 722 54 q 699 82 711 67 l 679 592 q 671 614 675 603 q 658 635 667 625 l 644 642 l 442 654 q 424 640 431 647 l 421 628 q 436 604 425 615 q 460 582 447 593 q 483 558 472 571 q 499 531 494 546 l 518 67 q 508 45 513 56 q 496 25 504 35 l 483 17 l 394 6 l 301 60 q 282 92 290 75 q 267 129 274 110 l 264 592 q 253 614 257 603 q 242 635 250 625 l 229 642 l 47 654 l 28 642 l 21 633 l 19 619 l 90 531 l 117 160 l 167 67 l 249 6 q 267 1 253 4 q 296 -7 281 -3 q 324 -15 311 -11 q 340 -18 338 -18 l 654 -18 l 635 -258 l 642 -265 q 661 -269 650 -268 q 682 -271 672 -271 l 828 -271 l 831 -262 q 807 -248 824 -253 q 782 -235 790 -243 l 779 -6 l 781 -6 l 785 3 l 779 11 l 779 35 z "},"":{"ha":803,"x_min":19,"x_max":785,"o":"m 260 600 q 254 614 256 607 q 242 635 250 625 l 229 642 l 47 654 l 28 642 l 21 633 l 19 619 l 89 532 l 93 478 l 97 424 l 99 424 l 101 381 l 154 288 l 242 226 q 262 222 247 225 q 292 214 276 218 q 323 206 308 210 q 340 203 338 203 l 513 203 l 518 67 q 508 46 513 56 q 506 39 507 42 l 506 -18 l 757 -18 q 769 -12 764 -15 q 781 -6 775 -8 l 785 3 l 776 17 q 732 44 749 28 q 699 82 715 60 l 679 592 q 671 614 675 603 q 658 635 667 625 l 644 642 l 442 654 q 424 640 431 647 l 421 628 q 436 604 425 615 q 460 582 447 593 q 483 558 472 571 q 499 531 494 546 l 510 250 q 507 246 508 249 l 493 238 l 399 226 l 299 281 q 278 313 286 296 q 261 350 269 331 l 261 381 l 265 379 l 264 592 q 260 599 261 596 l 260 600 z "},"":{"ha":1213,"x_min":21,"x_max":1183,"o":"m 864 -18 q 878 -15 865 -18 q 908 -7 892 -11 q 938 1 924 -3 q 956 6 951 4 l 1038 67 l 1088 160 l 1114 531 l 1183 619 l 1183 633 l 1176 642 l 1157 654 l 975 642 l 961 635 q 950 614 954 625 q 940 592 946 603 l 936 129 q 901 60 922 89 l 810 6 l 782 10 l 778 17 q 733 44 750 28 q 700 82 717 60 l 693 247 l 706 531 q 721 558 710 546 q 744 582 732 571 q 768 604 757 593 q 783 628 779 615 l 779 640 q 763 654 774 647 l 603 644 l 442 654 q 425 640 431 647 l 421 628 q 436 604 425 615 q 460 582 447 593 q 483 558 472 571 q 499 531 494 546 l 511 247 l 504 82 q 471 44 488 60 q 426 17 454 28 l 422 10 l 394 6 l 303 60 q 268 129 282 89 l 264 592 q 254 614 258 603 q 243 635 250 625 l 229 642 l 47 654 l 28 642 l 21 633 l 21 619 l 90 531 l 117 160 l 167 67 l 249 6 q 267 1 253 4 q 297 -7 281 -3 q 326 -15 313 -11 q 340 -18 339 -18 l 864 -18 z "},"":{"ha":1213,"x_min":21,"x_max":1183,"o":"m 946 -12 l 926 -258 l 933 -265 q 953 -269 942 -268 q 974 -271 964 -271 l 1119 -271 l 1122 -262 q 1099 -248 1115 -253 q 1074 -235 1082 -243 l 1071 35 q 1060 46 1065 40 q 1047 51 1054 50 l 1043 76 l 1088 160 l 1114 531 l 1183 619 l 1183 633 l 1176 642 l 1157 654 l 975 642 l 961 635 q 950 614 954 625 q 940 592 946 603 l 936 129 q 901 60 922 89 l 810 6 l 782 10 l 778 17 q 733 44 750 28 q 700 82 717 60 l 693 247 l 706 531 q 721 558 710 546 q 744 582 732 571 q 768 604 757 593 q 783 628 779 615 l 779 640 q 763 654 774 647 l 603 644 l 442 654 q 425 640 431 647 l 421 628 q 436 604 425 615 q 460 582 447 593 q 483 558 472 571 q 499 531 494 546 l 511 247 l 504 82 q 471 44 488 60 q 426 17 454 28 l 422 10 l 394 6 l 303 60 q 268 129 282 89 l 264 592 q 254 614 258 603 q 243 635 250 625 l 229 642 l 47 654 l 28 642 l 21 633 l 21 619 l 90 531 l 117 160 l 167 67 l 249 6 q 267 1 253 4 q 297 -7 281 -3 q 326 -15 313 -11 q 340 -18 339 -18 l 864 -18 q 878 -15 865 -18 q 908 -7 892 -11 q 938 1 924 -3 q 956 6 951 4 l 958 7 l 946 -12 z "},"":{"ha":1014,"x_min":24,"x_max":990,"o":"m 538 6 q 610 1 574 4 q 719 -6 664 -6 q 808 1 761 -6 q 897 26 856 7 q 964 78 938 44 q 990 167 990 111 q 960 258 990 218 q 885 326 931 299 q 788 369 840 354 q 693 383 736 383 q 586 364 639 383 l 586 418 l 590 549 q 611 575 600 565 q 634 591 622 585 q 660 601 646 597 q 690 613 674 606 l 690 619 q 680 638 690 631 q 655 647 669 644 q 626 651 640 650 q 606 651 613 651 q 551 650 582 651 q 492 640 519 649 q 486 639 489 640 q 479 642 483 640 q 461 646 468 646 l 265 646 q 198 640 239 646 q 118 620 157 635 q 51 581 79 606 q 24 518 24 556 q 30 467 24 488 q 61 429 36 447 q 78 426 72 426 q 101 430 89 426 q 125 436 114 433 q 146 458 138 447 q 165 481 154 469 q 197 562 174 524 q 263 615 219 600 l 353 604 q 378 588 365 596 q 403 571 392 581 q 421 549 414 561 q 422 546 421 547 l 419 174 l 417 93 q 403 75 410 83 q 390 60 397 67 l 315 31 l 314 22 q 327 1 314 7 q 353 -4 340 -4 l 381 -4 q 397 -6 389 -6 q 422 -4 410 -6 l 486 -4 q 525 1 506 -4 q 538 6 531 3 m 872 243 q 860 189 872 225 q 828 117 847 153 q 785 53 808 81 q 743 26 763 26 q 616 58 656 26 q 576 174 576 89 q 580 244 576 214 q 585 315 583 275 q 649 335 617 322 q 714 347 682 347 q 769 343 740 347 q 820 328 797 339 q 858 296 843 317 q 872 243 872 275 z "},"":{"ha":1006,"x_min":18,"x_max":965,"o":"m 664 167 q 634 258 664 218 q 559 326 604 299 q 462 369 514 354 q 367 383 410 383 q 258 364 313 383 l 264 549 q 285 575 274 565 q 308 591 296 585 q 333 601 319 597 q 364 613 347 606 l 364 619 q 353 638 364 631 q 328 647 343 644 q 300 651 314 650 q 279 651 286 651 q 224 650 256 651 q 165 640 193 649 q 116 615 136 632 q 96 564 96 597 l 92 93 q 84 73 92 83 q 66 54 76 63 q 44 40 56 46 q 25 31 33 33 l 18 17 l 22 7 q 71 -6 44 -6 q 122 1 97 -6 q 172 7 147 7 q 283 1 228 7 q 393 -6 338 -6 q 482 1 435 -6 q 570 26 529 7 q 638 78 611 44 q 664 167 664 111 m 546 243 q 533 189 546 225 q 501 117 521 153 q 459 53 482 81 q 417 26 436 26 q 290 58 329 26 q 250 174 250 89 q 253 244 250 214 q 258 315 257 275 q 323 335 290 322 q 388 347 356 347 q 442 343 414 347 q 494 328 471 339 q 531 296 517 317 q 546 243 546 275 m 965 18 q 938 47 958 36 q 908 72 918 57 l 906 615 q 891 637 899 626 q 869 653 883 647 l 679 657 l 675 639 q 690 621 678 629 q 715 605 701 613 q 742 590 729 597 q 761 575 756 583 l 735 25 l 743 13 q 767 3 754 6 q 792 0 779 0 l 963 0 l 965 18 z "},"":{"ha":700,"x_min":18,"x_max":664,"o":"m 546 243 q 533 189 546 225 q 501 117 521 153 q 459 53 482 81 q 417 26 436 26 q 290 58 329 26 q 250 174 250 89 q 253 244 250 214 q 258 315 257 275 q 323 335 290 322 q 388 347 356 347 q 442 343 414 347 q 494 328 471 339 q 531 296 517 317 q 546 243 546 275 m 664 167 q 634 258 664 218 q 559 326 604 299 q 462 369 514 354 q 367 383 410 383 q 258 364 313 383 l 264 549 q 285 575 274 565 q 308 591 296 585 q 333 601 319 597 q 364 613 347 606 l 364 619 q 353 638 364 631 q 328 647 343 644 q 300 651 314 650 q 279 651 286 651 q 224 650 256 651 q 165 640 193 649 q 116 615 136 632 q 96 564 96 597 l 92 93 q 84 73 92 83 q 66 54 76 63 q 44 40 56 46 q 25 31 33 33 l 18 17 l 22 7 q 71 -6 44 -6 q 122 1 97 -6 q 172 7 147 7 q 283 1 228 7 q 393 -6 338 -6 q 482 1 435 -6 q 570 26 529 7 q 638 78 611 44 q 664 167 664 111 z "},"":{"ha":636,"x_min":18,"x_max":606,"o":"m 19 308 l 25 297 l 35 290 l 403 275 q 438 247 428 263 q 454 208 447 232 q 444 158 450 183 q 426 111 438 133 q 398 73 415 89 q 353 49 381 57 l 222 60 q 186 85 201 71 q 167 115 175 100 q 154 149 158 131 q 134 174 143 161 q 111 196 125 188 q 102 199 107 197 q 93 200 97 200 q 57 196 75 200 q 28 178 39 192 l 22 169 l 22 158 q 33 117 21 142 q 56 81 44 93 l 165 15 l 360 4 q 403 11 383 3 q 441 32 422 19 q 477 58 460 44 q 511 85 494 72 q 545 134 528 111 q 576 180 563 157 q 597 228 589 203 q 606 283 606 253 q 586 424 606 357 q 528 540 567 490 q 429 620 489 590 q 289 650 369 650 q 214 640 254 650 q 139 610 174 629 q 78 560 104 590 q 44 492 53 531 q 58 472 50 481 q 78 460 67 463 l 154 471 q 184 503 174 486 q 208 540 194 519 l 294 590 q 397 558 356 590 q 454 468 438 525 l 443 358 q 414 324 428 333 q 374 308 400 315 l 49 363 l 31 351 l 21 338 q 18 322 18 329 l 19 308 z "},"":{"ha":1061,"x_min":15,"x_max":1025,"o":"m 863 326 q 860 258 863 289 q 850 199 857 228 q 831 142 843 171 q 800 79 818 114 q 786 71 796 76 q 765 59 776 65 q 744 49 754 53 q 731 44 735 44 q 715 44 726 44 q 692 44 704 44 q 669 44 681 44 q 658 44 660 44 l 581 68 l 525 154 l 525 463 l 572 553 q 585 561 575 556 q 608 573 596 567 q 630 584 619 579 q 643 589 640 589 l 761 576 q 781 563 772 569 q 800 549 790 556 q 863 326 863 444 m 733 313 l 733 360 q 722 381 728 372 q 706 399 717 390 q 699 401 703 400 q 690 403 694 403 q 666 399 678 403 q 643 388 654 394 q 628 367 635 376 q 615 344 621 357 l 639 257 l 651 249 l 671 246 q 690 256 679 249 q 710 273 700 264 q 726 292 719 282 q 733 313 733 303 m 289 350 q 344 347 315 350 l 344 344 q 356 238 344 283 q 392 156 368 193 q 453 86 417 118 q 540 21 490 54 q 559 16 544 19 q 590 8 574 13 q 619 1 606 4 q 635 -1 632 -1 q 717 3 675 -1 q 800 10 760 7 q 892 71 850 44 q 963 127 933 97 q 1008 196 992 157 q 1025 296 1025 235 q 966 516 1025 426 q 785 651 907 606 l 572 647 l 407 533 q 360 446 374 493 q 346 381 350 414 l 247 382 l 246 615 q 231 637 239 626 q 210 653 224 647 l 19 657 l 15 639 q 30 621 18 629 q 56 605 42 613 q 83 590 69 597 q 101 575 96 583 l 92 385 l 81 385 q 49 372 63 381 q 33 343 38 361 q 28 310 28 325 q 40 281 32 293 q 64 265 51 271 q 86 257 74 260 l 75 25 l 83 13 q 107 3 94 6 q 132 0 119 0 l 303 0 l 306 18 q 278 47 299 36 q 249 72 258 57 l 247 350 l 289 350 z "},"":{"ha":613,"x_min":-62,"x_max":572,"o":"m -61 28 l 96 39 q 140 72 121 50 q 177 122 160 94 q 213 177 194 149 q 251 231 231 206 q 296 275 271 257 q 354 300 321 293 q 390 278 374 293 q 408 242 406 264 q 413 146 411 196 q 416 46 414 96 q 422 -53 418 -4 q 435 -149 426 -103 q 449 -205 439 -172 q 473 -272 460 -237 q 500 -339 486 -306 q 525 -394 514 -372 l 532 -399 l 540 -394 l 546 -387 l 535 596 l 572 661 q 515 672 549 672 q 458 665 488 672 q 410 636 429 657 q 347 648 383 642 q 275 660 310 654 q 215 669 240 665 q 185 672 189 672 l 104 646 q 94 628 99 636 q 85 611 89 621 q 99 549 86 578 q 128 492 111 519 q 163 437 144 464 q 193 381 181 410 q 190 356 193 374 q 185 335 188 339 q 96 212 140 274 q 4 92 51 150 q -11 77 -1 83 q -31 65 -21 71 q -50 51 -42 58 q -62 36 -58 44 l -61 28 m 214 476 q 230 538 217 513 q 274 586 243 564 q 315 601 290 599 q 361 603 339 604 q 399 600 383 603 q 415 597 415 597 l 382 385 q 370 369 381 378 q 354 357 360 360 l 331 356 q 297 362 318 354 q 264 376 275 369 q 246 396 256 388 q 225 411 236 404 q 222 422 225 413 q 217 448 219 432 q 214 476 214 464 z "},"":{"ha":607,"x_min":18,"x_max":567,"o":"m 567 42 l 558 82 q 550 100 556 85 q 538 134 544 115 q 524 170 531 153 q 514 194 517 188 l 335 618 q 324 633 332 625 q 310 644 315 642 l 47 656 q 37 651 42 653 q 26 644 32 649 l 22 636 l 29 622 q 84 615 67 617 q 113 608 101 613 q 137 598 125 604 q 175 578 149 592 q 195 547 188 564 q 215 514 203 529 q 224 486 219 503 q 229 458 229 469 q 214 405 229 425 q 176 370 199 385 q 128 343 153 356 q 82 310 103 331 l 38 -176 l 29 -189 q 24 -213 26 -201 q 18 -236 22 -225 l 19 -247 l 29 -256 q 46 -258 36 -257 q 63 -260 56 -260 q 84 -258 72 -260 q 106 -254 96 -257 q 129 -231 121 -243 q 149 -207 138 -219 q 160 -157 156 -183 q 171 -104 165 -131 q 185 -53 176 -78 q 206 -7 193 -28 l 213 -1 l 532 8 q 552 21 544 15 q 567 42 560 26 m 365 86 q 352 66 358 72 q 331 53 346 60 l 264 53 q 241 55 253 53 q 219 64 229 57 l 211 75 l 215 313 q 223 329 217 321 q 235 343 229 338 l 250 346 l 261 343 q 287 299 269 335 q 321 219 304 263 q 351 138 338 176 q 365 86 364 99 z "},"":{"ha":708,"x_min":18,"x_max":664,"o":"m 546 243 q 533 189 546 225 q 501 117 521 153 q 459 53 482 81 q 417 26 436 26 q 290 58 329 26 q 250 174 250 89 q 253 244 250 214 q 258 315 257 275 q 323 335 290 322 q 388 347 356 347 q 442 343 414 347 q 494 328 471 339 q 531 296 517 317 q 546 243 546 275 m 260 389 l 264 549 q 285 575 274 565 q 308 591 296 585 q 333 601 319 597 q 364 613 347 606 l 421 619 q 487 565 464 603 q 518 485 510 528 q 538 463 529 474 q 558 440 546 451 q 606 431 585 431 q 622 433 611 431 q 660 506 660 460 q 634 578 660 550 q 570 623 608 607 q 489 644 532 639 q 413 650 446 650 l 310 650 q 300 651 304 650 l 279 651 q 225 650 256 651 l 218 650 q 165 640 190 647 q 161 639 163 640 q 150 640 156 639 q 117 650 136 640 l 47 650 l 25 639 l 22 629 l 28 615 q 71 593 50 608 q 96 553 90 576 l 92 93 q 84 73 92 83 q 66 54 76 63 q 44 40 56 46 q 25 31 33 33 l 18 17 l 22 7 q 71 -6 44 -6 q 122 1 97 -6 q 154 6 139 4 l 160 6 q 197 0 178 0 l 289 0 q 393 -6 340 -6 q 482 1 435 -6 q 570 26 529 7 q 638 78 611 44 q 664 167 664 111 q 634 258 664 218 q 559 326 604 299 q 462 369 514 354 q 367 383 410 383 q 260 364 313 383 l 260 389 z "},"":{"ha":647,"x_min":17,"x_max":596,"o":"m 596 210 q 581 248 596 225 q 538 298 565 271 q 473 355 510 325 q 394 415 436 385 l 532 567 l 526 610 l 446 644 q 443 646 444 644 l 440 646 l 419 656 l 418 656 l 360 669 l 358 669 l 261 675 l 257 674 l 133 679 q 78 663 107 668 q 28 639 50 657 l 24 631 l 31 615 q 51 606 39 613 q 73 592 63 600 q 91 573 83 583 q 99 553 99 563 l 101 104 q 92 81 101 93 q 68 58 82 69 q 40 37 54 47 q 17 18 25 26 l 24 10 q 43 1 32 3 q 64 0 54 0 l 468 0 q 493 8 478 0 q 515 21 508 15 q 560 58 544 39 q 583 100 576 78 q 592 149 590 122 q 596 210 593 176 m 399 594 q 383 552 392 576 q 363 504 374 528 q 342 459 353 481 q 318 425 331 438 l 289 444 l 283 567 l 286 608 l 358 607 l 399 594 m 394 415 l 394 414 l 394 415 m 431 189 q 427 153 431 171 q 419 119 424 136 q 403 101 408 108 q 394 88 399 93 q 382 78 390 82 q 356 68 374 74 q 324 72 340 68 q 296 90 307 75 l 292 296 q 306 306 299 301 q 319 314 313 310 q 401 274 371 307 q 431 189 431 242 z "},"":{"ha":688,"x_min":22,"x_max":660,"o":"m 660 506 q 634 578 660 550 q 570 623 608 607 q 489 644 532 639 q 413 650 446 650 l 222 650 q 204 646 215 650 q 186 639 193 642 q 150 640 164 639 q 117 650 136 640 l 47 650 l 25 639 l 22 629 l 28 615 q 70 592 50 608 q 96 553 90 576 l 100 82 q 113 52 107 67 q 126 22 118 38 q 159 5 140 10 q 197 0 178 0 l 331 0 q 356 6 343 0 q 369 26 369 11 l 368 33 l 293 63 q 280 79 286 71 q 267 97 274 88 l 256 522 q 263 553 256 540 q 281 575 269 565 q 305 592 292 585 q 331 608 318 600 l 421 619 q 487 565 464 603 q 518 485 510 528 q 538 463 529 474 q 558 440 546 451 q 606 431 585 431 q 622 433 611 431 q 660 506 660 460 z "},"":{"ha":650,"x_min":-28,"x_max":639,"o":"m 365 86 q 352 66 358 72 q 331 53 346 60 l 264 53 q 241 55 253 53 q 219 64 229 57 l 211 75 l 215 313 q 223 329 217 321 q 235 343 229 338 l 250 346 l 261 343 q 287 299 269 335 q 321 219 304 263 q 351 138 338 176 q 365 86 364 99 m 160 -160 q 161 -157 160 -158 q 171 -104 165 -131 q 185 -53 176 -78 q 206 -7 193 -28 l 213 -1 l 464 7 l 443 -258 l 450 -265 q 469 -269 458 -268 q 490 -271 481 -271 l 636 -271 l 639 -262 q 615 -248 632 -253 q 590 -235 599 -243 l 588 35 q 576 46 582 40 q 564 51 571 50 l 558 82 q 550 100 556 85 q 538 134 544 115 q 524 170 531 153 q 514 194 517 188 l 335 618 q 324 633 332 625 q 310 644 315 642 l 47 656 q 37 651 42 653 q 26 644 32 649 l 22 636 l 29 622 q 84 615 67 617 q 113 608 101 613 q 137 598 125 604 q 175 578 149 592 q 195 547 188 564 q 215 514 203 529 q 224 486 219 503 q 229 458 229 469 q 214 405 229 425 q 176 370 199 385 q 128 343 153 356 q 82 310 103 331 l 58 54 l 54 54 q 35 46 42 51 q 24 35 29 40 l 21 -228 q 18 -236 19 -232 l 18 -237 q -4 -247 10 -244 q -28 -262 -22 -253 l -25 -271 l 119 -271 q 141 -269 131 -271 q 161 -265 151 -268 l 168 -258 l 160 -160 z "},"":{"ha":636,"x_min":18,"x_max":606,"o":"m 606 322 q 603 338 606 329 l 593 351 l 575 363 l 250 308 q 210 324 224 315 q 181 358 196 333 l 169 468 q 227 558 186 525 q 329 590 268 590 l 415 540 q 440 503 429 519 q 469 471 450 486 l 546 460 q 565 472 557 463 q 579 492 574 481 q 545 560 571 531 q 485 610 519 590 q 410 640 450 629 q 335 650 369 650 q 194 620 254 650 q 96 540 135 590 q 38 424 57 490 q 18 283 18 357 q 26 228 18 253 q 48 180 35 203 q 78 134 61 157 q 113 85 96 111 q 147 58 129 72 q 183 32 164 44 q 221 11 201 19 q 264 4 240 3 l 458 15 l 568 81 q 591 117 579 93 q 601 158 603 142 l 601 169 l 596 178 q 567 196 585 192 q 531 200 549 200 q 522 199 526 200 q 513 196 517 197 q 490 174 499 188 q 469 149 481 161 q 457 115 465 131 q 438 85 449 100 q 401 60 422 71 l 271 49 q 226 73 243 57 q 197 111 208 89 q 180 158 186 133 q 169 208 174 183 q 186 247 176 232 q 221 275 196 263 l 589 290 l 599 297 l 604 308 l 606 322 z "},"":{"ha":1104,"x_min":21,"x_max":1076,"o":"m 468 -417 l 475 -425 l 482 -428 l 489 -424 q 549 -401 500 -401 q 608 -424 597 -401 l 615 -428 l 622 -425 l 629 -417 l 621 244 q 625 249 622 246 q 660 269 640 263 q 742 226 710 261 q 802 148 775 190 q 856 66 829 106 q 918 10 882 26 l 1076 -1 l 1076 7 q 1064 22 1072 15 q 1045 35 1056 29 q 1025 48 1035 42 q 1010 63 1015 54 q 918 183 963 121 q 829 304 874 244 q 824 327 826 310 q 821 351 822 344 q 851 408 833 381 q 886 463 869 435 q 915 519 903 490 q 929 582 928 549 q 920 599 925 592 q 910 615 915 607 l 829 643 q 809 636 819 642 q 792 624 799 631 l 838 474 l 799 382 q 778 366 788 374 q 760 347 768 358 q 726 333 747 340 q 692 326 706 325 l 668 328 q 653 340 663 331 q 642 356 643 349 l 617 532 l 617 567 l 656 632 q 628 641 642 639 q 599 643 614 643 q 549 638 574 643 q 499 643 524 643 q 469 641 483 643 q 442 632 456 639 l 481 567 l 481 532 l 456 356 q 444 340 454 349 q 429 328 435 331 l 406 326 q 371 333 392 325 q 338 347 350 340 q 319 366 329 358 q 299 382 310 374 l 260 474 l 306 624 q 288 636 299 631 q 268 643 278 642 l 188 615 q 177 599 182 607 q 168 582 172 592 q 182 519 169 549 q 211 463 194 490 q 246 408 228 435 q 276 351 264 381 q 273 327 275 344 q 268 304 271 310 q 179 183 224 244 q 88 63 135 121 q 72 48 82 54 q 52 35 63 42 q 33 22 42 29 q 21 7 25 15 l 21 -1 l 179 10 q 242 66 215 26 q 295 148 268 106 q 355 226 322 190 q 438 269 388 261 q 474 249 457 263 q 476 244 475 246 l 468 -417 z "},"":{"ha":694,"x_min":38,"x_max":622,"o":"m 604 283 q 583 306 597 297 q 569 322 569 314 q 579 344 568 335 q 597 368 590 354 q 606 473 622 422 q 545 563 589 524 q 438 626 501 603 q 306 650 374 650 q 230 640 269 650 q 156 610 190 629 q 95 560 121 590 q 61 492 69 531 q 75 472 67 481 q 94 460 83 463 l 171 471 q 201 503 190 486 q 225 540 211 519 l 311 590 q 413 558 372 590 q 471 468 454 525 l 460 386 q 431 352 444 361 q 392 336 418 343 l 147 353 l 131 342 l 119 328 q 117 314 117 319 l 118 299 l 125 288 l 135 281 l 419 303 q 454 275 444 290 q 471 235 464 260 q 460 181 467 210 q 443 125 454 151 q 414 78 432 99 q 369 49 396 57 l 239 60 q 203 85 218 71 q 171 149 181 117 q 151 174 160 161 q 128 196 142 188 q 119 199 124 197 q 110 200 114 200 q 74 196 92 200 q 44 178 56 192 l 39 169 l 39 158 q 49 117 38 142 q 72 81 61 93 l 182 15 l 376 4 q 420 11 400 3 q 458 32 440 19 q 494 58 476 44 q 528 85 511 72 q 565 135 544 111 q 599 184 585 160 q 617 233 614 208 q 604 283 621 257 z "},"":{"ha":860,"x_min":29,"x_max":828,"o":"m 226 13 q 259 44 251 28 q 269 78 267 61 q 277 114 272 96 q 301 151 282 132 l 567 393 q 581 388 576 390 q 593 382 585 385 l 607 369 q 612 356 610 363 q 613 344 614 350 l 593 60 q 574 38 586 49 q 560 13 563 28 l 561 6 l 567 0 l 686 0 q 715 3 700 0 q 742 13 729 6 l 754 24 l 778 544 q 786 562 778 553 q 804 581 794 571 q 821 603 814 592 q 828 625 828 614 l 822 638 q 774 645 799 642 q 726 649 750 649 q 663 643 685 649 q 631 622 642 638 q 618 581 621 607 q 610 517 615 556 q 553 445 593 486 q 467 363 514 404 q 374 283 419 321 q 299 224 328 246 q 282 226 286 228 q 276 226 278 225 q 272 233 274 226 q 261 256 269 239 l 286 564 q 315 591 297 581 q 342 619 332 601 l 344 631 l 336 640 l 318 649 l 154 644 q 133 630 140 640 q 118 608 125 619 l 89 60 l 29 13 l 226 13 z "},"":{"ha":854,"x_min":29,"x_max":828,"o":"m 226 13 q 259 44 251 28 q 269 78 267 61 q 277 114 272 96 q 301 151 282 132 l 567 393 q 581 388 576 390 q 593 382 585 385 l 607 369 q 612 356 610 363 q 613 344 614 350 l 593 60 q 574 38 586 49 q 560 13 563 28 l 561 6 l 567 0 l 686 0 q 715 3 700 0 q 742 13 729 6 l 754 24 l 778 544 q 786 562 778 553 q 804 581 794 571 q 821 603 814 592 q 828 625 828 614 l 822 638 q 774 645 799 642 q 726 649 750 649 q 663 643 685 649 q 631 622 642 638 q 618 581 621 607 q 610 517 615 556 q 553 445 593 486 q 467 363 514 404 q 374 283 419 321 q 299 224 328 246 q 282 226 286 228 q 276 226 278 225 q 272 233 274 226 q 261 256 269 239 l 286 564 q 315 591 297 581 q 342 619 332 601 l 344 631 l 336 640 l 318 649 l 154 644 q 133 630 140 640 q 118 608 125 619 l 89 60 l 29 13 l 226 13 m 719 797 q 708 814 715 807 l 272 821 q 240 808 254 817 q 224 779 229 797 q 219 746 219 761 q 232 717 224 729 q 255 701 243 707 q 282 693 267 694 q 310 704 296 694 l 346 769 q 361 777 350 774 q 385 783 372 781 q 410 785 399 785 q 429 786 422 786 l 481 786 q 547 783 513 786 q 613 775 581 779 l 614 775 q 617 760 614 771 q 627 738 621 750 q 642 717 633 726 q 658 704 650 707 q 685 710 672 707 q 708 721 697 714 q 719 758 718 736 q 719 797 719 779 z "},"":{"ha":611,"x_min":21,"x_max":656,"o":"m 656 7 q 643 22 651 15 q 624 35 635 29 q 604 48 614 42 q 589 63 594 54 q 497 183 542 121 q 408 304 453 244 q 403 327 406 310 q 400 351 401 344 q 431 408 413 381 q 465 463 449 435 q 494 519 482 490 q 508 582 507 549 q 499 599 504 592 q 489 615 494 607 l 408 643 q 388 636 399 642 q 371 624 378 631 l 417 474 l 378 382 q 357 366 367 374 q 339 347 347 358 q 306 333 326 340 q 271 326 285 325 l 247 328 q 232 340 242 331 q 221 356 222 349 l 186 604 q 136 635 165 628 q 78 643 107 643 q 49 641 63 643 q 21 632 35 639 l 60 567 l 47 -417 l 54 -425 l 61 -428 l 68 -424 q 94 -368 79 -401 q 122 -301 108 -335 q 144 -234 135 -267 q 158 -178 154 -201 q 171 -83 167 -132 q 177 17 175 -33 q 181 117 179 67 q 186 213 183 167 q 203 248 188 233 q 239 269 219 263 q 322 226 289 261 q 381 148 354 190 q 435 66 408 106 q 497 10 461 26 l 656 -1 l 656 7 z "},"":{"ha":607,"x_min":18,"x_max":567,"o":"m 215 313 q 223 329 217 321 q 235 343 229 338 l 250 346 l 261 343 q 287 299 269 335 q 321 219 304 263 q 351 138 338 176 q 365 86 364 99 l 388 4 l 532 8 q 552 21 544 15 q 567 42 560 26 l 558 82 q 550 100 556 85 q 538 134 544 115 q 524 170 531 153 q 514 194 517 188 l 335 618 q 324 633 332 625 q 310 644 315 642 l 47 656 q 37 651 42 653 q 26 644 32 649 l 22 636 l 29 622 q 84 615 67 617 q 113 608 101 613 q 137 598 125 604 q 175 578 149 592 q 195 547 188 564 q 215 514 203 529 q 224 486 219 503 q 229 458 229 469 q 214 405 229 425 q 176 370 199 385 q 128 343 153 356 q 82 310 103 331 l 38 -176 l 29 -189 q 24 -213 26 -201 q 18 -236 22 -225 l 19 -247 l 29 -256 q 46 -258 36 -257 q 63 -260 56 -260 q 84 -258 72 -260 q 106 -254 96 -257 q 129 -231 121 -243 q 149 -207 138 -219 q 160 -157 156 -183 q 171 -104 165 -131 q 185 -53 176 -78 q 215 313 193 -28 z "},"":{"ha":904,"x_min":21,"x_max":861,"o":"m 861 -7 l 807 60 l 779 615 q 765 638 772 628 q 743 653 758 649 l 576 657 l 571 649 l 571 640 q 589 608 576 622 q 604 575 601 594 q 580 527 590 550 q 556 487 569 504 q 524 459 543 469 q 475 449 506 449 q 452 450 464 449 q 429 454 440 451 l 308 524 q 293 554 301 536 q 275 590 285 572 q 253 622 265 607 q 228 644 242 636 l 21 644 q 72 618 47 635 q 110 575 97 601 l 135 25 l 146 13 q 173 3 158 6 q 203 0 188 0 l 325 0 l 329 6 l 331 13 q 317 38 328 25 q 296 60 306 51 l 268 374 q 269 387 267 381 q 274 399 271 393 l 288 411 q 305 417 296 414 q 325 422 314 419 q 385 405 356 413 q 446 389 415 397 l 568 442 q 588 442 578 442 q 608 439 597 442 q 621 423 614 432 q 628 406 628 414 l 633 65 q 644 35 640 50 q 657 6 649 19 l 671 -7 l 861 -7 z "},"":{"ha":767,"x_min":15,"x_max":736,"o":"m 256 338 q 265 342 260 339 q 290 347 276 344 q 315 349 303 349 q 333 350 326 350 l 385 350 q 451 347 417 350 q 517 339 485 343 l 518 339 q 519 329 518 336 l 506 25 l 514 13 q 538 3 525 6 q 563 0 550 0 l 733 0 l 736 18 q 718 51 729 36 q 696 82 707 65 l 676 615 q 662 637 669 626 q 640 653 654 647 l 450 657 l 446 639 q 460 621 449 629 q 486 605 472 613 q 513 590 500 597 q 532 575 526 583 l 522 379 l 254 383 l 246 615 q 231 637 239 626 q 210 653 224 647 l 19 657 l 15 639 q 30 621 18 629 q 56 605 42 613 q 83 590 69 597 q 101 575 96 583 l 75 25 l 83 13 q 107 3 94 6 q 132 0 119 0 l 303 0 l 306 18 q 288 51 299 36 q 265 82 276 65 l 256 338 z "},"":{"ha":786,"x_min":33,"x_max":714,"o":"m 714 296 q 655 516 714 426 q 474 651 596 606 l 261 647 l 96 533 q 48 445 63 493 q 33 344 33 397 q 45 238 33 283 q 81 156 57 193 q 142 86 106 118 q 229 21 179 54 q 248 16 233 19 q 278 8 263 13 q 308 1 294 4 q 324 -1 321 -1 q 406 3 364 -1 q 489 10 449 7 q 581 71 539 44 q 651 127 622 97 q 697 196 681 157 q 714 296 714 235 m 551 326 q 549 258 551 289 q 539 199 546 228 q 519 142 532 171 q 489 79 507 114 q 475 71 485 76 q 454 59 465 65 q 433 49 443 53 q 419 44 424 44 q 404 44 415 44 q 381 44 393 44 q 358 44 369 44 q 347 44 349 44 l 269 68 l 214 154 l 214 463 l 261 553 q 274 561 264 556 q 297 573 285 567 q 319 584 308 579 q 332 589 329 589 l 450 576 q 470 563 461 569 q 489 549 479 556 q 551 326 551 444 m 422 313 l 422 360 q 411 381 417 372 q 394 399 406 390 q 388 401 392 400 q 379 403 383 403 q 355 399 367 403 q 332 388 343 394 q 317 367 324 376 q 304 344 310 357 l 328 257 l 340 249 l 360 246 q 378 256 368 249 q 399 273 389 264 q 415 292 408 282 q 422 313 422 303 z "},"":{"ha":767,"x_min":15,"x_max":736,"o":"m 256 611 q 265 615 260 613 q 290 620 276 618 q 315 623 303 622 q 333 624 326 624 l 385 624 q 451 620 417 624 q 517 613 485 617 l 518 613 q 519 603 518 610 l 506 25 l 514 13 q 538 3 525 6 q 563 0 550 0 l 733 0 l 736 18 q 718 51 729 36 q 696 82 707 65 l 676 615 q 662 637 669 626 q 640 653 654 647 l 19 657 l 15 639 q 30 621 18 629 q 56 605 42 613 q 83 590 69 597 q 101 575 96 583 l 75 25 l 83 13 q 107 3 94 6 q 132 0 119 0 l 303 0 l 306 18 q 288 51 299 36 q 265 82 276 65 l 256 611 z "},"":{"ha":708,"x_min":18,"x_max":664,"o":"m 664 479 q 638 568 664 535 q 570 620 611 601 q 482 645 529 639 q 393 651 435 651 q 283 645 338 651 q 172 639 228 639 q 122 645 147 639 q 71 651 97 651 q 22 639 44 651 l 18 629 l 25 615 q 44 606 33 613 q 66 592 56 600 q 84 573 76 583 q 92 553 92 563 l 96 82 q 116 31 96 49 q 165 6 136 14 q 224 -4 193 -3 q 279 -6 256 -6 q 300 -5 286 -6 q 328 -1 314 -4 q 353 8 343 1 q 364 26 364 15 l 364 33 q 333 44 347 40 q 308 55 319 49 q 285 71 296 61 q 264 97 274 81 l 258 282 q 367 263 313 263 q 462 277 410 263 q 559 319 514 292 q 634 388 604 347 q 664 479 664 428 m 546 403 q 531 350 546 371 q 494 318 517 329 q 442 303 471 307 q 388 299 414 299 q 323 311 356 299 q 258 331 290 324 q 253 401 257 371 q 250 472 250 432 q 290 588 250 557 q 417 619 329 619 q 459 592 436 619 q 501 529 482 565 q 533 457 521 493 q 546 403 546 421 z "},"":{"ha":626,"x_min":19,"x_max":606,"o":"m 604 158 l 604 169 l 599 178 q 568 196 586 192 q 533 200 550 200 q 524 199 529 200 q 514 196 518 197 q 491 174 500 188 q 472 149 482 161 q 440 85 463 117 q 403 60 421 69 l 274 49 q 228 73 246 57 q 200 111 211 89 q 183 158 189 133 q 172 208 176 183 q 185 264 179 236 q 190 319 190 292 q 183 394 190 357 q 172 468 176 431 q 229 558 188 525 q 331 590 271 590 l 418 540 q 442 503 432 519 q 472 471 451 486 l 547 460 q 567 472 560 463 q 581 492 575 481 q 548 560 574 531 q 488 610 522 590 q 413 640 453 629 q 338 650 372 650 q 197 620 257 650 q 98 540 138 590 q 39 424 58 490 q 19 283 19 357 q 28 228 19 253 q 50 180 36 203 q 81 134 64 157 q 114 85 97 111 q 149 58 132 72 q 185 32 167 44 q 223 11 203 19 q 267 4 243 3 l 461 15 l 569 81 q 593 117 581 93 q 604 158 606 142 z "},"":{"ha":824,"x_min":22,"x_max":801,"o":"m 801 628 l 782 653 l 104 664 q 67 652 82 664 q 42 622 51 640 q 27 583 32 604 q 22 546 22 563 q 32 513 22 528 q 56 488 42 499 q 88 472 71 478 q 119 465 104 467 q 142 472 131 468 q 164 483 153 476 q 186 528 176 507 q 207 567 196 550 q 234 597 218 583 q 275 617 250 610 l 289 615 q 310 602 300 611 q 329 586 319 593 l 357 19 l 364 8 q 384 -1 372 1 q 407 -1 396 -3 l 568 8 l 501 75 l 513 561 q 514 571 513 564 q 517 581 515 578 q 537 603 524 594 q 563 617 550 611 l 579 615 q 599 602 590 611 q 619 586 608 593 q 638 557 626 571 q 653 524 649 543 q 682 499 664 508 q 718 486 700 489 q 749 499 736 488 q 775 519 763 510 q 794 572 790 544 q 801 628 797 600 z "},"":{"ha":714,"x_min":14,"x_max":651,"o":"m 651 618 q 638 636 644 628 q 621 649 632 644 l 454 653 l 458 638 q 481 609 471 621 q 497 585 490 597 q 506 558 503 572 q 508 521 508 543 q 483 408 508 456 q 419 307 458 360 q 400 299 413 304 q 381 294 388 294 q 359 295 369 294 q 338 301 349 296 q 310 370 328 321 q 273 474 293 419 q 234 574 253 528 q 203 635 215 619 l 190 642 l 50 653 q 37 650 43 653 q 25 644 31 647 q 14 621 15 633 q 22 609 14 621 q 40 579 29 597 q 63 540 50 561 q 85 503 75 519 q 138 408 113 456 q 184 316 163 360 q 224 235 206 272 q 258 174 243 199 l 263 -350 l 268 -358 q 293 -369 279 -367 l 304 -364 q 324 -326 319 -349 q 333 -282 328 -303 q 377 -173 368 -233 q 386 -54 386 -112 l 385 188 l 597 417 q 615 447 608 431 q 635 475 622 463 l 651 618 z "},"":{"ha":1011,"x_min":18,"x_max":993,"o":"m 136 403 q 149 457 136 421 q 181 529 161 493 q 223 592 200 565 q 265 619 246 619 q 392 588 353 619 q 432 472 432 557 q 428 401 432 432 q 424 331 425 371 q 359 311 392 324 q 294 299 326 299 q 240 303 268 299 q 188 318 211 307 q 151 350 165 329 q 136 403 136 371 m 875 403 q 860 350 875 371 q 823 318 846 329 q 772 303 800 307 q 717 299 743 299 q 652 311 685 299 q 588 331 619 324 q 583 401 586 371 q 579 472 579 432 q 619 588 579 557 q 746 619 658 619 q 788 592 765 619 q 831 529 811 565 q 863 457 850 493 q 875 403 875 421 m 424 272 l 418 97 q 397 71 408 81 q 374 55 386 61 q 349 44 363 49 q 318 33 335 40 l 318 26 q 328 8 318 15 q 353 -1 339 1 q 382 -5 368 -4 q 403 -6 396 -6 q 458 -4 426 -6 q 506 3 482 -3 q 554 -4 529 -3 q 608 -6 585 -6 q 629 -5 615 -6 q 658 -1 643 -4 q 683 8 672 1 q 693 26 693 15 l 693 33 q 663 44 676 40 q 637 55 649 49 q 614 71 625 61 q 593 97 603 81 l 588 272 l 588 282 q 696 263 642 263 q 791 277 739 263 q 888 319 843 292 q 963 388 933 347 q 993 479 993 428 q 967 568 993 535 q 899 620 940 601 q 811 645 858 639 q 722 651 764 651 q 639 647 681 651 q 611 651 625 651 q 560 646 585 651 q 517 639 538 640 l 494 639 q 451 646 474 640 q 400 651 426 651 q 372 647 386 651 q 289 651 331 651 q 200 645 247 651 q 112 620 153 639 q 44 568 71 601 q 18 479 18 535 q 48 388 18 428 q 123 319 78 347 q 220 277 168 292 q 315 263 272 263 q 424 282 369 263 l 424 272 z "},"":{"ha":843,"x_min":21,"x_max":806,"o":"m 806 14 q 781 40 804 19 q 722 93 757 61 q 647 164 688 125 q 573 244 607 203 q 517 326 539 286 q 494 401 494 367 q 496 428 494 415 q 503 456 497 442 q 610 548 554 514 q 739 608 667 582 l 746 619 l 747 632 l 744 644 q 696 660 721 656 q 646 666 671 665 q 595 666 621 667 q 543 665 569 665 q 523 659 532 665 q 507 646 514 653 q 504 639 506 643 q 503 631 503 635 q 506 601 503 615 q 510 574 510 588 q 506 547 510 558 q 496 519 501 535 q 467 494 488 507 q 432 482 447 481 q 397 498 413 485 q 374 528 382 511 q 371 540 372 533 q 369 551 369 546 q 370 583 369 572 q 369 601 371 593 q 365 619 368 610 q 351 646 361 628 l 108 665 q 82 646 96 654 q 53 629 68 638 l 60 611 q 81 594 68 600 q 107 584 93 589 q 134 574 121 579 q 158 560 147 569 q 208 506 183 538 q 258 439 233 474 q 307 369 283 404 q 351 307 331 335 l 133 74 l 36 31 q 29 19 33 24 q 21 10 25 14 l 28 -1 q 52 -8 39 -7 q 76 -10 65 -10 l 269 -10 q 297 -4 282 -10 q 311 18 313 1 l 310 25 l 265 94 l 306 192 q 327 207 313 197 q 357 226 342 217 q 386 242 372 235 q 407 251 400 250 q 427 219 411 244 q 460 167 443 194 q 490 117 476 140 q 503 89 503 93 l 503 76 q 484 47 499 60 q 463 18 469 35 q 474 6 469 11 q 486 -6 479 0 l 776 -10 q 791 -5 783 -10 q 804 4 799 0 l 806 14 z "},"":{"ha":803,"x_min":19,"x_max":831,"o":"m 779 35 q 768 46 774 40 q 756 51 763 50 l 751 76 l 722 54 q 699 82 711 67 l 679 592 q 671 614 675 603 q 658 635 667 625 l 644 642 l 442 654 q 424 640 431 647 l 421 628 q 436 604 425 615 q 460 582 447 593 q 483 558 472 571 q 499 531 494 546 l 518 67 q 508 45 513 56 q 496 25 504 35 l 483 17 l 394 6 l 301 60 q 282 92 290 75 q 267 129 274 110 l 264 592 q 253 614 257 603 q 242 635 250 625 l 229 642 l 47 654 l 28 642 l 21 633 l 19 619 l 90 531 l 117 160 l 167 67 l 249 6 q 267 1 253 4 q 296 -7 281 -3 q 324 -15 311 -11 q 340 -18 338 -18 l 654 -18 l 635 -258 l 642 -265 q 661 -269 650 -268 q 682 -271 672 -271 l 828 -271 l 831 -262 q 807 -248 824 -253 q 782 -235 790 -243 l 779 -6 l 781 -6 l 785 3 l 779 11 l 779 35 z "},"":{"ha":803,"x_min":19,"x_max":785,"o":"m 260 600 q 254 614 256 607 q 242 635 250 625 l 229 642 l 47 654 l 28 642 l 21 633 l 19 619 l 89 532 l 93 478 l 97 424 l 99 424 l 101 381 l 154 288 l 242 226 q 262 222 247 225 q 292 214 276 218 q 323 206 308 210 q 340 203 338 203 l 513 203 l 518 67 q 508 46 513 56 q 506 39 507 42 l 506 -18 l 757 -18 q 769 -12 764 -15 q 781 -6 775 -8 l 785 3 l 776 17 q 732 44 749 28 q 699 82 715 60 l 679 592 q 671 614 675 603 q 658 635 667 625 l 644 642 l 442 654 q 424 640 431 647 l 421 628 q 436 604 425 615 q 460 582 447 593 q 483 558 472 571 q 499 531 494 546 l 510 250 q 507 246 508 249 l 493 238 l 399 226 l 299 281 q 278 313 286 296 q 261 350 269 331 l 261 381 l 265 379 l 264 592 q 260 599 261 596 l 260 600 z "},"":{"ha":1213,"x_min":21,"x_max":1183,"o":"m 864 -18 q 878 -15 865 -18 q 908 -7 892 -11 q 938 1 924 -3 q 956 6 951 4 l 1038 67 l 1088 160 l 1114 531 l 1183 619 l 1183 633 l 1176 642 l 1157 654 l 975 642 l 961 635 q 950 614 954 625 q 940 592 946 603 l 936 129 q 901 60 922 89 l 810 6 l 782 10 l 778 17 q 733 44 750 28 q 700 82 717 60 l 693 247 l 706 531 q 721 558 710 546 q 744 582 732 571 q 768 604 757 593 q 783 628 779 615 l 779 640 q 763 654 774 647 l 603 644 l 442 654 q 425 640 431 647 l 421 628 q 436 604 425 615 q 460 582 447 593 q 483 558 472 571 q 499 531 494 546 l 511 247 l 504 82 q 471 44 488 60 q 426 17 454 28 l 422 10 l 394 6 l 303 60 q 268 129 282 89 l 264 592 q 254 614 258 603 q 243 635 250 625 l 229 642 l 47 654 l 28 642 l 21 633 l 21 619 l 90 531 l 117 160 l 167 67 l 249 6 q 267 1 253 4 q 297 -7 281 -3 q 326 -15 313 -11 q 340 -18 339 -18 l 864 -18 z "},"":{"ha":1213,"x_min":21,"x_max":1183,"o":"m 946 -12 l 926 -258 l 933 -265 q 953 -269 942 -268 q 974 -271 964 -271 l 1119 -271 l 1122 -262 q 1099 -248 1115 -253 q 1074 -235 1082 -243 l 1071 35 q 1060 46 1065 40 q 1047 51 1054 50 l 1043 76 l 1088 160 l 1114 531 l 1183 619 l 1183 633 l 1176 642 l 1157 654 l 975 642 l 961 635 q 950 614 954 625 q 940 592 946 603 l 936 129 q 901 60 922 89 l 810 6 l 782 10 l 778 17 q 733 44 750 28 q 700 82 717 60 l 693 247 l 706 531 q 721 558 710 546 q 744 582 732 571 q 768 604 757 593 q 783 628 779 615 l 779 640 q 763 654 774 647 l 603 644 l 442 654 q 425 640 431 647 l 421 628 q 436 604 425 615 q 460 582 447 593 q 483 558 472 571 q 499 531 494 546 l 511 247 l 504 82 q 471 44 488 60 q 426 17 454 28 l 422 10 l 394 6 l 303 60 q 268 129 282 89 l 264 592 q 254 614 258 603 q 243 635 250 625 l 229 642 l 47 654 l 28 642 l 21 633 l 21 619 l 90 531 l 117 160 l 167 67 l 249 6 q 267 1 253 4 q 297 -7 281 -3 q 326 -15 313 -11 q 340 -18 339 -18 l 864 -18 q 878 -15 865 -18 q 908 -7 892 -11 q 938 1 924 -3 q 956 6 951 4 l 958 7 l 946 -12 z "},"":{"ha":1014,"x_min":24,"x_max":990,"o":"m 538 6 q 610 1 574 4 q 719 -6 664 -6 q 808 1 761 -6 q 897 26 856 7 q 964 78 938 44 q 990 167 990 111 q 960 258 990 218 q 885 326 931 299 q 788 369 840 354 q 693 383 736 383 q 586 364 639 383 l 586 418 l 590 549 q 611 575 600 565 q 634 591 622 585 q 660 601 646 597 q 690 613 674 606 l 690 619 q 680 638 690 631 q 655 647 669 644 q 626 651 640 650 q 606 651 613 651 q 551 650 582 651 q 492 640 519 649 q 486 639 489 640 q 479 642 483 640 q 461 646 468 646 l 265 646 q 198 640 239 646 q 118 620 157 635 q 51 581 79 606 q 24 518 24 556 q 30 467 24 488 q 61 429 36 447 q 78 426 72 426 q 101 430 89 426 q 125 436 114 433 q 146 458 138 447 q 165 481 154 469 q 197 562 174 524 q 263 615 219 600 l 353 604 q 378 588 365 596 q 403 571 392 581 q 421 549 414 561 q 422 546 421 547 l 419 174 l 417 93 q 403 75 410 83 q 390 60 397 67 l 315 31 l 314 22 q 327 1 314 7 q 353 -4 340 -4 l 381 -4 q 397 -6 389 -6 q 422 -4 410 -6 l 486 -4 q 525 1 506 -4 q 538 6 531 3 m 872 243 q 860 189 872 225 q 828 117 847 153 q 785 53 808 81 q 743 26 763 26 q 616 58 656 26 q 576 174 576 89 q 580 244 576 214 q 585 315 583 275 q 649 335 617 322 q 714 347 682 347 q 769 343 740 347 q 820 328 797 339 q 858 296 843 317 q 872 243 872 275 z "},"":{"ha":636,"x_min":18,"x_max":606,"o":"m 606 322 q 603 338 606 329 l 593 351 l 575 363 l 250 308 q 210 324 224 315 q 181 358 196 333 l 169 468 q 227 558 186 525 q 329 590 268 590 l 415 540 q 440 503 429 519 q 469 471 450 486 l 546 460 q 565 472 557 463 q 579 492 574 481 q 545 560 571 531 q 485 610 519 590 q 410 640 450 629 q 335 650 369 650 q 194 620 254 650 q 96 540 135 590 q 38 424 57 490 q 18 283 18 357 q 26 228 18 253 q 48 180 35 203 q 78 134 61 157 q 113 85 96 111 q 147 58 129 72 q 183 32 164 44 q 221 11 201 19 q 264 4 240 3 l 458 15 l 568 81 q 591 117 579 93 q 601 158 603 142 l 601 169 l 596 178 q 567 196 585 192 q 531 200 549 200 q 522 199 526 200 q 513 196 517 197 q 490 174 499 188 q 469 149 481 161 q 457 115 465 131 q 438 85 449 100 q 401 60 422 71 l 271 49 q 226 73 243 57 q 197 111 208 89 q 180 158 186 133 q 169 208 174 183 q 186 247 176 232 q 221 275 196 263 l 589 290 l 599 297 l 604 308 l 606 322 m 475 806 q 457 851 476 835 q 413 875 438 868 q 366 858 382 878 q 342 813 350 838 q 349 785 343 797 q 363 760 356 772 q 385 747 372 751 q 408 740 397 743 q 433 752 422 747 q 452 763 444 757 q 465 778 460 768 q 475 806 471 788 m 256 806 q 238 851 257 835 q 193 875 218 868 q 147 858 163 878 q 122 813 131 838 q 130 785 124 797 q 143 760 136 772 q 165 747 153 751 q 189 740 178 743 q 214 752 203 747 q 233 763 225 757 q 246 778 240 768 q 256 806 251 788 z "},"":{"ha":765,"x_min":25,"x_max":718,"o":"m 596 431 q 578 474 596 456 q 535 492 560 492 q 491 474 508 492 q 474 431 474 456 q 491 386 474 404 q 535 368 508 368 q 578 386 560 368 q 596 431 596 404 m 718 554 q 713 576 714 565 q 708 597 711 586 q 685 621 707 601 q 629 667 663 640 q 556 726 596 694 q 480 785 515 757 q 417 835 444 814 q 382 863 390 856 q 353 862 368 864 q 328 851 339 860 q 177 669 251 760 q 25 488 103 579 q 33 460 25 472 q 43 433 40 447 q 71 411 54 421 q 140 451 111 419 q 192 517 169 483 q 235 578 215 551 q 281 606 256 606 q 297 603 292 606 q 313 579 307 594 l 322 138 q 340 122 333 129 q 358 120 350 121 q 376 119 367 119 l 386 119 l 396 124 q 407 135 403 129 q 418 146 411 140 q 420 202 418 161 q 424 295 422 243 q 429 405 426 347 q 435 512 432 463 q 442 595 439 561 q 450 633 446 629 l 456 639 l 464 640 q 485 639 475 640 q 504 638 494 638 q 548 604 522 626 q 599 559 574 582 q 646 519 624 536 q 679 503 668 503 l 690 503 l 701 511 q 718 554 715 528 m 283 450 q 267 490 283 474 q 228 506 251 506 q 189 490 204 506 q 174 450 174 474 q 189 411 174 426 q 228 396 204 396 q 267 411 251 396 q 283 450 283 426 m 418 35 q 403 72 418 57 q 367 88 388 88 q 329 72 344 88 q 314 35 314 57 q 329 -3 314 13 q 367 -18 344 -18 q 403 -3 388 -18 q 418 35 418 13 m 569 422 q 550 403 569 403 q 531 422 531 403 q 550 442 531 442 q 569 422 569 442 m 253 450 q 233 431 253 431 q 214 450 214 431 q 233 469 214 469 q 253 450 253 469 z "},"":{"ha":703,"x_min":-11,"x_max":669,"o":"m 8 281 q -6 274 -1 281 q -11 261 -11 268 q -6 248 -11 254 q 8 242 -1 242 l 89 242 q 124 163 99 197 q 178 85 150 128 q 213 58 196 72 q 249 32 231 44 q 287 11 267 19 q 331 4 307 3 l 525 15 l 633 81 q 657 117 644 93 q 668 158 669 142 l 668 169 l 663 178 q 632 196 650 192 q 597 200 614 200 q 588 199 593 200 q 578 196 582 197 q 555 174 564 188 q 536 149 546 161 q 504 85 526 117 q 467 60 488 69 l 338 49 q 292 73 310 57 q 264 111 275 89 q 247 158 253 133 q 236 208 240 183 l 244 242 l 639 242 q 653 248 649 242 q 657 261 657 254 q 653 274 657 268 q 639 281 649 281 l 251 281 q 253 300 253 290 q 254 319 254 310 q 253 354 254 338 q 249 388 251 371 l 621 388 q 635 394 631 388 q 640 407 640 400 q 635 420 640 414 q 621 426 631 426 l 242 426 q 239 447 240 438 q 236 468 238 457 q 294 558 253 525 q 394 590 335 590 l 482 540 q 506 503 496 519 q 536 471 515 486 l 613 460 q 632 472 624 463 q 644 492 640 481 q 612 560 638 531 q 551 610 586 590 q 476 640 517 629 q 401 650 436 650 q 293 633 342 650 q 208 587 244 617 q 144 516 171 557 q 104 426 118 475 l 15 426 q 1 420 6 426 q -4 407 -4 414 q 1 394 -4 400 q 15 388 6 388 l 94 388 q 83 283 83 335 l 83 281 l 8 281 z "},"":{"ha":433,"x_min":0,"x_max":0,"o":""},"":{"ha":433,"x_min":0,"x_max":0,"o":""},"":{"ha":708,"x_min":18,"x_max":664,"o":"m 546 243 q 533 189 546 225 q 501 117 521 153 q 459 53 482 81 q 417 26 436 26 q 290 58 329 26 q 250 174 250 89 q 253 244 250 214 q 258 315 257 275 q 323 335 290 322 q 388 347 356 347 q 442 343 414 347 q 494 328 471 339 q 531 296 517 317 q 546 243 546 275 m 260 389 l 264 549 q 285 575 274 565 q 308 591 296 585 q 333 601 319 597 q 364 613 347 606 l 421 619 q 487 565 464 603 q 518 485 510 528 q 538 463 529 474 q 558 440 546 451 q 606 431 585 431 q 622 433 611 431 q 660 506 660 460 q 634 578 660 550 q 570 623 608 607 q 489 644 532 639 q 413 650 446 650 l 310 650 q 300 651 304 650 l 279 651 q 225 650 256 651 l 218 650 q 165 640 190 647 q 161 639 163 640 q 150 640 156 639 q 117 650 136 640 l 47 650 l 25 639 l 22 629 l 28 615 q 71 593 50 608 q 96 553 90 576 l 92 93 q 84 73 92 83 q 66 54 76 63 q 44 40 56 46 q 25 31 33 33 l 18 17 l 22 7 q 71 -6 44 -6 q 122 1 97 -6 q 154 6 139 4 l 160 6 q 197 0 178 0 l 289 0 q 393 -6 340 -6 q 482 1 435 -6 q 570 26 529 7 q 638 78 611 44 q 664 167 664 111 q 634 258 664 218 q 559 326 604 299 q 462 369 514 354 q 367 383 410 383 q 260 364 313 383 l 260 389 z "},"":{"ha":647,"x_min":17,"x_max":596,"o":"m 596 210 q 581 248 596 225 q 538 298 565 271 q 473 355 510 325 q 394 415 436 385 l 532 567 l 526 610 l 446 644 q 443 646 444 644 l 440 646 l 419 656 l 418 656 l 360 669 l 358 669 l 261 675 l 257 674 l 133 679 q 78 663 107 668 q 28 639 50 657 l 24 631 l 31 615 q 51 606 39 613 q 73 592 63 600 q 91 573 83 583 q 99 553 99 563 l 101 104 q 92 81 101 93 q 68 58 82 69 q 40 37 54 47 q 17 18 25 26 l 24 10 q 43 1 32 3 q 64 0 54 0 l 468 0 q 493 8 478 0 q 515 21 508 15 q 560 58 544 39 q 583 100 576 78 q 592 149 590 122 q 596 210 593 176 m 399 594 q 383 552 392 576 q 363 504 374 528 q 342 459 353 481 q 318 425 331 438 l 289 444 l 283 567 l 286 608 l 358 607 l 399 594 m 394 415 l 394 414 l 394 415 m 431 189 q 427 153 431 171 q 419 119 424 136 q 403 101 408 108 q 394 88 399 93 q 382 78 390 82 q 356 68 374 74 q 324 72 340 68 q 296 90 307 75 l 292 296 q 306 306 299 301 q 319 314 313 310 q 401 274 371 307 q 431 189 431 242 z "},"":{"ha":688,"x_min":22,"x_max":660,"o":"m 660 506 q 634 578 660 550 q 570 623 608 607 q 489 644 532 639 q 413 650 446 650 l 222 650 q 204 646 215 650 q 186 639 193 642 q 150 640 164 639 q 117 650 136 640 l 47 650 l 25 639 l 22 629 l 28 615 q 70 592 50 608 q 96 553 90 576 l 100 82 q 113 52 107 67 q 126 22 118 38 q 159 5 140 10 q 197 0 178 0 l 331 0 q 356 6 343 0 q 369 26 369 11 l 368 33 l 293 63 q 280 79 286 71 q 267 97 274 88 l 256 522 q 263 553 256 540 q 281 575 269 565 q 305 592 292 585 q 331 608 318 600 l 421 619 q 487 565 464 603 q 518 485 510 528 q 538 463 529 474 q 558 440 546 451 q 606 431 585 431 q 622 433 611 431 q 660 506 660 460 z "},"":{"ha":1006,"x_min":18,"x_max":965,"o":"m 664 167 q 634 258 664 218 q 559 326 604 299 q 462 369 514 354 q 367 383 410 383 q 258 364 313 383 l 264 549 q 285 575 274 565 q 308 591 296 585 q 333 601 319 597 q 364 613 347 606 l 364 619 q 353 638 364 631 q 328 647 343 644 q 300 651 314 650 q 279 651 286 651 q 224 650 256 651 q 165 640 193 649 q 116 615 136 632 q 96 564 96 597 l 92 93 q 84 73 92 83 q 66 54 76 63 q 44 40 56 46 q 25 31 33 33 l 18 17 l 22 7 q 71 -6 44 -6 q 122 1 97 -6 q 172 7 147 7 q 283 1 228 7 q 393 -6 338 -6 q 482 1 435 -6 q 570 26 529 7 q 638 78 611 44 q 664 167 664 111 m 546 243 q 533 189 546 225 q 501 117 521 153 q 459 53 482 81 q 417 26 436 26 q 290 58 329 26 q 250 174 250 89 q 253 244 250 214 q 258 315 257 275 q 323 335 290 322 q 388 347 356 347 q 442 343 414 347 q 494 328 471 339 q 531 296 517 317 q 546 243 546 275 m 965 18 q 938 47 958 36 q 908 72 918 57 l 906 615 q 891 637 899 626 q 869 653 883 647 l 679 657 l 675 639 q 690 621 678 629 q 715 605 701 613 q 742 590 729 597 q 761 575 756 583 l 735 25 l 743 13 q 767 3 754 6 q 792 0 779 0 l 963 0 l 965 18 z "},"":{"ha":700,"x_min":18,"x_max":664,"o":"m 546 243 q 533 189 546 225 q 501 117 521 153 q 459 53 482 81 q 417 26 436 26 q 290 58 329 26 q 250 174 250 89 q 253 244 250 214 q 258 315 257 275 q 323 335 290 322 q 388 347 356 347 q 442 343 414 347 q 494 328 471 339 q 531 296 517 317 q 546 243 546 275 m 664 167 q 634 258 664 218 q 559 326 604 299 q 462 369 514 354 q 367 383 410 383 q 258 364 313 383 l 264 549 q 285 575 274 565 q 308 591 296 585 q 333 601 319 597 q 364 613 347 606 l 364 619 q 353 638 364 631 q 328 647 343 644 q 300 651 314 650 q 279 651 286 651 q 224 650 256 651 q 165 640 193 649 q 116 615 136 632 q 96 564 96 597 l 92 93 q 84 73 92 83 q 66 54 76 63 q 44 40 56 46 q 25 31 33 33 l 18 17 l 22 7 q 71 -6 44 -6 q 122 1 97 -6 q 172 7 147 7 q 283 1 228 7 q 393 -6 338 -6 q 482 1 435 -6 q 570 26 529 7 q 638 78 611 44 q 664 167 664 111 z "},"":{"ha":636,"x_min":18,"x_max":606,"o":"m 19 308 l 25 297 l 35 290 l 403 275 q 438 247 428 263 q 454 208 447 232 q 444 158 450 183 q 426 111 438 133 q 398 73 415 89 q 353 49 381 57 l 222 60 q 186 85 201 71 q 167 115 175 100 q 154 149 158 131 q 134 174 143 161 q 111 196 125 188 q 102 199 107 197 q 93 200 97 200 q 57 196 75 200 q 28 178 39 192 l 22 169 l 22 158 q 33 117 21 142 q 56 81 44 93 l 165 15 l 360 4 q 403 11 383 3 q 441 32 422 19 q 477 58 460 44 q 511 85 494 72 q 545 134 528 111 q 576 180 563 157 q 597 228 589 203 q 606 283 606 253 q 586 424 606 357 q 528 540 567 490 q 429 620 489 590 q 289 650 369 650 q 214 640 254 650 q 139 610 174 629 q 78 560 104 590 q 44 492 53 531 q 58 472 50 481 q 78 460 67 463 l 154 471 q 184 503 174 486 q 208 540 194 519 l 294 590 q 397 558 356 590 q 454 468 438 525 l 443 358 q 414 324 428 333 q 374 308 400 315 l 49 363 l 31 351 l 21 338 q 18 322 18 329 l 19 308 z "},"":{"ha":1061,"x_min":15,"x_max":1025,"o":"m 863 326 q 860 258 863 289 q 850 199 857 228 q 831 142 843 171 q 800 79 818 114 q 786 71 796 76 q 765 59 776 65 q 744 49 754 53 q 731 44 735 44 q 715 44 726 44 q 692 44 704 44 q 669 44 681 44 q 658 44 660 44 l 581 68 l 525 154 l 525 463 l 572 553 q 585 561 575 556 q 608 573 596 567 q 630 584 619 579 q 643 589 640 589 l 761 576 q 781 563 772 569 q 800 549 790 556 q 863 326 863 444 m 733 313 l 733 360 q 722 381 728 372 q 706 399 717 390 q 699 401 703 400 q 690 403 694 403 q 666 399 678 403 q 643 388 654 394 q 628 367 635 376 q 615 344 621 357 l 639 257 l 651 249 l 671 246 q 690 256 679 249 q 710 273 700 264 q 726 292 719 282 q 733 313 733 303 m 289 350 q 344 347 315 350 l 344 344 q 356 238 344 283 q 392 156 368 193 q 453 86 417 118 q 540 21 490 54 q 559 16 544 19 q 590 8 574 13 q 619 1 606 4 q 635 -1 632 -1 q 717 3 675 -1 q 800 10 760 7 q 892 71 850 44 q 963 127 933 97 q 1008 196 992 157 q 1025 296 1025 235 q 966 516 1025 426 q 785 651 907 606 l 572 647 l 407 533 q 360 446 374 493 q 346 381 350 414 l 247 382 l 246 615 q 231 637 239 626 q 210 653 224 647 l 19 657 l 15 639 q 30 621 18 629 q 56 605 42 613 q 83 590 69 597 q 101 575 96 583 l 92 385 l 81 385 q 49 372 63 381 q 33 343 38 361 q 28 310 28 325 q 40 281 32 293 q 64 265 51 271 q 86 257 74 260 l 75 25 l 83 13 q 107 3 94 6 q 132 0 119 0 l 303 0 l 306 18 q 278 47 299 36 q 249 72 258 57 l 247 350 l 289 350 z "},"":{"ha":613,"x_min":-62,"x_max":572,"o":"m -61 28 l 96 39 q 140 72 121 50 q 177 122 160 94 q 213 177 194 149 q 251 231 231 206 q 296 275 271 257 q 354 300 321 293 q 390 278 374 293 q 408 242 406 264 q 413 146 411 196 q 416 46 414 96 q 422 -53 418 -4 q 435 -149 426 -103 q 449 -205 439 -172 q 473 -272 460 -237 q 500 -339 486 -306 q 525 -394 514 -372 l 532 -399 l 540 -394 l 546 -387 l 535 596 l 572 661 q 515 672 549 672 q 458 665 488 672 q 410 636 429 657 q 347 648 383 642 q 275 660 310 654 q 215 669 240 665 q 185 672 189 672 l 104 646 q 94 628 99 636 q 85 611 89 621 q 99 549 86 578 q 128 492 111 519 q 163 437 144 464 q 193 381 181 410 q 190 356 193 374 q 185 335 188 339 q 96 212 140 274 q 4 92 51 150 q -11 77 -1 83 q -31 65 -21 71 q -50 51 -42 58 q -62 36 -58 44 l -61 28 m 214 476 q 230 538 217 513 q 274 586 243 564 q 315 601 290 599 q 361 603 339 604 q 399 600 383 603 q 415 597 415 597 l 382 385 q 370 369 381 378 q 354 357 360 360 l 331 356 q 297 362 318 354 q 264 376 275 369 q 246 396 256 388 q 225 411 236 404 q 222 422 225 413 q 217 448 219 432 q 214 476 214 464 z "}}}
